<svg width="1024" height="225" viewBox="0 0 1024 225" fill="none" xmlns="http://www.w3.org/2000/svg">
<g clip-path="url(#clip0)">
<path d="M400.611 71.6722C406.893 75.4697 412.209 80.6912 415.591 87.8115C419.457 94.9317 421.39 103.476 421.39 112.97C421.39 122.463 419.457 130.533 415.108 137.653C411.242 144.774 405.443 149.995 398.195 153.318C390.946 157.115 382.247 159.014 373.066 159.014C367.75 159.014 362.917 158.065 358.085 156.166C353.252 154.742 348.903 151.894 345.521 148.571V197.938H317.492V67.8748H341.655L344.071 78.3178C354.702 69.7735 366.3 65.5013 378.381 65.5013C386.597 65.5013 394.329 67.4001 400.611 71.6722ZM385.147 130.533C389.979 126.261 392.396 120.565 392.396 113.444C392.396 106.324 389.979 100.628 385.63 95.8811C381.281 91.1343 375.482 89.2355 369.2 89.2355C363.884 89.2355 359.051 90.1849 355.185 92.5583C351.32 94.4571 348.42 97.7798 346.004 102.052V123.413C347.454 127.685 350.353 131.008 353.736 133.381C357.602 135.755 361.951 137.179 367.267 137.179C374.515 137.179 380.314 134.805 385.147 130.533Z" fill="white"/>
<path d="M437.819 88.2761C442.169 81.6305 447.967 75.9343 455.699 72.1368C463.431 68.3394 472.13 65.9659 481.795 65.9659C491.46 65.9659 500.158 67.8647 507.89 72.1368C515.139 75.9343 520.938 81.6305 525.287 88.7507C529.636 95.871 531.569 103.466 531.569 112.485C531.569 121.504 529.636 129.099 525.287 136.219C520.938 143.339 515.622 149.036 507.89 152.833C500.641 156.63 491.46 159.004 481.795 159.004C472.13 159.004 463.431 157.105 455.699 153.308C447.967 149.51 442.169 144.289 437.819 137.168C433.953 130.048 431.537 121.979 431.537 112.485C431.537 103.466 433.953 95.3963 437.819 88.2761ZM466.331 129.574C470.197 134.32 475.513 136.219 481.795 136.219C488.077 136.219 493.393 133.846 497.259 129.574C501.125 125.301 503.058 119.13 503.058 112.485C503.058 105.365 501.125 99.6685 497.259 95.3963C492.909 90.6495 488.077 88.2761 481.312 88.2761C475.029 88.2761 470.197 90.6495 465.848 94.9216C461.982 99.6685 460.049 105.365 460.049 112.485C460.049 119.13 461.982 124.827 466.331 129.574Z" fill="white"/>
<path d="M576.999 0.465088V156.636H548.971V0.465088H576.999Z" fill="white"/>
<path d="M692.008 70.2417L634.985 198.406H607.924L629.186 152.362L588.594 70.2417H620.488L643.684 121.507L666.88 70.2417H692.008Z" fill="white"/>
<path d="M799.285 70.2381V156.631C799.285 164.7 796.869 172.295 792.036 178.941C787.204 185.586 780.922 190.808 772.706 194.605C764.491 198.403 755.793 200.301 746.128 200.301C738.879 200.301 732.597 199.352 727.281 197.928C721.966 196.029 717.616 194.131 714.234 192.232C710.368 189.858 706.502 187.01 702.152 183.213L718.583 164.225C722.449 168.023 726.798 170.871 730.664 172.77C734.53 174.668 739.846 176.093 745.645 176.093C752.893 176.093 758.692 174.194 763.525 170.871C768.357 167.548 770.773 162.327 770.773 156.156V143.814C767.874 148.086 764.008 151.884 758.209 154.732C752.41 157.58 745.645 159.004 737.913 159.004C730.181 159.004 722.449 157.105 715.683 152.833C708.918 149.036 703.602 143.339 699.253 136.219C695.387 129.099 692.971 121.504 692.971 112.96C692.971 104.415 694.904 96.3457 699.253 89.2254C703.602 82.1052 708.918 76.409 716.167 72.1368C722.932 67.8647 730.181 65.9659 737.913 65.9659C745.161 65.9659 751.444 66.9153 757.243 68.814C763.042 70.7128 767.391 73.5609 770.29 76.8837L773.19 70.2381H799.285ZM770.773 123.403V102.042C768.84 97.7698 765.941 94.447 761.592 92.0735C757.243 89.7001 752.41 88.2761 746.611 88.2761C739.846 88.2761 734.047 90.6495 729.214 94.9216C724.382 99.1938 721.965 104.89 721.965 112.01C721.965 118.656 724.382 124.827 729.214 129.574C734.047 134.32 739.846 136.694 746.611 136.694C757.726 136.219 765.941 131.947 770.773 123.403Z" fill="white"/>
<path d="M822.489 88.2861C826.839 81.1659 832.637 75.9444 840.369 71.6722C848.101 67.8748 856.8 65.5013 866.465 65.5013C876.13 65.5013 884.828 67.4001 892.56 71.6722C899.809 75.4697 905.608 81.1659 909.957 88.2861C913.823 95.4064 916.239 103.001 916.239 112.02C916.239 121.039 914.306 128.634 909.957 135.754C906.091 142.875 900.292 148.571 892.56 152.368C885.311 156.166 876.13 158.539 866.465 158.539C856.8 158.539 848.101 156.641 840.369 152.843C832.637 149.046 826.839 143.824 822.489 136.704C818.14 129.584 816.207 121.514 816.207 111.546C816.207 103.476 818.14 95.4064 822.489 88.2861ZM850.518 129.584C854.384 134.33 859.699 136.229 865.981 136.229C872.264 136.229 877.579 133.856 881.445 129.584C885.311 125.311 887.244 119.141 887.244 112.495C887.244 105.375 885.311 99.6785 881.445 95.4064C877.579 91.1342 872.264 88.7608 865.981 88.7608C859.699 88.7608 854.867 91.1342 850.518 95.4064C846.168 99.6785 844.235 105.849 844.235 112.495C844.719 119.141 846.652 124.837 850.518 129.584Z" fill="white"/>
<path d="M1015.3 73.0862C1021.1 77.833 1023.52 84.0039 1024 91.5989V156.631H995.491V102.042C995.008 93.4976 990.659 89.2254 982.443 89.2254C976.161 89.2254 970.846 92.0735 966.98 98.2444C963.114 104.415 961.181 112.01 961.181 121.029V156.631H933.152V70.2381H958.764L960.697 84.0039C964.08 78.3077 968.429 74.0356 974.228 70.7128C980.027 67.39 986.793 65.9659 994.525 65.9659C1002.74 65.9659 1009.99 68.3394 1015.3 73.0862Z" fill="white"/>
<path d="M197.648 68.8243C192.815 65.9762 186.533 65.9762 181.218 68.8243L143.524 90.6598L117.912 104.9L80.219 126.736C75.3865 129.584 69.1043 129.584 63.7886 126.736L33.8273 109.647C28.9948 106.799 25.6121 101.577 25.6121 95.8813V62.1787C25.6121 56.4825 28.5116 51.261 33.8273 48.4129L63.3053 31.799C68.1378 28.9509 74.42 28.9509 79.7357 31.799L109.214 48.4129C114.046 51.261 117.429 56.4825 117.429 62.1787V84.0142L143.041 69.299V47.4636C143.041 41.7674 140.142 36.5458 134.826 33.6977L80.219 2.36862C75.3865 -0.479481 69.1043 -0.479481 63.7886 2.36862L8.2152 33.6977C2.89948 36.5458 0 41.7674 0 47.4636V110.596C0 116.293 2.89948 121.514 8.2152 124.362L63.7886 155.691C68.621 158.54 74.9033 158.54 80.219 155.691L117.912 134.331L143.524 119.615L181.218 98.2547C186.05 95.4066 192.332 95.4066 197.648 98.2547L227.126 114.869C231.958 117.717 235.341 122.938 235.341 128.634V162.337C235.341 168.033 232.442 173.255 227.126 176.103L197.648 193.191C192.815 196.04 186.533 196.04 181.218 193.191L151.74 176.577C146.907 173.729 143.524 168.508 143.524 162.812V140.976L117.912 155.691V177.527C117.912 183.223 120.812 188.445 126.127 191.293L181.701 222.622C186.533 225.47 192.815 225.47 198.131 222.622L253.705 191.293C258.537 188.445 261.92 183.223 261.92 177.527V114.394C261.92 108.698 259.02 103.476 253.705 100.628L197.648 68.8243Z" fill="white"/>
</g>
<defs>
<clipPath id="clip0">
<rect width="1024" height="225" fill="white"/>
</clipPath>
</defs>
</svg>
