<?xml version="1.0" encoding="UTF-8" standalone="no"?>
<svg
   viewBox="0 0 73.95 67.39"
   version="1.1"
   id="svg57"
   sodipodi:docname="diplamo-logo.svg"
   inkscape:version="1.1 (c68e22c387, 2021-05-23)"
   xmlns:inkscape="http://www.inkscape.org/namespaces/inkscape"
   xmlns:sodipodi="http://sodipodi.sourceforge.net/DTD/sodipodi-0.dtd"
   xmlns="http://www.w3.org/2000/svg"
   xmlns:svg="http://www.w3.org/2000/svg"
   xmlns:rdf="http://www.w3.org/1999/02/22-rdf-syntax-ns#"
   xmlns:cc="http://creativecommons.org/ns#"
   xmlns:dc="http://purl.org/dc/elements/1.1/">
  <sodipodi:namedview
     id="namedview59"
     pagecolor="#ffffff"
     bordercolor="#666666"
     borderopacity="1.0"
     inkscape:pageshadow="2"
     inkscape:pageopacity="0.0"
     inkscape:pagecheckerboard="0"
     showgrid="false"
     inkscape:zoom="6.4425518"
     inkscape:cx="67.752656"
     inkscape:cy="42.529732"
     inkscape:window-width="1368"
     inkscape:window-height="842"
     inkscape:window-x="-6"
     inkscape:window-y="-6"
     inkscape:window-maximized="1"
     inkscape:current-layer="svg57" />
  <defs
     id="defs9">
    <style
       id="style2">.cls-1,.cls-4,.cls-6{fill:#389bf3;}.cls-1,.cls-2{opacity:0.8;}.cls-2,.cls-5,.cls-8{fill:#ff9d23;}.cls-3,.cls-7{fill:#aa7dff;}.cls-11,.cls-6,.cls-7,.cls-8{opacity:0.5;}.cls-9{fill:#fff;}.cls-10,.cls-11,.cls-12,.cls-13,.cls-14{fill:none;stroke:#732e54;stroke-miterlimit:10;}.cls-12{opacity:0.2;}.cls-13,.cls-14{stroke-width:2px;}.cls-14{stroke-linecap:round;}.cls-15{fill:url(#lukaszadam_gradient);}</style>
    <linearGradient
       id="lukaszadam_gradient"
       x1="193.75"
       y1="1.32"
       x2="200.18"
       y2="1.32"
       gradientTransform="translate(205.6 134.62) rotate(-149.19)"
       gradientUnits="userSpaceOnUse">
      <stop
         offset="0.04"
         stop-color="#f27b40"
         id="stop4" />
      <stop
         offset="1"
         stop-color="#ec697d"
         id="stop6" />
    </linearGradient>
  </defs>
  <title
     id="title11">Asset 19</title>
  <g
     id="Layer_2"
     data-name="Layer 2">
    <g
       id="Layer_1-2"
       data-name="Layer 1">
      <path
         class="cls-1"
         d="M67.71,23.28l-20.07,13a2.64,2.64,0,0,1-2.88-4.43l20.07-13a2.64,2.64,0,1,1,2.88,4.43Z"
         id="path13" />
      <path
         class="cls-2"
         d="M40.89,40.72,27.47,49.44A2.64,2.64,0,0,1,24.59,45L38,36.29a2.64,2.64,0,1,1,2.88,4.43Z"
         id="path15" />
      <path
         class="cls-3"
         d="M58.29,20.22l-20.07,13a2.64,2.64,0,1,1-2.88-4.43l20.07-13a2.65,2.65,0,0,1,2.88,4.44Z"
         id="path17" />
      <path
         class="cls-4"
         d="M31.47,37.65,18.05,46.38a2.65,2.65,0,1,1-2.88-4.44l13.42-8.72a2.64,2.64,0,0,1,2.88,4.43Z"
         id="path19" />
      <path
         class="cls-5"
         d="M64.34,16.28l-.12.08a2.64,2.64,0,1,1-2.88-4.43l.12-.08a2.64,2.64,0,1,1,2.88,4.43Z"
         id="path21" />
      <path
         class="cls-6"
         d="M66.69,33.14l-20.07,13a2.64,2.64,0,0,1-2.88-4.43l20.07-13a2.64,2.64,0,1,1,2.88,4.43Z"
         id="path23" />
      <path
         class="cls-7"
         d="M39.87,50.58,26.45,59.3a2.64,2.64,0,1,1-2.88-4.43L37,46.15a2.64,2.64,0,1,1,2.88,4.43Z"
         id="path25" />
      <path
         class="cls-8"
         d="M72.74,29.21l-.12.08a2.64,2.64,0,0,1-2.88-4.43l.12-.08a2.64,2.64,0,1,1,2.88,4.43Z"
         id="path27" />
      <rect
         class="cls-9"
         x="1.49"
         y="0.83999997"
         width="45.291466"
         height="65.52256"
         id="rect29" />
      <line
         class="cls-10"
         x1="42.19"
         y1="61.24"
         x2="42.19"
         y2="47.98"
         id="line31" />
      <line
         class="cls-11"
         x1="42.19"
         y1="46.08"
         x2="42.19"
         y2="41.76"
         id="line33" />
      <line
         class="cls-12"
         x1="42.19"
         y1="39.9"
         x2="42.19"
         y2="36.58"
         id="line35" />
      <rect
         class="cls-13"
         x="1"
         y="1"
         width="46.44"
         height="65.39"
         rx="3"
         id="rect37" />
      <line
         class="cls-14"
         x1="13.85"
         y1="11.08"
         x2="36.17"
         y2="11.08"
         id="line39" />
      <line
         class="cls-14"
         x1="13.85"
         y1="16.66"
         x2="21.17"
         y2="16.66"
         id="line41" />
      <line
         class="cls-14"
         x1="13.85"
         y1="27.83"
         x2="21.17"
         y2="27.83"
         id="line43" />
      <line
         class="cls-14"
         x1="13.85"
         y1="22.24"
         x2="34.17"
         y2="22.24"
         id="line45" />
      <line
         class="cls-14"
         x1="13.58"
         y1="58.82"
         x2="34.61"
         y2="58.82"
         id="line47" />
      <path
         class="cls-15"
         d="M51.42,8.6h0A3.2,3.2,0,0,1,52.54,13L29.13,52.25l-6.05,4.54L23.61,49,47,9.71A3.21,3.21,0,0,1,51.42,8.6Z"
         id="path49" />
      <polygon
         class="cls-9"
         points="29.47 51.16 23.48 55.65 24.01 47.82 29.47 51.16"
         id="polygon51" />
      <path
         class="cls-13"
         d="M51.3,8.52h0a3.22,3.22,0,0,1,1.11,4.41L29.52,51.31l-6.67,5.34L24,48,46.89,9.63A3.22,3.22,0,0,1,51.3,8.52Z"
         id="path53" />
    </g>
  </g>
  <metadata
     id="metadata278">
    <rdf:RDF>
      <cc:Work
         rdf:about="">
        <dc:title>Asset 19</dc:title>
      </cc:Work>
    </rdf:RDF>
  </metadata>
</svg>
