<?xml version="1.0" encoding="UTF-8" standalone="no"?>
<!-- Generator: Adobe Illustrator 23.1.1, SVG Export Plug-In . SVG Version: 6.00 Build 0)  -->

<svg
   version="1.1"
   id="Layer_1"
   x="0px"
   y="0px"
   viewBox="0 0 1000 1000"
   style="enable-background:new 0 0 1000 1000;"
   xml:space="preserve"
   sodipodi:docname="vault-rounded.svg"
   inkscape:version="1.1 (c68e22c387, 2021-05-23)"
   xmlns:inkscape="http://www.inkscape.org/namespaces/inkscape"
   xmlns:sodipodi="http://sodipodi.sourceforge.net/DTD/sodipodi-0.dtd"
   xmlns="http://www.w3.org/2000/svg"
   xmlns:svg="http://www.w3.org/2000/svg"><defs
   id="defs139" /><sodipodi:namedview
   id="namedview137"
   pagecolor="#ffffff"
   bordercolor="#666666"
   borderopacity="1.0"
   inkscape:pageshadow="2"
   inkscape:pageopacity="0.0"
   inkscape:pagecheckerboard="0"
   showgrid="false"
   inkscape:zoom="0.614"
   inkscape:cx="422.63844"
   inkscape:cy="465.79805"
   inkscape:window-width="1368"
   inkscape:window-height="842"
   inkscape:window-x="-6"
   inkscape:window-y="-6"
   inkscape:window-maximized="1"
   inkscape:current-layer="g1177"
   showguides="true"
   inkscape:guide-bbox="true" />
<style
   type="text/css"
   id="style2">
	.st0{fill:#F7B85C;}
	.st1{fill:#EEF2F4;}
	.st2{enable-background:new    ;}
	.st3{fill:#212552;}
	.st4{fill:#92D6E9;}
	
		.st5{opacity:0.3;fill:#0A1E2B;stroke:#0A1E2B;stroke-width:6;stroke-linecap:round;stroke-linejoin:round;stroke-miterlimit:10;enable-background:new    ;}
	.st6{fill:none;stroke:#212552;stroke-width:6;stroke-linecap:round;stroke-linejoin:round;stroke-miterlimit:10;}
	.st7{fill:#CBEDF9;}
	.st8{fill:#E8F9FF;}
	
		.st9{opacity:0.23;fill:#0A1E2B;stroke:#0A1E2B;stroke-width:6;stroke-linecap:round;stroke-linejoin:round;stroke-miterlimit:10;enable-background:new    ;}
	.st10{fill:none;stroke:#212552;stroke-width:10;stroke-linecap:round;stroke-linejoin:round;stroke-miterlimit:10;}
	.st11{fill:#FFEA9E;}
	.st12{fill:#EDC75D;}
	.st13{fill:none;stroke:#212552;stroke-width:8;stroke-linecap:round;stroke-linejoin:round;stroke-miterlimit:10;}
	.st14{fill:#5F9E71;stroke:#212552;stroke-width:6;stroke-linecap:round;stroke-linejoin:round;stroke-miterlimit:10;}
	.st15{fill:#90C49E;}
	.st16{fill:#FFFFFF;}
</style>
<rect
   id="XMLID_31_"
   y="0"
   class="st0"
   width="1000"
   height="1000"
   style="fill:#ff0000;fill-opacity:0" />
<g
   id="g89">
	<g
   id="g37">
		<g
   id="g7">
			
		</g>
		<g
   id="g11">
			
		</g>
		<g
   id="g15">
			
		</g>
		<g
   id="g19">
			
		</g>
		<g
   id="g23">
			
		</g>
		<g
   id="g27">
			
		</g>
		<g
   id="g31">
			
		</g>
		<g
   id="g35">
			
		</g>
	</g>
	<g
   class="st2"
   id="g49">
		
		
		
		
		
	</g>
	<g
   class="st2"
   id="g71">
		
		
		
		
		
		
		
		
		
		
	</g>
	<g
   class="st2"
   id="g83">
		
		
		
		
		
	</g>
	<g
   id="g87">
		
	</g>
</g>


<g
   id="g1177"
   transform="matrix(0.74545999,0,0,0.74545999,125.64134,126.54476)"><ellipse
     id="XMLID_75_"
     class="st3"
     cx="500"
     cy="685.5"
     rx="182.60001"
     ry="22.799999" /><circle
     style="opacity:0.920128;fill:#ff0000;fill-opacity:1;stroke:none;stroke-width:1.34145"
     id="path1535"
     cx="503.27716"
     cy="491.14142"
     r="365.95029" /><g
     id="XMLID_3_">
	<path
   id="XMLID_20_"
   class="st4"
   d="M 459.5,669.4 V 662 c 0,-3.3 -2.7,-6 -6,-6 h -66 c -3.3,0 -6,2.7 -6,6 v 22 c 0,3.3 2.7,6 6,6 h 43.9 c 4.8,0 9.4,-1.9 12.8,-5.3 z" />
	<path
   id="XMLID_50_"
   class="st5"
   d="m 453.5,656 h -66 c -3.3,0 -6,2.7 -6,6 v 20.4 h 65 l 13,-13 V 662 c 0,-3.3 -2.7,-6 -6,-6 z" />
	<path
   id="XMLID_18_"
   class="st4"
   d="M 540.5,669.4 V 662 c 0,-3.3 2.7,-6 6,-6 h 66 c 3.3,0 6,2.7 6,6 v 22 c 0,3.3 -2.7,6 -6,6 h -43.9 c -4.8,0 -9.4,-1.9 -12.8,-5.3 z" />
	<path
   id="XMLID_51_"
   class="st5"
   d="m 612.5,656 h -66 c -3.3,0 -6,2.7 -6,6 v 7.4 l 13,13 h 65 V 662 c 0,-3.3 -2.7,-6 -6,-6 z" />
	<path
   id="XMLID_27_"
   class="st6"
   d="M 459.5,669.4 V 662 c 0,-3.3 -2.7,-6 -6,-6 h -66 c -3.3,0 -6,2.7 -6,6 v 22 c 0,3.3 2.7,6 6,6 h 43.9 c 4.8,0 9.4,-1.9 12.8,-5.3 z" />
	<path
   id="XMLID_26_"
   class="st6"
   d="M 540.5,669.4 V 662 c 0,-3.3 2.7,-6 6,-6 h 66 c 3.3,0 6,2.7 6,6 v 22 c 0,3.3 -2.7,6 -6,6 h -43.9 c -4.8,0 -9.4,-1.9 -12.8,-5.3 z" />
	<path
   id="XMLID_2_"
   class="st7"
   d="M 630,669.5 H 370 c -22.1,0 -40,-17.9 -40,-40 v -260 c 0,-22.1 17.9,-40 40,-40 h 260 c 22.1,0 40,17.9 40,40 v 260 c 0,22.1 -17.9,40 -40,40 z" />
	<path
   id="XMLID_38_"
   class="st8"
   d="M 630,329.5 H 370 c -22.1,0 -40,17.9 -40,40 v 23 c 0,-22.1 17.9,-40 40,-40 h 260 c 22.1,0 40,17.9 40,40 v -23 c 0,-22.1 -17.9,-40 -40,-40 z" />
	<polygon
   id="XMLID_58_"
   class="st9"
   points="594.3,329.1 577,365.5 568.7,329.1 "
   style="display:none" />
	<path
   id="XMLID_45_"
   class="st4"
   d="M 630,646.5 H 370 c -22.1,0 -40,-17.9 -40,-40 v 23 c 0,22.1 17.9,40 40,40 h 260 c 22.1,0 40,-17.9 40,-40 v -23 c 0,22.1 -17.9,40 -40,40 z" />
	<path
   id="XMLID_19_"
   class="st6"
   d="M 630,669.5 H 370 c -22.1,0 -40,-17.9 -40,-40 v -260 c 0,-22.1 17.9,-40 40,-40 h 260 c 22.1,0 40,17.9 40,40 v 260 c 0,22.1 -17.9,40 -40,40 z" />
	<path
   id="XMLID_82_"
   class="st8"
   d="M 618,365.5 H 382 c -8.8,0 -16,7.2 -16,16 v 8 c 0,-8.8 7.2,-13 16,-13 h 236 c 8.8,0 16,4.2 16,13 v -8 c 0,-8.9 -7.2,-16 -16,-16 z" />
	<path
   id="XMLID_83_"
   class="st4"
   d="M 618,620.5 H 382 c -8.8,0 -16,-7.2 -16,-16 v 13 c 0,8.8 7.2,16 16,16 h 236 c 8.8,0 16,-7.2 16,-16 v -13 c 0,8.8 -7.2,16 -16,16 z" />
	<path
   id="XMLID_7_"
   class="st6"
   d="m 382,633.5 c -8.8,0 -16,-7.2 -16,-16 v -236 c 0,-8.8 7.2,-16 16,-16 h 236 c 8.8,0 16,7.2 16,16 v 236 c 0,8.8 -7.2,16 -16,16 z" />
	<path
   id="XMLID_48_"
   class="st9"
   d="m 605.3,594.6 h -2 c -2.2,0 -4,-1.8 -4,-4 v -152 c 0,-2.2 1.8,-4 4,-4 h 2 c 2.2,0 4,1.8 4,4 v 152 c 0,2.2 -1.8,4 -4,4 z" />
	<path
   id="XMLID_13_"
   class="st4"
   d="m 605.3,574.6 h -2 c -2.2,0 -4,-1.8 -4,-4 v -152 c 0,-2.2 1.8,-4 4,-4 h 2 c 2.2,0 4,1.8 4,4 v 152 c 0,2.2 -1.8,4 -4,4 z" />
	<path
   id="XMLID_14_"
   class="st6"
   d="m 605.3,574.6 h -2 c -2.2,0 -4,-1.8 -4,-4 v -152 c 0,-2.2 1.8,-4 4,-4 h 2 c 2.2,0 4,1.8 4,4 v 152 c 0,2.2 -1.8,4 -4,4 z" />
	<circle
   id="XMLID_39_"
   class="st9"
   cx="500"
   cy="507.5"
   r="65" />
	<circle
   id="XMLID_32_"
   class="st7"
   cx="500"
   cy="499.5"
   r="65" />
	<circle
   id="XMLID_5_"
   class="st6"
   cx="500"
   cy="499.5"
   r="65" />
	<circle
   id="XMLID_34_"
   class="st4"
   cx="500"
   cy="499.5"
   r="54" />
	<line
   id="XMLID_10_"
   class="st10"
   x1="500"
   y1="458.5"
   x2="500"
   y2="540.5" />
	<line
   id="XMLID_8_"
   class="st10"
   x1="541"
   y1="499.5"
   x2="459"
   y2="499.5" />
	<line
   id="XMLID_12_"
   class="st10"
   x1="529"
   y1="470.5"
   x2="471"
   y2="528.5" />
	<line
   id="XMLID_11_"
   class="st10"
   x1="529"
   y1="528.5"
   x2="471"
   y2="470.5" />
	<path
   id="XMLID_37_"
   class="st5"
   d="m 500,547.2 v 0 c -13.8,0 -25,-11.2 -25,-25 v -25 h 50 v 25 c 0,13.8 -11.2,25 -25,25 z" />
	<path
   id="XMLID_46_"
   class="st9"
   d="m 366,462 v 0 c -4.4,0 -8,-3.6 -8,-8 v -24 c 0,-4.4 3.6,-8 8,-8 v 0 c 4.4,0 8,3.6 8,8 v 24 c 0,4.4 -3.6,8 -8,8 z" />
	<path
   id="XMLID_52_"
   class="st9"
   d="m 366,592.5 v 0 c -4.4,0 -8,-3.6 -8,-8 v -24 c 0,-4.4 3.6,-8 8,-8 v 0 c 4.4,0 8,3.6 8,8 v 24 c 0,4.4 -3.6,8 -8,8 z" />
	<path
   id="XMLID_36_"
   class="st4"
   d="m 366,454 v 0 c -4.4,0 -8,-3.6 -8,-8 v -24 c 0,-4.4 3.6,-8 8,-8 v 0 c 4.4,0 8,3.6 8,8 v 24 c 0,4.4 -3.6,8 -8,8 z" />
	<path
   id="XMLID_33_"
   class="st4"
   d="m 366,585 v 0 c -4.4,0 -8,-3.6 -8,-8 v -24 c 0,-4.4 3.6,-8 8,-8 v 0 c 4.4,0 8,3.6 8,8 v 24 c 0,4.4 -3.6,8 -8,8 z" />
	<path
   id="XMLID_15_"
   class="st6"
   d="m 366,454 v 0 c -4.4,0 -8,-3.6 -8,-8 v -24 c 0,-4.4 3.6,-8 8,-8 v 0 c 4.4,0 8,3.6 8,8 v 24 c 0,4.4 -3.6,8 -8,8 z" />
	<path
   id="XMLID_17_"
   class="st6"
   d="m 366,585 v 0 c -4.4,0 -8,-3.6 -8,-8 v -24 c 0,-4.4 3.6,-8 8,-8 v 0 c 4.4,0 8,3.6 8,8 v 24 c 0,4.4 -3.6,8 -8,8 z" />
	<circle
   id="XMLID_29_"
   class="st11"
   cx="500"
   cy="499.5"
   r="25" />
	<circle
   id="XMLID_72_"
   class="st12"
   cx="500"
   cy="499.5"
   r="11.2" />
	<circle
   id="XMLID_9_"
   class="st13"
   cx="500"
   cy="499.5"
   r="23" />
	
	
	<path
   id="XMLID_56_"
   class="st16"
   sodipodi:type="arc"
   sodipodi:cx="568.6192"
   sodipodi:cy="294.5394"
   sodipodi:rx="15"
   sodipodi:ry="14.3"
   sodipodi:start="0"
   sodipodi:end="0.0072002534"
   sodipodi:arc-type="slice"
   d="m 583.6192,294.5394 a 15,14.3 0 0 1 -3.9e-4,0.10296 L 568.6192,294.5394 Z"
   style="display:none" />
	
</g><g
     id="XMLID_6_">
	<line
   id="XMLID_22_"
   class="st6"
   x1="698"
   y1="347.29999"
   x2="677.79999"
   y2="344.5" />
	<line
   id="XMLID_21_"
   class="st6"
   x1="649.90002"
   y1="315.60001"
   x2="646.90002"
   y2="295.39999" />
	<line
   id="XMLID_16_"
   class="st6"
   x1="669.90002"
   y1="322.89999"
   x2="684.40002"
   y2="308.39999" />
</g></g>
<path
   style="opacity:0;fill:#00ffff;stroke:#ff0000;stroke-width:1.62866;stroke-opacity:1"
   d="M 0.81433225,500 V 0 H 500 999.18567 v 500 500 H 500 0.81433225 Z M 609.93485,704.5014 c 74.79877,-7.53992 95.23585,-20.6598 48.35764,-31.04391 -12.6633,-2.80506 -12.69786,-2.82702 -8.14332,-5.17127 7.5857,-3.90443 16.38412,-13.55451 19.98054,-21.91459 3.36325,-7.8181 3.38904,-9.12168 2.95081,-149.19772 l -0.44208,-141.31072 -4.47722,-7.61625 c -5.55449,-9.44885 -14.26142,-16.76997 -23.81615,-20.0256 -10.99942,-3.74787 -277.69072,-3.74787 -288.69014,0 -9.55473,3.25563 -18.26166,10.57675 -23.81615,20.0256 l -4.47722,7.61625 -0.44208,141.31072 c -0.43823,140.07604 -0.41244,141.37962 2.95081,149.19772 3.59642,8.36008 12.39484,18.01016 19.98054,21.91459 4.55454,2.34425 4.51998,2.36621 -8.14332,5.17127 -47.21201,10.45805 -25.49468,24.08505 49.17197,30.85401 40.87884,3.70591 42.74914,3.75728 120.52117,3.31047 52.34015,-0.3007 78.90665,-1.14205 98.5342,-3.12057 z m 90.88372,-357.10554 c 0.44086,-2.9755 -0.83474,-3.52366 -12.09829,-5.19891 -9.6323,-1.43262 -12.87017,-1.42115 -13.77862,0.0487 -2.42692,3.92681 0.64082,5.97582 11.23951,7.5071 13.31,1.92302 14.0202,1.80865 14.6374,-2.35695 z m -21.56798,-28.41387 c 9.13711,-8.64152 10.7385,-12.17451 6.29172,-13.8809 -3.06856,-1.17751 -18.6042,13.39344 -18.6042,17.44898 0,2.47592 1.36495,4.81149 2.81194,4.81149 0.3522,0 4.62744,-3.77081 9.50054,-8.37957 z m -26.43999,-6.3374 c -0.59677,-11.85974 -2.45128,-19.69931 -4.88052,-20.63151 -3.99552,-1.53323 -4.9792,2.19174 -3.43769,13.01765 1.90339,13.36723 2.38699,14.53197 5.74699,13.84171 2.13057,-0.43768 2.78305,-2.01809 2.57122,-6.22785 z"
   id="path1542" /><path
   style="opacity:0;fill:#00ffff;stroke:#ff0000;stroke-width:1.62866;stroke-opacity:1"
   d="M 0.81433225,500 V 0 H 500 999.18567 v 500 500 H 500 0.81433225 Z M 609.93485,704.5014 c 74.79877,-7.53992 95.23585,-20.6598 48.35764,-31.04391 -12.6633,-2.80506 -12.69786,-2.82702 -8.14332,-5.17127 7.5857,-3.90443 16.38412,-13.55451 19.98054,-21.91459 3.36325,-7.8181 3.38904,-9.12168 2.95081,-149.19772 l -0.44208,-141.31072 -4.47722,-7.61625 c -5.55449,-9.44885 -14.26142,-16.76997 -23.81615,-20.0256 -10.99942,-3.74787 -277.69072,-3.74787 -288.69014,0 -9.55473,3.25563 -18.26166,10.57675 -23.81615,20.0256 l -4.47722,7.61625 -0.44208,141.31072 c -0.43823,140.07604 -0.41244,141.37962 2.95081,149.19772 3.59642,8.36008 12.39484,18.01016 19.98054,21.91459 4.55454,2.34425 4.51998,2.36621 -8.14332,5.17127 -47.21201,10.45805 -25.49468,24.08505 49.17197,30.85401 40.87884,3.70591 42.74914,3.75728 120.52117,3.31047 52.34015,-0.3007 78.90665,-1.14205 98.5342,-3.12057 z m 90.88372,-357.10554 c 0.44086,-2.9755 -0.83474,-3.52366 -12.09829,-5.19891 -9.6323,-1.43262 -12.87017,-1.42115 -13.77862,0.0487 -2.42692,3.92681 0.64082,5.97582 11.23951,7.5071 13.31,1.92302 14.0202,1.80865 14.6374,-2.35695 z m -21.56798,-28.41387 c 9.13711,-8.64152 10.7385,-12.17451 6.29172,-13.8809 -3.06856,-1.17751 -18.6042,13.39344 -18.6042,17.44898 0,2.47592 1.36495,4.81149 2.81194,4.81149 0.3522,0 4.62744,-3.77081 9.50054,-8.37957 z m -26.43999,-6.3374 c -0.59677,-11.85974 -2.45128,-19.69931 -4.88052,-20.63151 -3.99552,-1.53323 -4.9792,2.19174 -3.43769,13.01765 1.90339,13.36723 2.38699,14.53197 5.74699,13.84171 2.13057,-0.43768 2.78305,-2.01809 2.57122,-6.22785 z"
   id="path1840" /><path
   style="opacity:0;fill:#00ffff;stroke:#ff0000;stroke-width:1.62866;stroke-opacity:1"
   d="M 0.81433225,500 V 0 H 500 999.18567 v 500 500 H 500 0.81433225 Z M 609.93485,704.5014 c 74.79877,-7.53992 95.23585,-20.6598 48.35764,-31.04391 -12.6633,-2.80506 -12.69786,-2.82702 -8.14332,-5.17127 7.5857,-3.90443 16.38412,-13.55451 19.98054,-21.91459 3.36325,-7.8181 3.38904,-9.12168 2.95081,-149.19772 l -0.44208,-141.31072 -4.47722,-7.61625 c -5.55449,-9.44885 -14.26142,-16.76997 -23.81615,-20.0256 -10.99942,-3.74787 -277.69072,-3.74787 -288.69014,0 -9.55473,3.25563 -18.26166,10.57675 -23.81615,20.0256 l -4.47722,7.61625 -0.44208,141.31072 c -0.43823,140.07604 -0.41244,141.37962 2.95081,149.19772 3.59642,8.36008 12.39484,18.01016 19.98054,21.91459 4.55454,2.34425 4.51998,2.36621 -8.14332,5.17127 -47.21201,10.45805 -25.49468,24.08505 49.17197,30.85401 40.87884,3.70591 42.74914,3.75728 120.52117,3.31047 52.34015,-0.3007 78.90665,-1.14205 98.5342,-3.12057 z m 90.88372,-357.10554 c 0.44086,-2.9755 -0.83474,-3.52366 -12.09829,-5.19891 -9.6323,-1.43262 -12.87017,-1.42115 -13.77862,0.0487 -2.42692,3.92681 0.64082,5.97582 11.23951,7.5071 13.31,1.92302 14.0202,1.80865 14.6374,-2.35695 z m -21.56798,-28.41387 c 9.13711,-8.64152 10.7385,-12.17451 6.29172,-13.8809 -3.06856,-1.17751 -18.6042,13.39344 -18.6042,17.44898 0,2.47592 1.36495,4.81149 2.81194,4.81149 0.3522,0 4.62744,-3.77081 9.50054,-8.37957 z m -26.43999,-6.3374 c -0.59677,-11.85974 -2.45128,-19.69931 -4.88052,-20.63151 -3.99552,-1.53323 -4.9792,2.19174 -3.43769,13.01765 1.90339,13.36723 2.38699,14.53197 5.74699,13.84171 2.13057,-0.43768 2.78305,-2.01809 2.57122,-6.22785 z"
   id="path1879" /><path
   style="opacity:0;fill:#ff0000;stroke:#ff0000;stroke-width:1.62866;stroke-opacity:1;fill-opacity:1"
   d="M 0.81433225,500 V 0 H 500 999.18567 v 500 500 H 500 0.81433225 Z M 609.93485,704.5014 c 74.79877,-7.53992 95.23585,-20.6598 48.35764,-31.04391 -12.6633,-2.80506 -12.69786,-2.82702 -8.14332,-5.17127 7.5857,-3.90443 16.38412,-13.55451 19.98054,-21.91459 3.36325,-7.8181 3.38904,-9.12168 2.95081,-149.19772 l -0.44208,-141.31072 -4.47722,-7.61625 c -5.55449,-9.44885 -14.26142,-16.76997 -23.81615,-20.0256 -10.99942,-3.74787 -277.69072,-3.74787 -288.69014,0 -9.55473,3.25563 -18.26166,10.57675 -23.81615,20.0256 l -4.47722,7.61625 -0.44208,141.31072 c -0.43823,140.07604 -0.41244,141.37962 2.95081,149.19772 3.59642,8.36008 12.39484,18.01016 19.98054,21.91459 4.55454,2.34425 4.51998,2.36621 -8.14332,5.17127 -47.21201,10.45805 -25.49468,24.08505 49.17197,30.85401 40.87884,3.70591 42.74914,3.75728 120.52117,3.31047 52.34015,-0.3007 78.90665,-1.14205 98.5342,-3.12057 z m 90.88372,-357.10554 c 0.44086,-2.9755 -0.83474,-3.52366 -12.09829,-5.19891 -9.6323,-1.43262 -12.87017,-1.42115 -13.77862,0.0487 -2.42692,3.92681 0.64082,5.97582 11.23951,7.5071 13.31,1.92302 14.0202,1.80865 14.6374,-2.35695 z m -21.56798,-28.41387 c 9.13711,-8.64152 10.7385,-12.17451 6.29172,-13.8809 -3.06856,-1.17751 -18.6042,13.39344 -18.6042,17.44898 0,2.47592 1.36495,4.81149 2.81194,4.81149 0.3522,0 4.62744,-3.77081 9.50054,-8.37957 z m -26.43999,-6.3374 c -0.59677,-11.85974 -2.45128,-19.69931 -4.88052,-20.63151 -3.99552,-1.53323 -4.9792,2.19174 -3.43769,13.01765 1.90339,13.36723 2.38699,14.53197 5.74699,13.84171 2.13057,-0.43768 2.78305,-2.01809 2.57122,-6.22785 z"
   id="path1918" /><path
   style="opacity:0;fill:#ff0000;fill-opacity:1;stroke:#ff0000;stroke-width:1.62866;stroke-opacity:1"
   d="M 0.81433225,500 V 0 H 500 999.18567 v 500 500 H 500 0.81433225 Z M 609.93485,704.5014 c 74.79877,-7.53992 95.23585,-20.6598 48.35764,-31.04391 -12.6633,-2.80506 -12.69786,-2.82702 -8.14332,-5.17127 7.5857,-3.90443 16.38412,-13.55451 19.98054,-21.91459 3.36325,-7.8181 3.38904,-9.12168 2.95081,-149.19772 l -0.44208,-141.31072 -4.47722,-7.61625 c -5.55449,-9.44885 -14.26142,-16.76997 -23.81615,-20.0256 -10.99942,-3.74787 -277.69072,-3.74787 -288.69014,0 -9.55473,3.25563 -18.26166,10.57675 -23.81615,20.0256 l -4.47722,7.61625 -0.44208,141.31072 c -0.43823,140.07604 -0.41244,141.37962 2.95081,149.19772 3.59642,8.36008 12.39484,18.01016 19.98054,21.91459 4.55454,2.34425 4.51998,2.36621 -8.14332,5.17127 -47.21201,10.45805 -25.49468,24.08505 49.17197,30.85401 40.87884,3.70591 42.74914,3.75728 120.52117,3.31047 52.34015,-0.3007 78.90665,-1.14205 98.5342,-3.12057 z m 90.88372,-357.10554 c 0.44086,-2.9755 -0.83474,-3.52366 -12.09829,-5.19891 -9.6323,-1.43262 -12.87017,-1.42115 -13.77862,0.0487 -2.42692,3.92681 0.64082,5.97582 11.23951,7.5071 13.31,1.92302 14.0202,1.80865 14.6374,-2.35695 z m -21.56798,-28.41387 c 9.13711,-8.64152 10.7385,-12.17451 6.29172,-13.8809 -3.06856,-1.17751 -18.6042,13.39344 -18.6042,17.44898 0,2.47592 1.36495,4.81149 2.81194,4.81149 0.3522,0 4.62744,-3.77081 9.50054,-8.37957 z m -26.43999,-6.3374 c -0.59677,-11.85974 -2.45128,-19.69931 -4.88052,-20.63151 -3.99552,-1.53323 -4.9792,2.19174 -3.43769,13.01765 1.90339,13.36723 2.38699,14.53197 5.74699,13.84171 2.13057,-0.43768 2.78305,-2.01809 2.57122,-6.22785 z"
   id="path2068" /></svg>
