<?xml version="1.0" encoding="UTF-8" standalone="no"?>
<!-- Generator: Adobe Illustrator 23.1.1, SVG Export Plug-In . SVG Version: 6.00 Build 0)  -->

<svg
   version="1.1"
   id="Layer_1"
   x="0px"
   y="0px"
   viewBox="0 0 1000 1000"
   style="enable-background:new 0 0 1000 1000;"
   xml:space="preserve"
   sodipodi:docname="wallet-rounded.svg"
   inkscape:version="1.1 (c68e22c387, 2021-05-23)"
   xmlns:inkscape="http://www.inkscape.org/namespaces/inkscape"
   xmlns:sodipodi="http://sodipodi.sourceforge.net/DTD/sodipodi-0.dtd"
   xmlns="http://www.w3.org/2000/svg"
   xmlns:svg="http://www.w3.org/2000/svg"><defs
   id="defs300" /><sodipodi:namedview
   id="namedview298"
   pagecolor="#ffffff"
   bordercolor="#666666"
   borderopacity="1.0"
   inkscape:pageshadow="2"
   inkscape:pageopacity="0.0"
   inkscape:pagecheckerboard="0"
   showgrid="false"
   inkscape:zoom="0.614"
   inkscape:cx="515.47231"
   inkscape:cy="402.28013"
   inkscape:window-width="1368"
   inkscape:window-height="842"
   inkscape:window-x="-6"
   inkscape:window-y="-6"
   inkscape:window-maximized="1"
   inkscape:current-layer="Layer_1" />
<style
   type="text/css"
   id="style2">
	.st0{fill:#FFFFFF;}
	.st1{fill:#8F6D5D;}
	.st2{opacity:0.15;}
	.st3{fill:none;stroke:#474747;stroke-width:6;stroke-linecap:round;stroke-linejoin:round;stroke-miterlimit:10;}
	.st4{fill:#77BA85;}
	.st5{fill:#F6F9EA;}
	.st6{fill:#97CD78;}
	.st7{opacity:0.32;fill:#474747;stroke:#474747;stroke-width:6;stroke-linecap:round;stroke-linejoin:round;stroke-miterlimit:10;}
	.st8{opacity:0.15;fill:none;stroke:#474747;stroke-width:6;stroke-linecap:round;stroke-linejoin:round;stroke-miterlimit:10;}
	.st9{fill:#F58870;}
	.st10{fill:#DD7868;}
	.st11{fill:#FFA399;}
	.st12{opacity:0.3;fill:#474747;stroke:#474747;stroke-width:6;stroke-linecap:round;stroke-linejoin:round;stroke-miterlimit:10;}
	.st13{opacity:0.46;}
	.st14{fill:none;stroke:#474747;stroke-width:4;stroke-linecap:round;stroke-linejoin:round;stroke-dasharray:13.9577,9.9698;}
	.st15{fill:#F79765;}
	.st16{fill:#E27444;}
	.st17{fill:#FFB797;}
	.st18{fill:none;stroke:#474747;stroke-width:4;stroke-linecap:round;stroke-linejoin:round;stroke-dasharray:9.8393,11.8071;}
	.st19{opacity:0.6;}
	.st20{fill:#FFFCEE;}
	.st21{fill:#FDB740;}
	.st22{opacity:0.88;fill:#FFF3C0;}
	.st23{fill:#F29E25;}
</style>
<rect
   id="XMLID_69_"
   class="st0"
   width="1000"
   height="1000"
   style="fill:#ff0000;fill-opacity:0" />
<g
   id="g209">
	<g
   id="g37">
		<g
   id="g7">
			
		</g>
		<g
   id="g11">
			
		</g>
		<g
   id="g15">
			
		</g>
		<g
   id="g19">
			
		</g>
		<g
   id="g23">
			
		</g>
		<g
   id="g27">
			
		</g>
		<g
   id="g31">
			
		</g>
		<g
   id="g35">
			
		</g>
	</g>
	<g
   id="g49">
		
		
		
		
		
	</g>
	<g
   id="g71">
		
		
		
		
		
		
		
		
		
		
	</g>
	<g
   id="g85">
		
		
		
		
		
		
	</g>
	<g
   id="g207">
		<g
   id="g135">
			<g
   id="g89">
				
			</g>
			<g
   id="g93">
				
			</g>
			<g
   id="g97">
				
			</g>
			<g
   id="g101">
				
			</g>
			<g
   id="g105">
				
			</g>
			<g
   id="g109">
				
			</g>
			<g
   id="g113">
				
			</g>
			<g
   id="g117">
				
			</g>
			<g
   id="g121">
				
			</g>
			<g
   id="g125">
				
			</g>
			<g
   id="g129">
				
			</g>
			<g
   id="g133">
				
			</g>
		</g>
		<g
   id="g205">
			<g
   id="g139">
				
			</g>
			<g
   id="g143">
				
			</g>
			<g
   id="g147">
				
			</g>
			<g
   id="g151">
				
			</g>
			<g
   id="g155">
				
			</g>
			<g
   id="g159">
				
			</g>
			<g
   id="g163">
				
			</g>
			<g
   id="g167">
				
			</g>
			<g
   id="g171">
				
			</g>
			<g
   id="g175">
				
			</g>
			<g
   id="g179">
				
			</g>
			<g
   id="g183">
				
			</g>
			<g
   id="g187">
				
			</g>
			<g
   id="g191">
				
			</g>
			<g
   id="g195">
				
			</g>
			<g
   id="g199">
				
			</g>
			<g
   id="g203">
				
			</g>
		</g>
	</g>
</g>








<circle
   style="opacity:0.920128;fill:#ff0000;fill-opacity:1;stroke:none;stroke-width:0.999997"
   id="path1535"
   cx="495.11401"
   cy="498.37137"
   r="272.8013" /><g
   id="g2486"
   transform="matrix(0.61805797,0,0,0.61805797,197.44652,173.09931)"><g
     id="XMLID_1_"
     class="st2">
	<polyline
   id="XMLID_57_"
   class="st3"
   points="157.5,387.9 236.9,387.9 236.9,426.6 157.5,426.6  "
   style="stroke:#0b0b0b;stroke-opacity:1" />
	<line
   id="XMLID_59_"
   class="st3"
   x1="316.20001"
   y1="426.60001"
   x2="236.89999"
   y2="426.60001"
   style="stroke:#0b0b0b;stroke-opacity:1" />
	<line
   id="XMLID_38_"
   class="st3"
   x1="236.89999"
   y1="387.89999"
   x2="267.29999"
   y2="387.89999"
   style="stroke:#0b0b0b;stroke-opacity:1" />
	<rect
   id="XMLID_42_"
   x="197.2"
   y="426.60001"
   class="st3"
   width="79.300003"
   height="38.700001"
   style="stroke:#0b0b0b;stroke-opacity:1" />
	<polyline
   id="XMLID_52_"
   class="st3"
   points="169.9,465.5 236.9,465.5 236.9,504.2 211.2,504.2  "
   style="stroke:#0b0b0b;stroke-opacity:1" />
	<rect
   id="XMLID_54_"
   x="236.89999"
   y="465.5"
   class="st3"
   width="79.300003"
   height="38.700001"
   style="stroke:#0b0b0b;stroke-opacity:1" />
	<polyline
   id="XMLID_81_"
   class="st3"
   points="580.5,528 659.9,528 659.9,566.6 580.5,566.6  " />
	<line
   id="XMLID_80_"
   class="st3"
   x1="739.20001"
   y1="566.59998"
   x2="659.90002"
   y2="566.59998"
   style="stroke:#0b0b0b;stroke-opacity:1" />
	<line
   id="XMLID_79_"
   class="st3"
   x1="659.90002"
   y1="528"
   x2="690.29999"
   y2="528" />
	<rect
   id="XMLID_78_"
   x="620.20001"
   y="566.59998"
   class="st3"
   width="79.300003"
   height="38.700001"
   style="stroke:#0b0b0b;stroke-opacity:1" />
	<polyline
   id="XMLID_77_"
   class="st3"
   points="592.9,605.5 659.9,605.5 659.9,644.2 634.2,644.2  "
   style="stroke:#0b0b0b;stroke-opacity:1" />
	<polyline
   id="XMLID_76_"
   class="st3"
   points="711,644.2 659.9,644.2 659.9,605.5 726,605.5  "
   style="stroke:#0b0b0b;stroke-opacity:1" />
	<rect
   id="XMLID_25_"
   x="321.79999"
   y="243"
   class="st3"
   width="123.1"
   height="99.800003"
   style="stroke:#0b0b0b;stroke-opacity:1" />
	<polyline
   id="XMLID_62_"
   class="st3"
   points="338.8,319.7 361.3,287 384.7,315.9  "
   style="stroke:#0b0b0b;stroke-opacity:1" />
	<polyline
   id="XMLID_64_"
   class="st3"
   points="376.1,305.3 407.6,274.8 429.9,319.7  "
   style="stroke:#0b0b0b;stroke-opacity:1" />
	<path
   id="XMLID_63_"
   class="st3"
   d="m 367.9,295.1 c 1.6,-4.7 6,-8.1 11.2,-8.1 4.3,0 8.1,2.3 10.2,5.8"
   style="stroke:#0b0b0b;stroke-opacity:1" />
	
	<polygon
   id="XMLID_23_"
   class="st3"
   points="642.9,321.3 715.5,321.3 704.8,386.8 653.5,386.8 "
   style="display:none;stroke:#0b0b0b;stroke-opacity:1" />
	<rect
   id="XMLID_46_"
   x="633.20001"
   y="302.29999"
   class="st3"
   width="92.300003"
   height="19"
   style="display:none;stroke:#0b0b0b;stroke-opacity:1" />
	<g
   id="XMLID_68_">
		
	</g>
	
	
</g><g
     id="XMLID_20_">
	
		<rect
   id="XMLID_7_"
   x="390.20001"
   y="407.39999"
   transform="matrix(-0.4382,0.8989,-0.8989,-0.4382,1209.1852,204.4118)"
   class="st4"
   width="301.10001"
   height="145.3" />
	
		<rect
   id="XMLID_17_"
   x="390.20001"
   y="407.39999"
   transform="matrix(-0.4382,0.8989,-0.8989,-0.4382,1209.1852,204.4118)"
   class="st3"
   width="301.10001"
   height="145.3" />
	<path
   id="XMLID_16_"
   class="st5"
   d="m 620.3,369.9 -41.8,-20.4 c -7.9,16.3 -27.5,23 -43.8,15.1 l -103,211.2 100.7,49.1 103,-211.2 c -16.3,-7.9 -23.1,-27.5 -15.1,-43.8 z" />
	<path
   id="XMLID_12_"
   class="st3"
   d="m 620.3,369.9 -41.8,-20.4 c -7.9,16.3 -27.5,23 -43.8,15.1 l -103,211.2 100.7,49.1 103,-211.2 c -16.3,-7.9 -23.1,-27.5 -15.1,-43.8 z" />
	
		<rect
   id="XMLID_10_"
   x="484.70001"
   y="346.20001"
   transform="matrix(0.8989,0.4382,-0.4382,0.8989,265.0726,-188.4116)"
   class="st3"
   width="112"
   height="267.79999" />
	<circle
   id="XMLID_19_"
   class="st4"
   cx="550.70001"
   cy="459"
   r="34.299999" />
	<circle
   id="XMLID_13_"
   class="st3"
   cx="550.70001"
   cy="459"
   r="34.299999" />
</g><g
     id="XMLID_22_">
	
		<rect
   id="XMLID_33_"
   x="457.10001"
   y="436"
   transform="matrix(-0.7733,0.634,-0.634,-0.7733,1400.1356,516.725)"
   class="st6"
   width="301.10001"
   height="145.3" />
	
		<rect
   id="XMLID_32_"
   x="457.10001"
   y="436"
   transform="matrix(-0.7733,0.634,-0.634,-0.7733,1400.1356,516.725)"
   class="st3"
   width="301.10001"
   height="145.3" />
	<path
   id="XMLID_31_"
   class="st5"
   d="m 726,441.7 -29.5,-35.9 c -14,11.5 -34.6,9.4 -46.1,-4.6 l -181.7,149 71,86.6 181.7,-149 C 709.9,473.9 712,453.2 726,441.7 Z" />
	<path
   id="XMLID_30_"
   class="st3"
   d="m 726,441.7 -29.5,-35.9 c -14,11.5 -34.6,9.4 -46.1,-4.6 l -181.7,149 71,86.6 181.7,-149 C 709.9,473.9 712,453.2 726,441.7 Z" />
	
		<rect
   id="XMLID_29_"
   x="551.70001"
   y="374.79999"
   transform="matrix(0.634,0.7733,-0.7733,0.634,615.7564,-283.7794)"
   class="st3"
   width="112"
   height="267.79999" />
	<circle
   id="XMLID_28_"
   class="st6"
   cx="625.59998"
   cy="493.70001"
   r="34.299999" />
	<circle
   id="XMLID_27_"
   class="st3"
   cx="625.59998"
   cy="493.70001"
   r="34.299999" />
	<path
   id="XMLID_48_"
   class="st7"
   d="m 629.4,457.7 c 0,-17.8 -6.7,-34 -17.6,-46.4 l -166.6,136.6 92.2,112.4 92.1,-75.5 V 457.7 Z" />
</g><line
     id="XMLID_9_"
     class="st8"
     x1="169"
     y1="748.70001"
     x2="831"
     y2="748.70001"
     style="stroke:#0b0b0b;stroke-opacity:1" /><g
     id="g275">
	<path
   id="XMLID_15_"
   class="st9"
   d="m 559.4,748.7 h -210 c -33.1,0 -60,-26.9 -60,-60 v -236 c 0,-33.1 26.9,-60 60,-60 h 210 c 33.1,0 60,26.9 60,60 v 236 c 0,33.2 -26.8,60 -60,60 z" />
	<path
   id="XMLID_36_"
   class="st9"
   d="m 559.4,748.7 h -210 c -33.1,0 -60,-26.9 -60,-60 v -236 c 0,-33.1 26.9,-60 60,-60 h 210 c 33.1,0 60,26.9 60,60 v 236 c 0,33.2 -26.8,60 -60,60 z" />
	<path
   id="XMLID_43_"
   class="st10"
   d="m 559.4,736.6 h -210 c -33.1,0 -60,-26.9 -60,-60 v 12.1 c 0,33.1 26.9,60 60,60 h 210 c 33.1,0 60,-26.9 60,-60 v -12.1 c 0,33.1 -26.8,60 -60,60 z" />
	<path
   id="XMLID_40_"
   class="st11"
   d="m 559.4,392.7 h -210 c -33.1,0 -60,24.7 -60,55.1 v 12.9 c 0,-30.4 26.9,-55.1 60,-55.1 h 210 c 33.1,0 60,24.7 60,55.1 v -12.9 c 0,-30.4 -26.8,-55.1 -60,-55.1 z" />
	<path
   id="XMLID_34_"
   class="st12"
   d="m 489.4,539.2 h -54 c -9.9,0 -18,-8.1 -18,-18 V 410.7 c 0,-9.9 8.1,-18 18,-18 h 72 v 128.5 c 0,9.9 -8,18 -18,18 z" />
	<path
   id="XMLID_2_"
   class="st3"
   d="m 559.4,748.7 h -210 c -33.1,0 -60,-26.9 -60,-60 v -236 c 0,-33.1 26.9,-60 60,-60 h 210 c 33.1,0 60,26.9 60,60 v 236 c 0,33.2 -26.8,60 -60,60 z" />
	<g
   id="XMLID_5_"
   class="st13">
		<path
   class="st14"
   d="m 311.4,687.2 v -233 c 0,-21 17,-38 38,-38 h 210 c 21,0 38,17 38,38 v 232.9 c 0,21 -17,38 -38,38 h -210 c -21,0.1 -38,-16.9 -38,-37.9 z"
   id="path259" />
	</g>
	<path
   id="XMLID_18_"
   class="st15"
   d="m 481.4,528.2 h -54 c -9.9,0 -18,-8.1 -18,-18 v -122 c 0,-9.9 8.1,-18 18,-18 h 54 c 9.9,0 18,8.1 18,18 v 122 c 0,9.9 -8,18 -18,18 z" />
	<path
   id="XMLID_45_"
   class="st16"
   d="m 481.4,519.9 h -54 c -9.9,0 -18,-8.1 -18,-18 v 8.3 c 0,9.9 8.1,18 18,18 h 54 c 9.9,0 18,-8.1 18,-18 v -8.3 c 0,9.9 -8,18 -18,18 z" />
	<path
   id="XMLID_44_"
   class="st17"
   d="m 481.4,370.2 h -54 c -9.9,0 -18,8.1 -18,18 v 6.8 c 0,-9.9 8.1,-18 18,-18 h 54 c 9.9,0 18,8.1 18,18 v -6.8 c 0,-9.9 -8,-18 -18,-18 z" />
	<path
   id="XMLID_4_"
   class="st3"
   d="m 481.4,528.2 h -54 c -9.9,0 -18,-8.1 -18,-18 v -122 c 0,-9.9 8.1,-18 18,-18 h 54 c 9.9,0 18,8.1 18,18 v 122 c 0,9.9 -8,18 -18,18 z" />
	<circle
   id="XMLID_35_"
   class="st12"
   cx="457.39999"
   cy="479.20001"
   r="23.200001" />
	<g
   id="XMLID_11_"
   class="st13">
		<path
   class="st18"
   d="m 427.4,516.2 c -3.3,0 -6,-2.7 -6,-6 v -122 c 0,-3.3 2.7,-6 6,-6 h 54 c 3.3,0 6,2.7 6,6 v 122 c 0,3.3 -2.7,6 -6,6 z"
   id="path267" />
	</g>
	<circle
   id="XMLID_21_"
   class="st1"
   cx="454.39999"
   cy="473.20001"
   r="23.200001" />
	<circle
   id="XMLID_6_"
   class="st3"
   cx="454.39999"
   cy="473.20001"
   r="23.200001" />
	<g
   id="XMLID_37_"
   class="st19">
		<path
   class="st20"
   d="m 464.2,461.3 c 0.8,3.8 -3.7,6.2 -10.3,7.6 -6.7,1.3 -12.7,1.5 -13.5,-1.7 -0.8,-3.1 3.7,-9 10.3,-10.9 6.7,-1.9 12.7,1.3 13.5,5 z"
   id="path272" />
	</g>
</g><g
     id="XMLID_65_">
	<path
   id="XMLID_41_"
   class="st21"
   d="m 788.3,748.7 h -70 c -4,0 -7.3,-3.3 -7.3,-7.3 v -4.9 c 0,-4 3.3,-7.3 7.3,-7.3 h 70 c 4,0 7.3,3.3 7.3,7.3 v 4.9 c 0,4.1 -3.3,7.3 -7.3,7.3 z" />
	<path
   id="XMLID_72_"
   class="st22"
   d="m 788.3,731.3 h -70 c -4,0 -7.3,3.3 -7.3,7.3 v 2.8 c 0,-4 3.3,-7.3 7.3,-7.3 h 70 c 4,0 7.3,3.3 7.3,7.3 v -2.8 c 0,-4 -3.3,-7.3 -7.3,-7.3 z" />
	<path
   id="XMLID_70_"
   class="st23"
   d="m 788.3,746.5 h -70 c -4,0 -7.3,-3.3 -7.3,-7.3 v -2.8 c 0,4 3.3,7.3 7.3,7.3 h 70 c 4,0 7.3,-3.3 7.3,-7.3 v 2.8 c 0,4.1 -3.3,7.3 -7.3,7.3 z" />
	<path
   id="XMLID_39_"
   class="st3"
   d="m 788.3,748.7 h -70 c -4,0 -7.3,-3.3 -7.3,-7.3 v -4.9 c 0,-4 3.3,-7.3 7.3,-7.3 h 70 c 4,0 7.3,3.3 7.3,7.3 v 4.9 c 0,4.1 -3.3,7.3 -7.3,7.3 z" />
</g><g
     id="XMLID_73_">
	<path
   id="XMLID_90_"
   class="st21"
   d="m 800,729.3 h -70 c -4,0 -7.3,-3.3 -7.3,-7.3 v -4.9 c 0,-4 3.3,-7.3 7.3,-7.3 h 70 c 4,0 7.3,3.3 7.3,7.3 v 4.9 c -0.1,4.1 -3.3,7.3 -7.3,7.3 z" />
	<path
   id="XMLID_89_"
   class="st22"
   d="m 800,711.9 h -70 c -4,0 -7.3,3.3 -7.3,7.3 v 2.8 c 0,-4 3.3,-7.3 7.3,-7.3 h 70 c 4,0 7.3,3.3 7.3,7.3 v -2.8 c -0.1,-4 -3.3,-7.3 -7.3,-7.3 z" />
	<path
   id="XMLID_88_"
   class="st23"
   d="m 800,727.1 h -70 c -4,0 -7.3,-3.3 -7.3,-7.3 V 717 c 0,4 3.3,7.3 7.3,7.3 h 70 c 4,0 7.3,-3.3 7.3,-7.3 v 2.8 c -0.1,4.1 -3.3,7.3 -7.3,7.3 z" />
	<path
   id="XMLID_74_"
   class="st3"
   d="m 800,729.3 h -70 c -4,0 -7.3,-3.3 -7.3,-7.3 v -4.9 c 0,-4 3.3,-7.3 7.3,-7.3 h 70 c 4,0 7.3,3.3 7.3,7.3 v 4.9 c -0.1,4.1 -3.3,7.3 -7.3,7.3 z" />
</g><g
     id="XMLID_47_">
	<path
   id="XMLID_56_"
   class="st21"
   d="m 788.3,709.9 h -70 c -4,0 -7.3,-3.3 -7.3,-7.3 v -4.9 c 0,-4 3.3,-7.3 7.3,-7.3 h 70 c 4,0 7.3,3.3 7.3,7.3 v 4.9 c 0,4.1 -3.3,7.3 -7.3,7.3 z" />
	<path
   id="XMLID_53_"
   class="st22"
   d="m 788.3,692.6 h -70 c -4,0 -7.3,3.3 -7.3,7.3 v 2.8 c 0,-4 3.3,-7.3 7.3,-7.3 h 70 c 4,0 7.3,3.3 7.3,7.3 v -2.8 c 0,-4.1 -3.3,-7.3 -7.3,-7.3 z" />
	<path
   id="XMLID_50_"
   class="st23"
   d="m 788.3,707.8 h -70 c -4,0 -7.3,-3.3 -7.3,-7.3 v -2.8 c 0,4 3.3,7.3 7.3,7.3 h 70 c 4,0 7.3,-3.3 7.3,-7.3 v 2.8 c 0,4 -3.3,7.3 -7.3,7.3 z" />
	<path
   id="XMLID_49_"
   class="st3"
   d="m 788.3,709.9 h -70 c -4,0 -7.3,-3.3 -7.3,-7.3 v -4.9 c 0,-4 3.3,-7.3 7.3,-7.3 h 70 c 4,0 7.3,3.3 7.3,7.3 v 4.9 c 0,4.1 -3.3,7.3 -7.3,7.3 z" />
</g><g
     id="XMLID_58_">
	<path
   id="XMLID_67_"
   class="st21"
   d="m 709.1,695.3 -47.8,51.1 c -2.7,2.9 -7.3,3.1 -10.3,0.3 l -3.5,-3.3 c -2.9,-2.7 -3.1,-7.3 -0.3,-10.3 L 695,682 c 2.7,-2.9 7.3,-3.1 10.3,-0.3 l 3.5,3.3 c 2.8,2.8 3,7.3 0.3,10.3 z" />
	<path
   id="XMLID_66_"
   class="st22"
   d="m 696.4,683.4 -47.8,51.1 c -2.7,2.9 -2.6,7.5 0.3,10.3 l 2.1,1.9 c -2.9,-2.7 -3.1,-7.3 -0.3,-10.3 l 47.8,-51.1 c 2.7,-2.9 7.3,-3.1 10.3,-0.3 l -2.1,-1.9 c -3,-2.8 -7.6,-2.6 -10.3,0.3 z" />
	<path
   id="XMLID_61_"
   class="st23"
   d="m 707.5,693.8 -47.8,51.1 c -2.7,2.9 -7.3,3.1 -10.3,0.3 l -2.1,-1.9 c 2.9,2.7 7.5,2.6 10.3,-0.3 l 47.8,-51.1 c 2.7,-2.9 2.6,-7.5 -0.3,-10.3 l 2.1,1.9 c 2.8,2.8 3,7.4 0.3,10.3 z" />
	<path
   id="XMLID_60_"
   class="st3"
   d="m 709.1,695.3 -47.8,51.1 c -2.7,2.9 -7.3,3.1 -10.3,0.3 l -3.5,-3.3 c -2.9,-2.7 -3.1,-7.3 -0.3,-10.3 L 695,682 c 2.7,-2.9 7.3,-3.1 10.3,-0.3 l 3.5,3.3 c 2.8,2.8 3,7.3 0.3,10.3 z" />
</g></g>
</svg>
