<?xml version="1.0" encoding="utf-8"?>
<!-- Generator: Adobe Illustrator 25.0.1, SVG Export Plug-In . SVG Version: 6.00 Build 0)  -->
<svg version="1.0" id="Layer_1" xmlns="http://www.w3.org/2000/svg" xmlns:xlink="http://www.w3.org/1999/xlink" x="0px" y="0px"
	 viewBox="0 0 291.8 200" style="enable-background:new 0 0 291.8 200;" xml:space="preserve">
<style type="text/css">
	.st0{fill:#31486B;}
	.st1{fill:#314869;}
	.st2{fill:#31486A;}
	.st3{fill:#32486A;}
	.st4{fill:#31476B;}
	.st5{fill:#314868;}
	.st6{fill:#324869;}
	.st7{fill:#31476A;}
	.st8{fill:#263C65;}
	.st9{fill:none;}
</style>
<path class="st0" d="M73,153c1.8-0.4,3.7,0.1,5.1,1.5c1,1.2,1.5,2.8,1.3,4.4c0,1.8-0.9,3.5-2.5,4.4c-2.2,1.2-5,0.7-6.6-1.2
	c-1.1-1.5-1.4-3.4-1-5.2C69.6,154.9,71.1,153.4,73,153 M73.2,154.9c-1,0.4-1.7,1.3-1.9,2.4c-0.3,1.3,0,2.6,0.7,3.7
	c1.1,1.2,2.9,1.4,4.1,0.3c0,0,0,0,0,0c0.7-0.9,1.1-2,1-3.1c0-0.9-0.3-1.9-0.9-2.6C75.5,154.8,74.3,154.5,73.2,154.9 M97.8,170.8
	c0.7,0,1.5,0,2.2,0c1.4,3.6,2.9,7.1,4.2,10.6H102c-0.3-0.8-0.6-1.6-0.9-2.3c-1.5-0.1-3-0.1-4.4,0c-0.2,0.6-0.4,1.2-0.6,1.9
	c0,0.1-0.1,0.4-0.1,0.5h-2.3C95,177.9,96.4,174.4,97.8,170.8 M98.8,173.5c-0.4,1.2-0.9,2.5-1.3,3.7c0.9,0,1.9,0,2.9,0
	c-0.4-1.2-0.9-2.4-1.3-3.6L98.8,173.5 M138.1,170.8c0.7,0,1.5,0,2.2,0c1.3,2.2,2.7,4.4,4,6.6h0.3c0-2.2,0-4.4,0-6.7c0.6,0,1.3,0,2,0
	c0,3.5,0,7.1,0,10.6c-0.7,0-1.4,0-2.1,0c-1.4-2.3-2.9-4.6-4.3-7c-0.1,2.3,0,4.7,0,7c-0.7,0-1.4,0-2.1-0.1c0.2-2,0.1-4.1,0.1-6.1
	C138.3,173.7,138.3,172.3,138.1,170.8L138.1,170.8z"/>
<path class="st1" d="M95.5,153.4c1.6-0.7,3.4-0.7,5,0c1.1,0.6,1.9,1.5,2.4,2.7c0.5,2,0.5,4.4-0.9,6.1c-0.8,0.9-2,1.5-3.2,1.7
	c-1.8,0.2-3.6-0.5-4.8-1.9c-1-1.5-1.3-3.3-1-5C93.3,155.5,94.2,154.1,95.5,153.4 M97,154.8c-1,0.4-1.7,1.4-1.8,2.5
	c-0.2,1.2,0,2.5,0.7,3.5c1,1.2,2.8,1.4,4.1,0.4c0.1-0.1,0.1-0.1,0.2-0.2c0.8-1,1.1-2.3,0.9-3.6c0-0.9-0.4-1.7-1-2.3
	C99.1,154.6,98,154.5,97,154.8 M147.4,153c0.8,0,1.6,0,2.3,0c0.8,2.6,1.7,5.3,2.7,7.9c0.2-0.5,0.3-0.9,0.5-1.4
	c0.7-2.2,1.4-4.3,2.1-6.5c0.8,0,1.5,0,2.3,0c-1.3,3.5-2.5,7.1-3.8,10.6h-2.4C149.9,160.1,148.6,156.5,147.4,153 M113.5,170.8h7.8
	v1.8c-1.9,0-3.8,0-5.7,0c0,0.8,0,1.6,0,2.4c1.8,0,3.6,0,5.3,0c0,0.6,0,1.2,0,1.8h-5.3c0,0.9,0,1.8,0,2.7h5.9c0,0.6,0,1.3,0,1.9h-8
	c-0.1-0.7-0.1-1.5,0-2.2c0-1.2,0-2.4,0-3.7C113.5,174,113.5,172.4,113.5,170.8 M162.6,170.8c2.6,0,5.3,0,7.9,0c0,0.6,0,1.2,0,1.8
	c-1.9,0-3.8,0-5.8,0c0,0.8,0,1.6,0,2.4c1.8,0,3.5,0,5.3,0c0,0.6,0,1.2,0,1.9h-5.3c0,0.9,0,1.8,0,2.7c2,0,4,0,5.9,0
	c0,0.6,0,1.2,0,1.9c-2.7,0-5.4,0-8.1,0C162.6,177.9,162.6,174.4,162.6,170.8 M196.5,170.8h11.1c0.8,1.4,1.7,2.8,2.5,4.2
	c0.8-1.4,1.6-2.8,2.4-4.2c0.8,0,1.6,0,2.5,0c-1.1,1.8-2.2,3.6-3.4,5.4c-0.3,0.3-0.4,0.7-0.5,1.1c0,1.4,0,2.8,0,4.1H209
	c0-1.4,0-2.8,0-4.2c0-0.3-0.1-0.5-0.2-0.7c-1.1-1.7-2.1-3.3-3.1-5c-0.1-0.2-0.2-0.6-0.5-0.4c-0.3,0.4-0.1,1-0.2,1.5
	c-1.1,0-2.1,0-3.2,0.1c0,2.9,0,5.8,0,8.7h-2.1c0-2.9,0-5.9,0-8.8c-1.1,0-2.1,0-3.1,0C196.5,172,196.5,171.4,196.5,170.8L196.5,170.8
	z"/>
<path class="st2" d="M116.6,154.4c1.3-1.3,3.1-1.8,4.8-1.4c1.7,0.3,3.2,1.5,3.8,3.2c0.5,1.7,0.5,3.5-0.2,5.1c-0.5,1-1.3,1.8-2.4,2.3
	c-1.5,0.5-3.1,0.5-4.6-0.1c-1.4-0.7-2.5-2.1-2.7-3.6C115.1,157.9,115.2,155.8,116.6,154.4 M119.8,154.8c-0.6,0.1-1.2,0.4-1.6,0.9
	c-0.6,0.9-0.9,1.9-0.8,3c0,1,0.3,1.9,0.9,2.6c1.1,1.1,2.9,1.1,4,0.1c0.7-0.9,1.1-2,1-3.1c0-1-0.3-2-1-2.7
	C121.7,154.9,120.8,154.6,119.8,154.8 M187.4,153.6c1.5-0.8,3.2-0.9,4.8-0.3c1.2,0.5,1.9,1.7,1.9,3c-0.7,0-1.4,0-2.1,0
	c-0.2-0.5-0.4-1.1-0.9-1.4c-0.8-0.3-1.8-0.2-2.5,0.2c-0.3,0.2-0.4,0.6-0.3,1c0.6,0.6,1.4,0.9,2.2,1c1.2,0.3,2.5,0.5,3.3,1.5
	c1.1,1.4,0.8,3.4-0.6,4.5c-0.1,0.1-0.3,0.2-0.5,0.3c-1.6,0.7-3.5,0.7-5.1-0.1c-1.1-0.7-1.7-1.8-1.8-3.1c0.7-0.1,1.4-0.1,2.1-0.2
	c0.1,0.7,0.5,1.3,1.1,1.7c0.9,0.4,1.9,0.4,2.7-0.1c0.5-0.3,1-1.2,0.4-1.7c-0.2-0.2-0.3-0.3-0.5-0.4c-1.4-0.4-3.1-0.6-4.3-1.5
	c-1.2-1-1.4-2.7-0.4-3.9C187,153.9,187.2,153.8,187.4,153.6 M210.6,153c1.6-0.3,3.3,0.2,4.5,1.3c1.1,1.2,1.7,2.8,1.5,4.4
	c0.1,1.9-0.8,3.6-2.4,4.6c-2.3,1.3-5.2,0.7-6.9-1.2c-1-1.5-1.3-3.4-0.9-5.1C206.8,154.8,208.5,153.2,210.6,153 M210.2,155.1
	c-1,0.5-1.6,1.5-1.6,2.6c-0.2,1.1,0,2.2,0.6,3.2c0.9,1.3,2.5,1.6,3.9,0.9c0.5-0.3,0.9-0.8,1.1-1.2c0.3-1.3,0.3-2.6,0-3.9
	c-0.6-1.5-2.3-2.2-3.8-1.6C210.3,155,210.2,155,210.2,155.1 M81.1,153c1.1,0,2.2,0,3.2,0c0.6,2.4,1.3,4.8,1.9,7.3
	c0.7-2.4,1.3-4.8,1.9-7.3c1.1-0.1,2.2,0,3.3,0c0,3.5,0,7.1,0,10.6h-2c-0.1-2.8,0-5.6-0.1-8.4c-0.7,2.8-1.3,5.6-2.1,8.4h-2
	c-0.6-2.7-1.3-5.4-2-8.1c-0.2,2.7-0.2,5.4-0.2,8.1h-2C81.1,160.1,81.1,156.6,81.1,153 M104.9,153h2.1c1.4,2.4,2.9,4.7,4.3,7.1
	c0-2.4,0-4.7,0-7.1c0.7,0,1.4,0,2,0c0,3.5,0,7.1,0,10.6h-2.2c-1.2-2-2.5-4-3.7-6c-0.2-0.3-0.4-0.5-0.6-0.7c-0.1,2.2,0,4.5,0,6.8h-2
	C104.9,160.1,104.9,156.6,104.9,153 M138.2,154.1c1.2-1.1,2.9-1.5,4.5-1.2c1.4,0.2,2.7,1,3.4,2.2c0.8,1.6,1,3.4,0.6,5.2
	c-0.5,1.9-2.2,3.3-4.2,3.6c-1.5,0.2-2.9-0.2-4.1-1.1C136,160.3,136,156.6,138.2,154.1 M140.8,154.8c-1.1,0.4-1.8,1.3-1.9,2.4
	c-0.3,1.2-0.1,2.5,0.6,3.6c0.9,1.2,2.5,1.5,3.8,0.8c1-0.7,1.5-1.8,1.5-3c0.1-1.1-0.2-2.1-0.8-3C143,154.8,141.9,154.5,140.8,154.8
	 M162.4,153h3.2c0.6,2.4,1.3,4.8,1.9,7.3c0.6-1.8,0.9-3.6,1.4-5.3c0.2-0.6,0.3-1.3,0.4-1.9c1.1-0.1,2.2,0,3.4,0c0,3.5,0,7.1,0,10.6
	h-2c0-2.8,0-5.6-0.1-8.4c-0.7,2.8-1.4,5.6-2,8.4h-2.1c-0.4-1.9-0.9-3.8-1.4-5.6c-0.2-0.9-0.4-1.8-0.6-2.6c-0.1,2.8-0.1,5.5-0.1,8.3
	h-2c0-3.6,0-7.1,0-10.6 M217.3,153.1c0.8,0,1.5,0,2.2,0c0.4,2.4,1.1,4.9,1.5,7.3c0.8-2.4,1.3-4.9,2-7.3h2.5c0.6,2.5,1.3,5,1.9,7.4
	c0.6-2.5,1.1-5,1.6-7.4c0.7,0,1.4,0,2.1,0c-0.8,3.6-1.7,7.1-2.6,10.7h-2.3c-0.7-2.7-1.5-5.3-2.1-8c-0.8,2.7-1.4,5.4-2.2,8h-2.3
	c-0.5-2.4-1.1-4.7-1.6-7l-0.1-0.1C217.9,155.4,217.6,154.3,217.3,153.1 M78.7,170.9c1.5-0.6,3.2-0.4,4.7,0.4
	c0.8,0.6,1.4,1.6,1.4,2.7c-0.7,0-1.5,0-2.2,0c-0.1-0.5-0.4-1-0.8-1.3c-0.9-0.3-1.9-0.2-2.7,0.2c-0.1,0.3-0.2,0.6-0.2,0.9
	c0.3,0.8,1.2,0.9,1.9,1.1c1.2,0.4,2.7,0.5,3.6,1.6c0.8,1,0.9,2.4,0.4,3.5c-1.1,1.9-3.7,2-5.6,1.6c-0.7-0.2-1.3-0.6-1.8-1.1
	c-0.5-0.7-0.9-1.5-0.9-2.4l2-0.1c0.1,0.7,0.5,1.4,1.1,1.8c1,0.5,2.1,0.3,2.9-0.3c0.5-0.4,0.5-1.1,0.1-1.5c-0.1-0.1-0.2-0.2-0.3-0.3
	c-1.4-0.6-3.2-0.6-4.5-1.6c-0.7-0.5-1-1.3-1-2.2C76.8,172.5,77.5,171.4,78.7,170.9 M193,170.8c0.7,0,1.4,0,2.2,0c0,3.5,0,7.1,0,10.6
	H193C193,177.9,193,174.3,193,170.8L193,170.8z"/>
<path class="st3" d="M128.9,153.2c1.4-0.5,3-0.5,4.4,0.2c1,0.6,1.6,1.7,1.7,2.8c-0.7,0-1.5,0-2.2,0c-0.1-0.7-0.5-1.3-1.2-1.4
	c-0.9-0.1-2.2-0.1-2.6,0.9c0.3,0.9,1.3,1.1,2.1,1.3c1.2,0.2,2.4,0.7,3.4,1.4c1.2,1.3,1.1,3.3-0.3,4.5c-0.5,0.4-1,0.7-1.6,0.8
	c-1.4,0.4-2.9,0.2-4.2-0.5c-1-0.7-1.6-1.8-1.7-3.1c0.7-0.1,1.4-0.1,2.1-0.2c0.1,0.6,0.4,1.2,0.9,1.6c0.7,0.4,1.5,0.5,2.2,0.3
	l0.6-0.2c0.6-0.4,1-1.4,0.3-2c-1.4-0.8-3.2-0.7-4.5-1.6c-0.8-0.5-1.2-1.3-1.2-2.2C127,154.7,127.7,153.6,128.9,153.2 M197.4,153.9
	c1.6-1.3,3.9-1.5,5.7-0.5c0.9,0.6,1.6,1.6,1.8,2.7c-0.7,0.1-1.4,0.3-2.1,0.4c-0.1-0.5-0.4-0.9-0.7-1.2c-1-0.9-2.6-0.8-3.5,0.2
	c0,0,0,0-0.1,0.1c-0.4,0.5-0.7,1.2-0.7,1.8c-0.2,1.1,0,2.3,0.5,3.3c0.8,1.1,2.3,1.4,3.4,0.6c0,0,0.1-0.1,0.1-0.1
	c0.4-0.5,0.8-1,0.9-1.7c0.7,0.2,1.4,0.5,2,0.7c-0.1,0.2-0.2,0.4-0.2,0.6c-0.4,1.2-1.5,2.2-2.7,2.6c-1.9,0.6-3.9,0-5.1-1.5
	c-0.9-1.1-1.3-2.6-1.1-4C195.7,156.5,196.4,155,197.4,153.9 M151.8,170.9c0.8,0,1.5,0,2.3,0c0.9,2.6,1.8,5.3,2.7,7.9
	c1-2.6,1.8-5.3,2.6-7.9h2.3c-1.2,3.6-2.5,7.1-3.8,10.6h-2.4c-0.4-1.1-0.8-2.2-1.2-3.4c0-0.1-0.1-0.3-0.1-0.4
	C153.4,175.5,152.6,173.1,151.8,170.9 M172.6,170.9h5.1c0.9,0,1.8,0.2,2.6,0.7c1.3,1.2,1.4,3.1,0.2,4.4c0,0,0,0,0,0
	c-0.5,0.5-1.2,0.8-1.9,0.9c1.6,1.1,2.4,3.1,3.5,4.7c-0.9,0-1.7,0-2.6,0c-0.6-0.9-1.2-1.8-1.8-2.7c-0.3-0.6-0.8-1-1.2-1.5
	c-0.6-0.3-1.2-0.3-1.8-0.3c0,1.5,0,2.9,0,4.4h-2.1C172.6,178,172.6,174.4,172.6,170.9 M174.8,172.7c0,0.8,0,1.7,0,2.5
	c1.4-0.1,3,0.4,4.2-0.5c0-0.5,0-0.9,0-1.4l-0.5-0.5C177.3,172.7,176,172.7,174.8,172.7L174.8,172.7z"/>
<path class="st4" d="M177.1,153.3c1.7-0.7,3.6-0.6,5.2,0.2c1,0.6,1.7,1.5,2.1,2.5c0.5,2,0.6,4.5-0.9,6.2c-0.8,0.9-2,1.5-3.2,1.7
	c-1.7,0.2-3.3-0.3-4.5-1.5c-1.2-1.5-1.7-3.6-1.2-5.5C174.8,155.3,175.7,154,177.1,153.3 M178.9,154.8c-1.2,0.2-2.1,1.2-2.2,2.4
	c-0.3,1.3-0.1,2.6,0.6,3.7c1,1.2,2.8,1.4,4,0.4c0,0,0,0,0.1-0.1c0.7-0.7,1.1-1.7,1.1-2.7c0.1-1.1-0.2-2.1-0.8-3
	C181,154.8,179.9,154.5,178.9,154.8L178.9,154.8z"/>
<path class="st5" d="M60.6,153c0.7,0,1.4,0,2.1,0c0,2.9,0,5.8,0,8.8h5.3c0,0.6,0,1.2,0,1.9h-7.5C60.6,160.1,60.6,156.5,60.6,153
	 M86.1,170.7h8.5c0,0.6,0,1.2,0,1.8h-3.1c0,2.9,0,5.9,0,8.8c-0.7,0-1.4,0-2.1,0l-0.1-0.2c0-2.9,0-5.8,0-8.6c-1,0-2.1,0-3.1,0
	C86.2,171.9,86.2,171.3,86.1,170.7 M127.3,170.7c0.7,0,1.4,0,2.2,0c0,2.2,0,4.3,0,6.5c0,0.6,0.1,1.2,0.4,1.8
	c0.7,0.7,1.8,0.9,2.7,0.6c0.7-0.3,1.2-1.1,1.1-1.9c0-2.3,0-4.6,0-6.9h2.1c0,2.3,0,4.6,0,6.9c0,0.6-0.1,1.2-0.2,1.8
	c-0.4,0.9-1.2,1.6-2.1,1.9c-1.7,0.3-3.6,0.4-5-0.8c-1-0.8-1.1-2.2-1.1-3.4C127.3,175.1,127.3,172.9,127.3,170.7L127.3,170.7z"/>
<path class="st6" d="M184.8,171c1.5-0.6,3.1-0.6,4.6,0.1c1.1,0.6,1.7,1.7,1.7,2.9h-2.1c-0.2-0.5-0.4-1.1-0.9-1.4
	c-1-0.4-2.1-0.2-2.9,0.6c0.1,0.4,0.2,0.8,0.5,1.1c1.3,0.5,2.7,0.7,4,1.2c0.6,0.3,1.1,0.8,1.5,1.4c0.1,0.2,0.1,0.4,0.2,0.6
	c0.2,0.8,0,1.7-0.4,2.4c-0.5,0.7-1.2,1.3-2,1.5c-1.2,0.2-2.4,0.2-3.5,0c-0.7-0.2-1.4-0.7-1.9-1.2c-0.4-0.7-0.8-1.4-0.9-2.2
	c0.7-0.1,1.4-0.2,2.1-0.2c0.2,0.7,0.5,1.6,1.3,1.9c1.1,0.4,2.9,0.3,3.2-1.1c0.2-0.9-0.9-1.3-1.6-1.4c-1.5-0.4-3.4-0.6-4.2-2.1
	c-0.7-1.4-0.2-3,1.2-3.8C184.6,171.1,184.7,171,184.8,171L184.8,171z"/>
<path class="st7" d="M148.7,170.8h2.2v10.6h-2.1C148.7,177.9,148.7,174.3,148.7,170.8L148.7,170.8z"/>
<path class="st0" d="M103.5,170.8c0,0.6,0,1.2,0,1.8c1.1,0,2.1,0,3.2,0c0,2.9,0,5.9,0,8.8h2.1c0-2.9,0-5.9,0-8.8c1,0,2.1,0,3.1,0
	v-1.8C109.2,170.8,106.4,170.8,103.5,170.8"/>
<path class="st8" d="M127.4,19.9c1-0.5,2-1.1,3-1.5c2,0,4,0,6,0c0,0.2,0.1,0.5,0.1,0.7c-0.5,0.3-1,0.6-1.5,0.9
	c-0.9,0.6-1.8,1.1-2.7,1.6c-0.6,0.4-1.3,0.8-2,1.2l-0.6,0.1c-0.1,0.4,0,0.8-0.3,1.1c-1.9,1.5-4.2,2.7-6.5,3.5c-1,0.2-2.1,0-3.1,0.3
	c0,0.1,0,0.2,0,0.2l0.6,0.2l0.6,0.2l0.6,0.1c0.4,0.2,0.9,0.4,1.4,0.5h-0.3c-0.3,0.5-0.6,1-0.9,1.6l-0.6-0.3c-0.5-0.4-1-0.7-1.5-1.1
	c-0.4,0.1-0.9,0.1-1.3,0.2l0.1,0.4c0.3,0.1,0.7,0.3,1,0.4c-0.7,0.8-1.4,1.5-2.2,2.3c-0.8,0.7-1.7,1.2-2.6,1.6
	c-0.4,0.2-0.9,0.4-1.4,0.4l-0.4,0.2c-1.4,0.1-2.8,0.5-4,1.3l-0.5,0.6l-0.7,0.4c0,0.1,0,0.2,0,0.3c0.7,0.2,1.5,0.3,2.2,0.2
	c0,0.5-0.1,1.1-0.3,1.5h-0.2c-0.5,0.4-1.1,0-1.6-0.2c-0.7-0.4-1.5-0.6-2.2-0.4c-0.5,0.3-1,0.7-1.4,1.2h2.4V40l-0.3,0.6
	c-0.2,0.5-0.4,1-0.6,1.5c-0.1,0.3-0.3,0.7-0.4,1c-0.3,0.6-0.6,1.2-1,1.7c-0.5,0.5-1,1.1-1.6,1.5s-1.2,0.8-1.7,1.2l-0.6,0.4
	c-0.5,0.4-1.1,0.8-1.6,1.3c-0.2,0.3-0.4,0.6-0.7,0.8c0,0.1,0,0.3-0.1,0.4c0.4,0,0.8,0,1.2,0.1c0.3,0.2,0.7,0.4,1,0.6
	c0,0.2,0,0.4,0,0.7s-0.3,0.4-0.4,0.6c-0.9,0-1.7,0-2.6,0c-0.8,0-1.4,0.6-1.4,1.4c0,0,0,0.1,0,0.1c0.6-0.2,1.2-0.3,1.8-0.4
	c-0.5,1.8-0.1,3.6-0.2,5.4l-0.2,0.4c0,0.7,0,1.4-0.1,2.1c-0.2,0.6-0.3,1.2-0.6,1.8l-0.3,0.2c-0.5,1.3-1.7,2.2-2.4,3.4
	c0.2,0,0.4-0.1,0.6-0.3c0.5-0.5,1.1-0.9,1.7-1.2l0.6-0.4c0.3,0.2,0.6,0.5,0.9,0.7c0,0.4-0.1,0.8-0.3,1.2c-0.7,0.3-1.4,0.5-2.1,0.8
	l-0.6,0.2c-0.5,0.4-0.9,0.9-1.2,1.4c0.7-0.4,1.5-0.7,2.2-1c0,0.4,0,0.9,0,1.3c0.2,0.6,0.2,1.2,0.2,1.7c0.1,0.2,0.2,0.4,0.3,0.7
	C96,72.5,96,73,96,73.5c0.1,0.7,0,1.4-0.1,2.1c-0.1,0.2-0.1,0.5-0.2,0.8c-0.5,1.1-1.1,2.2-1.6,3.3c-0.1,0.5-0.2,1-0.3,1.5
	c0.4-0.4,0.9-0.8,1.4-1.1c0.4-0.1,0.7-0.1,1.1,0c0.4,0.4,0.5,1,0.4,1.5l-0.4,0.7c-1,0.3-1.9,1-2.4,2c0,0.3-0.1,0.6-0.2,0.9
	c0,0.7-0.1,1.4-0.2,2.1c0.9-0.9,1.3-2.2,2.2-3.1c0.4,0.4,0.7,0.7,1,1.1s0.4,0.5,0.6,0.8l0.4,0.6c0.2,0.3,0.3,0.7,0.5,1l0.3,0.5
	l0.1,0.4c0.1,0.3,0.2,0.7,0.2,1c0.2,0.6,0.2,1.1,0.2,1.7c0.5,0.6,1.1,1.1,1.6,1.7c0.1,0.4,0.2,0.8,0.4,1.1s0.4,0.5,0.6,0.8
	c0.5,0.5,0.9,0.9,1.4,1.4c0.8,0.6,1.5,1.2,2.1,2h0.5c0-3.5,0-7,0-10.6c-0.2-1.1-0.3-2.2-0.1-3.3c0.1-0.4,0.1-0.7,0.2-1.1
	c0-0.3,0.1-0.7,0.2-1c0.1-2,0-4.1,0-6.2c0-0.5,0.4-0.9,0.6-1.3h1.3c0-0.1,0-0.3,0.1-0.5c0.1-0.4,0.2-0.7,0.2-1.1
	c0.1-0.4,0.3-0.9,0.4-1.4c0.1-0.6,0.2-1.2,0.3-1.8c0.5,0,1,0,1.4,0c0.1,0.5,0.3,1,0.6,1.4c0,0.1,0,0.3,0.1,0.4l0.3,0.6
	c0.1,0.7,0.1,1.4,0.1,2.1l0.3,0.6c0.8,0.2,1.6,0.3,2.4,0.2c0,1.5,0,3,0,4.5c0.1,0.7,0.3,1.3,0.6,1.9c0,0.5,0.1,1.1,0.3,1.6
	c0.5,0.1,1,0.2,1.4,0.3l0.7,0.6c0,0.3,0,0.5,0,0.8l0.2,0.4c5.8,0,11.6,0,17.4,0c0.1-0.9,0.1-1.9,0.1-2.8v-2.6c0-2.9,0-5.8,0-8.7
	c0-1,0.2-2,0.6-2.9c0-0.3,0.1-0.6,0.1-0.8l0.7,0c0.2,0.6,0.3,1.3,0.5,1.9c0.4,0.1,0.7,0.1,1.1,0.1c0.1-0.4,0.2-0.9,0.3-1.3
	c0.2-1.2,0.6-2.3,0.9-3.5h0.9c0.1,0.7,0.2,1.3,0.3,2c0,0.6,0,1.2,0.1,1.8c0.3-0.7,0-1.4,0.3-2.1c0.1-2.8,0-5.6,0-8.5
	c-0.1-0.7,0-1.3,0.2-2c0.1-1,0.3-2.1,0.5-3.1c0.2,0.1,0.6,0.1,0.6,0.4c0.1,0.5,0.2,1,0.3,1.5l0.3,0.6c0-0.1,0.1-0.3,0.1-0.4l0.3-0.1
	c0-0.2,0-0.5,0-0.7c0.3-0.8,0.4-1.7,0.7-2.5c0.1-1.8-0.1-3.6,0.1-5.4l0.2-0.4l0.6-0.6c0.4-0.1,0.8-0.2,1.2-0.3c0-0.2,0-0.4,0-0.6
	c-0.3-0.6-0.4-1.3-0.3-1.9c0.2-0.4,0.5-0.7,0.6-1.1c0-0.5,0-1.1,0-1.6c0.1-0.3,0.2-0.5,0.3-0.8c0.1-0.7,0.1-1.4,0.1-2.1
	c0.2-1,0.3-2.1,0.2-3.1l0.3-0.4c-0.1-1.3-0.1-2.5,0.1-3.8c0.1-0.6,0-1.2-0.3-1.7c-0.4-0.2-0.8-0.5-1.1-0.8c-0.2-0.5-0.3-1.1-0.2-1.7
	h0.4l0.5,0.8l0.4,0.1c0.1-0.6,0.2-1.2,0.4-1.8h0.3c0.2,0.6,0.3,1.3,0.3,1.9h0.3c0.2-0.3,0.5-0.6,0.7-1h0.3c0,0.2,0,0.5,0,0.6h0.2
	c0,0.2-0.1,0.4-0.1,0.6c-0.5,0.6-1,1.1-1.6,1.5c-0.1,1,0,2.1,0,3.1c-0.1,0.6,0,1.2,0.2,1.8c0.1,1,0,1.9,0.1,2.9
	c0.1,0.4,0.2,0.7,0.3,1.1c0.1,0.3,0.1,0.7,0.2,1c0.1,0.9,0.2,1.8,0.2,2.7c0.2,0.6,0.4,1.3,0.6,1.9c0,0.3,0,0.5,0,0.8
	s-0.2,0.6-0.3,0.9l-0.1,0.6c0.9-0.1,1.7,0.4,2,1.3c0,1.9,0,3.8,0,5.6c0.2,0.6,0.6,1,0.8,1.5s0,1.1,0,1.7c0.3,0,0.7-0.1,0.8-0.4
	c0.2-0.6,0-1.2,0.2-1.8h0.4c0.1,0.3,0.2,0.6,0.4,0.9c0.1,1,0,2.1,0.1,3.1c0.1,0.3,0.2,0.7,0.2,1c0,3.5,0,6.9,0,10.4h0.5
	c-0.1-0.7,0-1.5,0.1-2.2c0-0.5,0.1-1,0.3-1.5l0.7,0.1c0,0.3,0.1,0.5,0.1,0.8c0.2,0.4,0.2,0.9,0.4,1.3c0.1,0.3,0.1,0.5,0.2,0.8
	c0.1,0.5,0.2,0.9,0.3,1.4c0.4,0.2,0.8,0.4,1.2,0.6c0-0.3,0.1-0.6,0.1-0.8s0.2-0.4,0.2-0.6s0.1-0.7,0.5-0.7c0.6,0.9,0.9,1.9,1.1,3
	c0,0.7,0.1,1.3,0.3,2l-0.3,0.3c0,4.2,0,8.3,0,12.5c5.5,0,11,0,16.6,0c0.3,0.1,0.4-0.2,0.6-0.4c0-0.3,0-0.6,0.1-0.9
	c0.3-0.3,0.6-0.6,1-0.8c0.3,0,0.7,0,1-0.1c0.3-0.2,0.3-0.7,0.5-1V82l0.3-0.6c0.5-1.9,0.2-3.9,0.4-5.8c0.8,0,1.6,0.2,2.2-0.4
	c0.1-0.3,0.2-0.7,0.3-1.1c0.1-0.8,0.3-1.6,0.6-2.3c0.1-0.5,0.1-1,0.1-1.4h1.9c0.2,1.1,0.4,2.2,0.7,3.3v0.4c0.1,0.3,0.2,0.5,0.3,0.8
	c0.5,0,1,0.1,1.4,0.3c0.5,1.3,0.1,2.6,0.2,3.9c0.4,0.9,0.1,1.9,0.2,2.9c0.2,0.5,0.3,1,0.2,1.6c0,4.2,0,8.3,0,12.5h0.4l0.6-0.9
	l0.4-0.6l0.4-0.6c0.2-0.5,0.5-1,0.7-1.4l0.7-0.3c0.3-1,0.6-2,0.9-3.1c0.1-0.3,0.1-0.5,0.2-0.8c0.3-1.5,1.2-2.7,2.6-3.3
	c0.4,0.5,0.8,1,1.1,1.6l0.4,0.6c0,0.1,0.2,0.3,0.2,0.4c0.1-0.3,0.2-0.5,0.3-0.8c-0.2-0.5-0.3-1.1-0.3-1.6c-0.4-0.7-0.9-1.3-1.5-1.8
	c-0.3-0.1-0.6-0.2-0.9-0.3l-0.6-0.6c0-0.5,0-1,0.1-1.5c0.5-0.2,1.1-0.4,1.6-0.6c0.4,0.7,0.9,1.4,1.4,2.1c0.1-0.7,0-1.5-0.3-2.2
	c0-0.1-0.1-0.3-0.1-0.4c-0.2-0.3-0.3-0.6-0.5-1s-0.3-0.5-0.4-0.8l-0.2-0.8c-0.1-0.2-0.2-0.4-0.2-0.6c-0.3-1.4-0.4-2.8-0.3-4.2
	c0-0.2,0.1-0.4,0.2-0.6c0-0.9,0.3-1.8,0.3-2.8c0.8,0.1,1.5,0.3,2.2,0.7c-0.3-1-1.3-1.6-2.1-2h-0.8l-1-0.7c0-0.1,0-0.4,0-0.5l0.6-0.7
	l0.5-0.1l0.5-0.2c0.3,0.5,0.7,0.9,1.1,1.4c0.3,0.4,0.8,0.5,1.2,0.4c-0.3-0.5-0.7-0.9-1.1-1.3c-0.5-0.5-1-1-1.4-1.7
	c-0.1-0.3-0.3-0.7-0.4-1c-0.2-0.7-0.3-1.3-0.5-2c-0.4-1.5,0.1-3.1-0.3-4.6c-0.1-1,0-2,0-3l0.8,0.1l0.9,0.3c0-0.2,0-0.5,0-0.7
	l-0.7-0.6l-0.5-0.3c-0.4,0-0.8,0-1.2,0c-0.4,0.1-0.8,0.2-1.2,0.2c-0.2-0.4-0.5-0.7-0.9-1c0-0.1,0-0.2,0-0.3l0.5-0.1l1.3-0.7h0.7
	l-0.6-0.6c-0.8-1.2-2-2.1-3.4-2.7c-0.2-0.1-0.3-0.3-0.5-0.4c-0.6-0.4-1.1-0.9-1.6-1.4c-0.4-0.7-0.7-1.4-1.1-2.1
	c-0.5-1.1-0.9-2.2-1.4-3.2l-0.3-0.3c0.9,0,1.8,0,2.7,0.2c-0.1-0.6-0.4-1.1-0.9-1.4c-0.7,0-1.4,0-2.2,0l-0.8,0.5
	c-0.5,0.1-1,0.1-1.6,0.1l-0.3-0.5c0.1-0.4,0.2-0.8,0.4-1.2c0.6-0.2,1.1-0.2,1.7-0.2c-0.8-0.9-1.8-1.6-2.8-2.2
	c-0.3-0.1-0.6-0.1-1-0.1c-0.4-0.1-0.7-0.2-1.1-0.2l-0.8-0.2c-0.8-0.2-1.5-0.5-2.2-0.9l-0.8-0.5c-1.1-0.7-1.9-1.9-3-2.7
	c0,0,0-0.2,0-0.2l1.2-0.5c0-0.1,0-0.2,0-0.3c-0.4-0.2-0.9-0.4-1.3-0.4c-0.5,0.3-1,0.7-1.4,1.1c-0.4,0-0.7,0.1-1.1,0.1l-0.3,0
	c-0.2-0.5-0.3-1-0.3-1.5l0.5-0.6c0.4,0,0.8-0.1,1.2-0.2c0.4,0,0.8,0,1.3,0c0-0.1-0.1-0.3-0.1-0.4c-1.6,0.1-3.1-0.2-4.5-0.8l-0.6-0.2
	c-1.6-0.8-3.5-1.3-4.7-2.8c0-0.1,0-0.4,0-0.5l-0.5-0.5H161l-0.8-0.4c-0.6-0.3-1.1-0.6-1.7-0.8l-0.8-0.5c-0.6-0.4-1.3-0.9-1.8-1.4
	c-0.5-0.3-0.9-0.7-1.2-1.1c0.3-0.1,0.6-0.2,0.8-0.3c0.3-0.1,0.7-0.2,1-0.2h3.3l0.6,0.3l0.6,0.2l1.1,0.4l0.6,0.2l0.4,0.1
	c0.5,0.1,1.3,0.8,1.5,0c0.9-0.1,1.8,0,2.7,0.1l0.8,0.2l0.6,0.3l0.4,0.1c0.8,0.4,1.6,0.7,2.3,1.2c1,0.7,1.9,1.5,2.9,2.4l0.9,0.8
	c0-0.5,0-1.1,0.1-1.6c0.7,0.3,1.4,0.8,2,1.2c0.6,0.4,1.1,0.8,1.6,1.1c0-0.5,0-1,0-1.5l0.5-0.5c0.4,0,0.8,0.1,1.2,0.3
	c-0.1,1.2,0.3,2.4,0.2,3.6h0.4v-1c1.3,0.5,2.5,1.1,3.6,1.8c0.6,0.3,1.2,0.7,1.8,1.1l0.6,0.4c0.3,0.2,0.6,0.5,0.9,0.7l0.1,0.4
	c0.4,0.4,0.8,1,1,1.5c0.1,0.3,0.2,0.5,0.4,0.8c0.4,0.8,0.6,1.6,1,2.3l0.2,0.6l0.3,0.1c0-0.2,0-0.5,0.1-0.7s0.1-0.5,0.2-0.8
	c0.3-0.2,0.7-0.4,1-0.5l0.1,0.2c0.3,0.2,0.6,0.4,0.8,0.6l-0.2,0.6l-0.1,0.7l-0.7,0.7c-0.6,0.8-0.7,1.9-0.2,2.7
	c0.4-0.9,0.7-1.8,1.1-2.6h0.3c0.3,0.6,0.8,1.2,1.3,1.6c0.7,1.2,1.9,1.8,2.6,3c0.7,1.2,1.3,2.4,1.7,3.8c0.1,0.3,0.1,0.6,0.2,0.8
	c0,0.8,0.2,1.7,0.4,2.5c0.1,0.3,0.1,0.7,0.2,1s0.1,0.7,0.2,1c0.3-0.6,0.4-1.1,0.5-1.8c0.3-0.1,0.7-0.1,1-0.1c0.6,0.1,0.8,0.8,1,1.2
	c-0.2,0.6-0.6,1.2-1.3,1.4c-0.3,0.2-0.6,0.4-0.9,0.7v0.5c-0.1,0.2-0.2,0.3-0.3,0.5v1h0.5c0.4-0.5,0.8-0.9,1.3-1.3
	c0.2,0.5,0.5,1.1,0.7,1.6h0.1c0.1,0.2,0.2,0.5,0.3,0.7c0.4,0.7,0.8,1.5,1,2.3l0.3,0.4c0,0.1,0,0.4,0,0.5h0.2c0.1,0.5,0.2,1,0.3,1.5
	c0.4,1.6,0.5,3.2,0.4,4.8c0,0.3-0.1,0.6-0.2,0.8c0,0.3,0,0.6,0.1,0.9c0.6,0.1,1.3,0.3,1.9,0.4c0,0.6,0,1.2,0,1.8
	c-0.4,0.1-0.7,0.2-1.1,0.2l-0.7,0.2c-0.3,0.3-0.6,0.6-0.9,0.8c-0.2,0.4-0.3,0.9-0.4,1.3l0.6-0.2c0.4-0.2,0.9-0.5,1.4-0.7
	c0,0.3,0.1,0.7,0.2,1c-0.1,0.9,0,1.7,0.2,2.6c-0.1,1.1,0,2.2,0.2,3.2c0.1,1.2,0.1,2.5-0.1,3.7c-0.2,1.6-0.6,3.1-1.3,4.6l-0.2,0.6
	c-0.1,0.3-0.3,0.5-0.4,0.8s-0.2,0.4-0.3,0.7h2.8c0,0.7,0,1.3,0,1.9c-0.6,0.3-1.4,0.3-2.1,0.1c-0.6-0.1-1.3-0.1-1.9,0
	c-0.6,0.4-1,1-1.2,1.7c0.4,0,0.9,0,1.3,0c0.4-0.2,0.9-0.2,1.3-0.2c0,0.4,0,0.8,0,1.3c-0.4,0.8-0.1,1.6-0.3,2.4s-0.2,1.4-0.3,2.1
	c-0.3,1.5-0.9,3-1.8,4.2l-0.3,0.4l-0.7,0.9c0,0.1-0.1,0.2-0.1,0.3c-0.3,0.3-0.5,0.6-0.8,0.8c-0.7,1.1-1.6,2-2.3,3.1l-0.4,0.4
	c0.7,0,1.3,0,1.9,0c0.2,0.2,0.4,0.5,0.6,0.7c0,0.4,0.2,0.9-0.1,1.2c-0.4,0.5-0.9,0.7-1.5,0.5c-0.7-0.2-1-1-1.3-1.5h-0.9
	c-0.7,0.9-1.2,2.2-0.4,3.2c0,1.1-0.8,1.9-1.1,2.9c-0.6,1.5-1.3,2.9-2.2,4.1c-0.9,1.3-2.2,2.3-3.6,2.9l-0.4,0.1l-0.8,0.2l-0.5,0.2
	c-0.8,0.1-1.5,0.3-2.1,0.7c-0.5,0.5-0.9,1-1.4,1.4c-0.2,0.3-0.3,0.6-0.5,0.9s-0.3,0.7-0.5,1v0.2c-0.2,0.9-0.8,1.8-1.5,2.4
	c-0.8,0.3-1.6,0.4-2.4,0.5c-0.5,0.1-0.9,0.4-1.2,0.8c-0.1,0.3-0.2,0.7-0.3,1s-0.4,0.4-0.7,0.6c-1,0.5-2.1,0.1-3.1,0.5
	c-0.2,0.6-0.3,1.2-0.2,1.8c-0.3,0.6-0.8,1.2-1.4,1.6c-0.8,0.1-1.7,0.1-2.5-0.1c-1.6,0-3.2-0.4-4.8-0.5c-0.4-0.2-0.9-0.2-1.4-0.2
	c0.2,0.3,0.5,0.6,0.8,0.9c1.2,0.6,2.1,1.8,2.2,3.1c-0.9,0.1-1.8,0-2.7-0.1c-0.5-0.2-0.9-0.6-1.1-1c-0.3-0.4-0.7-0.7-1-1.1h-0.5
	c-0.2,0.4-0.4,0.9-0.6,1.3c-0.7,0.7-1.4,1.4-2.2,1.9c-1.1,0.7-2.2,1.2-3.4,1.6c-0.3,0-0.6,0.1-0.8,0.2l-0.8,0.2
	c-0.7,0.1-1.4,0.3-2.1,0.3c-0.6,0.1-1.3,0.2-1.9,0.2c-1,0.2-1.9,0.3-2.9,0.2c-1,0.1-2,0-2.9-0.2c-0.6,0-1.3,0-1.9-0.2
	c-0.6-0.1-1.2-0.2-1.9-0.3l-0.2-0.2h-0.8l-0.6-0.3c-0.3-0.1-0.5-0.1-0.8-0.1c-0.8-0.3-1.6-0.5-2.4-0.8L134,139h-0.4
	c-0.8-0.5-1.7-0.9-2.5-1.4l-1.2-1.2c-0.2-0.4-0.5-0.8-0.7-1.1c-0.2-0.2-0.5-0.4-0.9-0.4l-0.1,0.5c-0.5,0.7-1,1.3-1.6,1.8
	c-0.5,0.3-1.2,0.3-1.8,0.1c-0.4,0-0.8,0-1.1,0c0-0.3,0.1-0.6,0.2-0.9c0.6-1.1,1.8-1.7,2.6-2.6c0-0.1,0.1-0.3,0.1-0.4
	c-0.3,0.1-0.7,0.2-1,0.3c-0.7,0.1-1.4-0.4-2.1-0.1s-1.4,0.4-2.1,0.6l-1,0.2c-0.7,0.2-1.5,0.1-2.1-0.2l-0.5-0.1
	c-0.4-0.4-0.7-0.8-1.1-1.2c-0.1-0.5-0.2-0.9-0.3-1.4l0.3-0.6c-1.5-0.3-3-0.3-4.3-1.1v-0.2c-0.1-0.3-0.2-0.6-0.3-0.8
	s-0.1-0.4-0.2-0.6c-0.4-0.2-0.9-0.4-1.3-0.6c-0.6,0-1.2-0.1-1.8-0.3c-0.4-0.2-0.7-0.4-1.1-0.6c-0.1-0.2-0.3-0.5-0.4-0.7
	c-0.3-0.6-0.4-1.3-0.3-2c-0.6-0.5-1.1-1.1-1.4-1.8c-0.7-0.8-1.5-1.3-2.5-1.6h-0.8l-0.3-0.2l-0.8-0.2c-0.7-0.4-1.4-0.8-2.1-1.3
	c-0.6-0.6-1.2-1.3-1.9-1.8c0-0.1-0.1-0.3-0.1-0.3c-0.8-1-1.4-2.2-1.9-3.4c-0.3-0.8-0.5-1.6-0.9-2.3c-0.1-0.2-0.2-0.4-0.2-0.6
	c-0.1-0.2-0.2-0.6-0.3-0.8l0.6-0.1l0.2-0.8l-0.3-0.5c0.1-0.5,0-1.1-0.2-1.5h-1c-0.4,0.4-0.9,0.9-1.3,1.3h-0.7l-0.3,0.2
	c-0.2-0.1-0.4-0.2-0.7-0.3l-0.6-0.6c0-0.6,0.3-1.1,0.8-1.4c0.6-0.1,1.3-0.1,1.9-0.1v-0.9c-0.6-0.6-1.2-1-1.8-1.5s-1-1-1.5-1.5
	c-0.3-0.4-0.6-0.7-0.8-1.1c-0.4-0.6-0.7-1.2-0.9-1.9c-0.1-0.2-0.2-0.4-0.2-0.6v-0.6c-0.2-0.5-0.4-1-0.5-1.5l-0.2-0.8
	c-0.1-0.3-0.1-0.7-0.2-1c-0.3-1.6-0.4-3.3-0.3-4.9c0.5,0,1,0,1.5,0.1c0.4,0.2,0.9,0.2,1.4,0.2c-0.4-0.4-0.8-0.8-1.2-1.2
	c-0.6-0.3-1.3-0.4-1.9-0.4c-0.5,0.1-1,0.2-1.5,0.3c-0.4-0.1-0.7-0.2-1.1-0.4c-0.2-0.8,0.1-1.7,0.7-2.2c0.8-0.3,1.5,0.3,2.3,0.5
	c-0.2-0.7-0.4-1.3-0.8-1.9l-0.2-0.6c-0.4-1-0.7-2-0.9-3.1c0-0.4-0.1-0.8-0.2-1.2c0-0.6,0-1.2-0.2-1.7c0-0.3,0-0.5,0-0.8
	c0.2-0.5,0.3-1.1,0.2-1.7c0.2-0.6,0.3-1.3,0.4-1.9c0.1-0.3,0.2-0.5,0.3-0.8c0-1.2,0-2.3,0-3.5l0.7,0.2c0.5,0.3,1,0.5,1.5,0.7
	c-0.1-0.3-0.2-0.7-0.2-1c-0.3-0.7-0.9-1.3-1.6-1.6l-0.5-0.3c-0.2-0.1-0.5-0.2-0.7-0.3c0-0.1,0-0.3-0.1-0.4L83,66.2
	c0.4-0.4,0.9-0.8,1.3-1.1c0.4,0,0.8,0,1.1,0.3c0-2,0-4.1,0-6.1c0.1-0.3,0.2-0.6,0.2-0.8c0.2-0.7,0.5-1.4,0.8-2.1
	c0-0.1,0-0.3,0.1-0.4c0.3-0.7,0.6-1.4,0.9-2.1c0.3-0.7,0.8-1.5,1.2-2.3c0.7,0.6,1.2,1.4,1.5,2.2h0.4v-0.6c0.4-0.7-0.2-1.3-0.3-2
	c-0.3-0.6-0.8-1.1-1.4-1.5c-0.3-0.2-0.5-0.5-0.5-0.8c0-0.1-0.1-0.3-0.1-0.4l0.7-0.8l0.6-0.1c0.4,0.3,0.8,0.6,1.2,1
	c0.1-1.3,0.4-2.6,0.9-3.9c0.1-0.2,0.1-0.4,0.2-0.6l0.2-0.4c0.4-1.2,1-2.3,1.7-3.3c0.2-0.3,0.5-0.7,0.8-1c0.5-0.6,1-1.2,1.5-1.7
	c0.5-0.7,1-1.2,1.5-1.9c0.3,0.6,0.5,1.1,0.8,1.7l0.3,0.6c0,0.1,0.1,0.3,0.2,0.5h0.3c0.1-0.7,0-1.3-0.1-2c-0.2-0.9-1-1.4-1.4-2.2
	c0-0.2,0-0.5,0-0.6c0.3-0.3,0.7-0.5,1.1-0.7c0.3,0.1,0.5,0.2,0.8,0.3c0.1,0.3,0.3,0.5,0.4,0.8v0.5l0.4-0.1v-0.6l0.3-0.5
	c0.1-0.3,0.2-0.6,0.3-0.9c0.4-0.8,0.9-1.5,1.4-2.2c0.6-0.7,1.2-1.4,1.9-2c1.8-1.3,3.7-2.3,5.8-3c0.1,0.3,0.1,0.6,0.2,1h0.3
	c0.1-0.1,0.2-0.4,0.2-0.5c0.1-0.9-0.3-1.8-0.2-2.8c0.5-0.2,1-0.3,1.5-0.3l0.4,0.7c0,0.4,0,0.9,0.1,1.3c0.5-0.3,1-0.6,1.4-0.9
	c0.3-0.2,0.7-0.4,1-0.6c0.4-0.2,0.8-0.5,1.2-0.7c0,0.2,0,0.5,0,0.6s0.2,0.4,0.3,0.6c0.7-0.7,1.4-1.4,2.1-2.1c0.7-0.5,1.5-1,2.3-1.4
	l0.6-0.2c0.7-0.3,1.4-0.5,2.1-0.6c1-0.2,2.1-0.3,3.2-0.3l0.1,0.9L127.4,19.9 M130.5,19.4c-0.3,0.1-0.5,0.2-0.7,0.3
	c-0.6,0.1-1.2,0.4-1.7,0.8c-0.3,0.2-0.5,0.4-0.8,0.7l-0.4,0.1c0,0.1-0.1,0.2-0.1,0.2l0.4,0.1v-0.1c0.8-0.5,1.7-0.9,2.6-1.3l0.5,0.3
	v0.3c-0.4,0.3-0.8,0.5-1.2,0.8c0,0.1,0,0.3-0.1,0.3c0.6,0.1,1.3,0,1.8-0.3c0.7-0.5,1.4-1,2.2-1.3c0.4-0.3,0.7-0.6,1-0.9
	C132.9,19.2,131.7,19.2,130.5,19.4 M157.1,19.3c0.5,1,1.3,1.9,2.3,2.3c0.4,0.2,0.8,0.3,1.2,0.4c0.5,0,0.9-0.1,1.4-0.3
	c-0.3-0.2-0.6-0.4-0.9-0.6c0-0.4,0-0.8,0-1.2C159.9,19.3,158.5,19.1,157.1,19.3 M122.9,20.8c-1.2,0.2-2.3,0.8-3.2,1.6
	c0,0.2,0,0.5,0,0.7L120,23c0.4-0.5,0.8-0.8,1.3-1.1c0.6-0.2,1.2-0.3,1.9-0.3c0,0.1,0,0.3,0,0.4c-0.5,0.2-0.9,0.4-1.4,0.7
	c-0.3,0.2-0.2,0.7-0.2,1c-0.4,0.3-0.8,0.5-1.3,0.8c0.1,0.4,0.3,0.9,0.4,1.3c1-0.3,1.8-1,2.4-1.8c0-0.1,0.1-0.2,0.1-0.3
	c0.8-0.9,1.4-2,1.6-3.2l-1,0.1C123.6,20.7,123.2,20.8,122.9,20.8 M166.4,20.6c0.1,0.4,0.2,0.9,0.2,1.3c0.4,0.8,0.9,1.6,1.4,2.3
	l1.2,1.2l1,0.5c0.4-0.4,0.8-0.8,1.2-1.1c-0.4-0.1-0.7-0.2-1-0.4l-1.3-0.5l0.3-0.5c-0.4-0.4-0.9-0.8-1.4-1.1c0-0.1,0-0.2,0-0.3h1.8
	c0.7,0.7,1.6,1.2,2.4,1.8c0-0.2-0.1-0.4-0.1-0.6c-0.4-0.6-0.9-1.1-1.6-1.5l-0.7-0.5C168.7,20.8,167.6,20.6,166.4,20.6 M164.2,24.1
	c0,0.1-0.1,0.3-0.1,0.5h2.3l-0.1-0.5C165.6,23.8,164.9,23.8,164.2,24.1 M125.5,24.8l-1.2,0.4c0,0.2,0,0.4,0,0.6l0.3,0.3
	c0.7-0.4,1.5-0.7,2.2-1l-0.1-0.3C126.4,24.7,126,24.7,125.5,24.8 M110.9,27.5c-0.5,0.7-0.8,1.4-1.1,2.2l0.3,0l0.3-0.8l0.7,0.3
	c0.3-0.6,0.6-1.2,0.9-1.8l0.6-0.6l1-0.3c-0.1,0.4-0.2,0.9-0.3,1.3c-0.1,0.3-0.2,0.5-0.2,0.8s-0.1,0.4-0.1,0.5l-0.7,0.6
	c0,0.1,0,0.3,0,0.4c0.5-0.1,1-0.4,1.4-0.8c0.3-0.6,0.6-1.2,0.7-1.8c0.1-0.2,0.1-0.4,0.2-0.6s0.1-0.3,0.1-0.4c0.2-0.7,0.2-1.3,0.1-2
	c-1.4,0.8-2.7,1.8-3.8,2.9 M165.3,25.4c0.7,0.4,1.4,0.6,2.1,0.8C167,25.4,166.1,25.1,165.3,25.4 M176.3,25.2c0,0.4,0,0.9,0,1.3
	c0.2,0.4,0.3,0.9,0.4,1.3c0.1,0.4,0.4,0.9,0.6,1.2c0,0.1,0.1,0.3,0.1,0.4l0.2,0.2c0.3,0.5,0.6,0.9,1,1.3c0.3-0.2,0.5-0.5,0.8-0.7
	c-0.6-0.4-1.1-0.9-1.6-1.4c0.2-0.8-0.1-1.6-0.7-2.1c0-0.2-0.1-0.4-0.1-0.6c1,1,2.2,1.8,2.6,3.2c0.7,0.2,1.3,0.7,1.5,1.4
	c0-0.6-0.1-1.3-0.4-1.8c-0.2-0.2-0.3-0.4-0.4-0.6c-0.4-0.6-0.9-1.2-1.4-1.7c-0.7-0.7-1.7-1.2-2.7-1.4 M116.1,26.9l-0.6,0.6
	c0.4,0.1,0.9,0,1.2-0.2c0.7-0.2,0.6,0.6,0.7,1c0.5-0.6,1-1.2,1.4-1.9C118,26.3,117,26.4,116.1,26.9 M172.1,26.7
	c0.4,0.2,0.8,0.5,1.2,0.7s1,0.1,1.5,0.1c0-0.1-0.1-0.2-0.1-0.3c-0.3-0.1-0.6-0.3-0.8-0.5C173.3,26.6,172.7,26.6,172.1,26.7
	 M105.9,28.5c-0.8,0.5-1.4,1-2,1.7c-1.4,1.8-2.8,3.9-2.9,6.4h0.6c0.4-0.6,0.6-1.2,0.8-1.8c1.5-1.3,2.2-3.3,3.2-5
	c0,0.4,0,0.7,0.1,1.1c0.7-0.7,1.4-1.3,2-2h0.4c-0.1,0.3,0,0.6-0.3,0.8c-0.8,0.7-1.5,1.5-2.2,2.4c0,0.2,0,0.5,0,0.7l0.2,0.3
	c-0.4,0.4-0.8,0.8-1.3,1.2s-1,0.7-1.1,1.4c0.5-0.3,1-0.5,1.6-0.5c0,0.3,0,0.6,0,1c0.3-0.3,0.6-0.7,0.9-1c1.2-1.7,2.6-3.5,2.8-5.6
	c0-0.6,0.6-1.5-0.2-1.7C107.4,27.6,106.5,27.9,105.9,28.5 M182.4,28c-0.1,1,0,1.9,0.3,2.9c0.1,0.2,0.1,0.4,0.2,0.6
	c0.3,0.9,0.7,1.7,1.2,2.5l0.4,0.6c0.4,0.6,0.9,1.2,1.4,1.7h0.4c-0.1-0.3-0.2-0.6-0.3-0.8c0.6,0.1,1.2,0.2,1.8,0.2
	c-0.5-0.4-1.1-0.8-1.6-1.2c-0.3-0.2-0.6-0.5-0.9-0.8s-0.5-0.3-0.7-0.5l0.8-0.4c-0.1-0.4-0.2-0.8-0.3-1.2c0.2,0,0.5,0,0.7,0.1
	c0.9,0.9,1.3,2.1,2.1,3.1c0-0.5,0.1-1.1,0.1-1.6c0.8,1.3,0.5,3.2,1.8,4.2l0.5,0.2c-0.1-1.3-0.5-2.5-1.1-3.7
	c-0.4-0.7-0.9-1.4-1.4-2.1c-0.6-0.7-1.2-1.3-1.9-1.8c-0.5-0.4-1-0.7-1.6-1.1l-0.8-0.4C183.1,28.2,182.8,28.1,182.4,28 M114.7,30.7
	c0,0.2,0,0.5,0,0.6l0.5,0.4c-0.4,0.2-0.8,0.4-1.2,0.7l0.4,0.4c0.6,0.3,1.1-0.3,1.6-0.6l0.7-0.6c0-0.2,0-0.5,0-0.6
	c-0.4,0-0.7-0.1-1.1-0.2L114.7,30.7 M174.2,31.4c0.3,0.9,1.1,1.6,2,1.9l0.9-0.2c0-0.1-0.1-0.3-0.1-0.5l-0.5-0.1
	c-0.1-0.5-0.2-1-0.5-1.5C175.4,31.1,174.8,31.2,174.2,31.4 M109.3,31.9v0.8l-0.5,0.5l-0.1,0.4c-0.7,0.6-1.1,1.4-1.7,1.9
	c-0.4,0.2-0.7,0.5-1.1,0.8c0,0.1,0,0.3,0,0.3c0.7-0.2,1.4-0.5,2.1-0.9c0.5-0.4,1-0.8,1.4-1.4c0.5-0.8,0.9-1.7,1.1-2.7
	C110,31.7,109.7,31.7,109.3,31.9 M180.7,32c0.4,1.5,1.2,2.9,2.4,3.9c0.5,0.4,1.1,0.7,1.6,0.9c0-0.1,0.1-0.3,0.1-0.4
	c-0.8-0.4-1.9-0.8-2-1.9c-0.6-0.6-1.4-1.2-1.4-2.2L180.7,32 M101.9,37.2c-0.2,0.4-0.3,0.9-0.3,1.4c0.7,0.1,0.6,0.8,0.7,1.3h0.5
	c0.3-0.4,0.6-0.9,0.8-1.4c0-0.5,0.1-1,0.3-1.5C103.1,36.8,102.5,36.9,101.9,37.2 M187.5,37.1c0,0.6,0,1.2,0.1,1.8l0.5,0.6
	c0,0.1,0.1,0.3,0.1,0.5l0.5,0.1c0-0.3,0-0.7,0-1h1.2l-0.1-0.5l-0.4-0.1c-0.3-0.3-0.6-0.6-1-0.8l-0.5-0.5L187.5,37.1 M96.6,38.4
	c-0.6,0.5-1.2,1.2-1.7,1.8c-0.4,0.4-0.8,0.9-1.1,1.4l-0.3,0.5v0.4c-0.2,0.3-0.3,0.6-0.5,1c-0.3,0.9-0.5,1.9-0.8,2.9
	c-0.1,0.3-0.1,0.5-0.2,0.8c-0.3,1.8-0.4,3.5-0.3,5.3h0.6c0-0.1,0-0.4,0.1-0.5c0.3-0.7,0.6-1.4,1-2.1c0.2-0.2,0.4-0.3,0.3-0.6
	c0-0.9-0.1-1.8-0.3-2.6l0.9-0.1c-0.1-1,0-1.9,0.2-2.8c0-0.5,0-1.1,0.1-1.6c0,0.2,0.2,0.6,0.2,0.8l0.5,0.1c0.1-0.4,0.2-0.8,0.3-1.2
	l0.7-0.1c-0.1,0.5-0.2,1-0.3,1.5l0.7-0.3c0.1,0.2,0.2,0.3,0.2,0.5c-0.4,0.7-0.9,1.3-1.5,1.8c-0.3,0.5-0.4,1-0.5,1.6l0.8-0.4l0.3-0.2
	l0.6-0.4c0.3-0.2,0.6-0.4,0.9-0.6c0.3-0.6,0.4-1.2,0.3-1.9c0-1.3,0-2.6,0-3.9c0-0.4-0.2-0.8-0.3-1.1C97.2,38.2,96.8,38.1,96.6,38.4
	 M193.9,38.8c-0.2,0.5-0.4,1-0.7,1.5c-0.5,1.3-0.2,2.7-0.2,4.1c0.6,1.2,1.5,2.2,2.5,3h0.3c0-0.2,0-0.3,0-0.5
	c-0.3-0.4-0.6-0.8-0.8-1.1s-0.5-0.9-0.8-1.4l1.1,0.3c0.1-0.5,0.2-1,0.3-1.4c0,0.1,0.1,0.4,0.1,0.6l0.7-0.1c0,0.2,0,0.5,0.1,0.7
	c0.2,0.6,0.2,1.3,0.2,1.9c0.1,0.3,0.2,0.5,0.3,0.8c0.2,0.9,0.7,1.8,0.4,2.8c0.2,0.6,0.5,1.2,0.9,1.7c0,0.5,0,0.9,0,1.3l0.5,0.5
	l0.2-0.1c0.2-0.7,0.2-1.3,0.2-2c0-0.7,0-1.4,0-2.1c-0.2-0.8-0.3-1.5-0.4-2.3c-0.1-0.4-0.1-0.7-0.2-1.1s-0.2-0.5-0.3-0.8l-0.1-0.5
	c-0.2-0.3-0.3-0.7-0.5-1c-0.4-1.2-1-2.2-1.9-3.1C195.2,39.7,194.6,39.2,193.9,38.8 M100.3,41.4c-0.2,0.3-0.4,0.6-0.6,0.9h0.8
	c0.3-0.2,0.5-0.4,0.8-0.6c0.3-0.5,0.6-0.9,0.9-1.4C101.5,40.5,100.8,40.9,100.3,41.4 M102.5,41.7c-0.9,0.6-1.8,1.3-2.7,2.1l1.1,0.1
	c0.5-0.4,1-0.8,1.5-1.3l0.3-0.1c0.2-0.2,0.4-0.3,0.7-0.5c-0.1,0.5-0.4,1-0.7,1.4c0.1,0.4,0.1,0.8,0.2,1.2h0.3
	c0.7-1.3,1.2-2.6,1.7-3.9C104.1,40.9,103.3,41.3,102.5,41.7 M189,40.9c0,0.3,0,0.6,0.1,0.9l0.6,0.7l1.5,0.7c0-0.2-0.1-0.6-0.1-0.8
	C190.6,41.6,189.9,41,189,40.9 M187.8,45.4l0.9-0.7c-0.7-0.6-1.2-1.3-1.5-2.2l1.1-0.1c0.3,0.3,0.5,0.6,0.7,1
	c0.1,0.2,0.3,0.5,0.5,0.7c0.5,0.1,1,0.2,1.5,0.2c-0.8-0.6-1.6-1.3-2.3-2c-0.6-0.4-1.3-0.8-2.1-1.1C186.3,42.7,187.1,44.1,187.8,45.4
	 M98.8,45.4c-0.3,0.2-0.5,0.4-0.7,0.6c0.1,0.1,0.2,0.3,0.2,0.4c0,0.5,0,1.1,0,1.6c0.4-0.4,0.8-0.8,1.1-1.2c0.1-0.4,0.3-0.7,0.4-1.1
	C99.7,45.2,99.2,45.3,98.8,45.4 M191.3,45.5V46c0.2,0.7,0.5,1.4,0.8,2.1l0.5,0.1c0-0.1,0-0.3-0.1-0.3c-0.3-0.4-0.5-0.8-0.7-1.2
	l1.5,0.4l-0.2-0.4c-0.6-0.3-1.1-0.6-1.6-1L191.3,45.5 M96.7,46.6c-0.2,0.4-0.5,0.8-0.8,1.1v0.5h0.7c0.2-0.5,0.4-1.1,0.6-1.7
	L96.7,46.6 M146.4,47.1c0,2.8,0,5.6,0,8.4c0.3,0.2,0.6,0.3,0.9,0.3c0-2.7,0-5.4,0-8.2l-0.5-0.5L146.4,47.1 M144.7,47
	c0,2.5,0,5,0,7.6c0,0.5,0,0.9,0.2,1.3c0.3-0.2,0.5-0.5,0.8-0.7c0-2.6,0-5.1,0-7.7C145.3,47.3,145,47.2,144.7,47 M148.7,47.4
	c-0.1,2.7-0.1,5.4,0,8.1h0.6c0.1-2.1,0-4.2,0-6.3c0.1-0.6,0-1.2-0.2-1.8C149,47.3,148.8,47.4,148.7,47.4 M193.8,47.2
	c0.1,0.6,0.3,1.2,0.7,1.6h0.9l0.2-0.2C194.9,48.3,194.5,47.5,193.8,47.2 M93.6,52.7c-0.7,0.4-1.2,1-1.7,1.7l-0.5,0.8v0.5
	c0.5-0.1,1-0.3,1.5-0.4c0.3-0.7,0.5-1.4,0.8-2c0,0.5,0,1,0.1,1.5c0.1,0.2,0.2,0.5,0.2,0.7h0.3c0.1-0.4,0.3-0.8,0.4-1.3
	c-0.1-0.3-0.3-0.6-0.5-1c0-0.1-0.1-0.3-0.1-0.4L93.6,52.7 M196.7,53.9c0.4,0.5,0.8,0.9,1.2,1.4c0,0.1,0.1,0.3,0.1,0.4l0.5,0.4
	c0,0.1,0.1,0.2,0.1,0.3l0.5,0.6l0.4-0.5c0-0.3,0-0.6,0-0.8c-0.5-0.9-1.3-1.6-2.2-2L196.7,53.9 M88.7,54.1c-0.9,0.9-1.6,2.1-1.9,3.4
	l-0.4,1.2c-0.1,1-0.1,2-0.1,3c-0.1,0.7,0,1.4,0.2,2.1c0,0.3,0,0.6,0.1,1c0.1,0.3,0.2,0.7,0.2,1c0.1,0.3,0.1,0.6,0.2,0.9
	c0.1,0.3,0.2,0.4,0.3,0.6c0.1,0.2,0.1,0.6,0.1,0.8s0.2,0.3,0.3,0.5s0,0.5,0,0.7H88l0.3-0.5c0-1.4,0-2.8,0-4.3
	c-0.1-0.3-0.2-0.6-0.3-0.8c-0.1-0.3-0.1-0.6-0.2-0.9l-0.9-1.8l1-0.4c-0.1-0.7,0-1.5,0.2-2.2v-0.3c0.2-0.1,0.5-0.1,0.7-0.2
	c0.3,0.4,0.5,0.9,0.6,1.5c-0.1,0.6-0.3,1.2-0.5,1.8l0.3,0.5c0.3,0.2,0.5,0.5,0.7,0.8c0,0.4-0.2,0.7-0.3,1c0,0.5-0.1,1-0.1,1.5
	l0.5-0.4l0.9-0.7c0.2-0.6,0.4-1.2,0.5-1.8c0-0.6,0-1.3,0-1.9c-0.3-0.9-0.2-2-0.6-2.9l-0.2-0.6c-0.1-0.2-0.2-0.4-0.3-0.6
	c-0.1-0.2,0-0.3-0.1-0.4c-0.3-0.6-0.6-1.2-1-1.8L88.7,54.1 M201.2,55.4l-0.1,0.3c-0.3,0.4-0.6,0.9-0.8,1.3c0,0.3-0.1,0.6-0.1,0.8
	c-0.2,0.6-0.3,1.3-0.4,1.9c-0.2,0.8-0.2,1.7-0.2,2.5c0,1.2,0.3,2.3,1,3.3c0.3,0.3,0.5,0.6,0.7,1c0.1-1-0.5-2,0-2.9l0.4-0.5
	c0.1-0.5,0-1-0.2-1.4c0-0.2-0.1-0.4-0.1-0.6s-0.3-0.6-0.4-1s0-0.5,0-0.8s-0.2-0.4-0.3-0.6l0.9,0.5c0-0.5,0-0.9,0-1.4h0.3
	c0.3,0.5,0.5,1.1,0.7,1.6c0.1,0.7,0,1.4,0,2.2c0.3-0.2,0.5-0.4,0.8-0.6c0,0.1,0,0.4,0,0.5c-0.3,0.4-0.6,0.9-0.7,1.4l-0.1,0.4
	c-0.1,0.4-0.1,0.8-0.2,1.2c-0.2,1.6-0.2,3.2-0.1,4.8l0.4-0.1c0.1-0.3,0.1-0.6,0.2-0.8c0-0.1,0.1-0.3,0.1-0.4
	c0.3-0.7,0.5-1.4,0.7-2.1c0.1-0.5,0.2-1.1,0.4-1.6c0-0.5,0-1-0.1-1.5l0.3-0.7c-0.4-0.9,0-1.9-0.4-2.8c-0.3-1.7-0.9-3.3-1.9-4.7
	L201.2,55.4 M95.1,56.1c-0.6,0.4-1.1,0.8-1.5,1.4c-0.7,0.7-0.9,1.8-0.7,2.7c0.4-0.2,0.7-0.6,0.9-1c0.2-0.7,0.7-1.3,1.4-1.5
	c0.3,0.6,0.3,1.3,0.1,1.9L95,60.4c-0.2,0.3-0.5,0.6-0.7,1l-0.4,0.1l-0.5,1c0.4-0.2,0.9-0.3,1.3-0.3c-0.4,1.2-1.6,2-1.5,3.4h0.4
	l0.4-0.4c0-0.1,0.1-0.2,0.1-0.3c0.3-0.3,0.6-0.7,0.8-1.2c0.1-0.2,0.2-0.4,0.4-0.6c0.2-0.7,0.5-1.3,0.7-2c0.5-1.7,0.2-3.5,0.3-5.3
	h-0.8L95.1,56.1 M194.4,56.1c-0.2,0.4-0.3,0.9-0.3,1.3c-0.1,0.9,0,1.8,0.1,2.7c0.1,0.5,0.2,1,0.3,1.6c0.1,0.2,0.1,0.4,0.2,0.6
	c0.3,0.9,0.7,1.7,1.2,2.5l0.4,0.6c0.2,0.3,0.4,0.6,0.7,0.9l0.1-0.3l-0.3-0.4c-0.1-0.8-0.5-1.5-0.5-2.3c0.3,0.2,0.7,0.3,1,0.3
	c-0.1-1-1.1-1.3-1.5-2.1c-0.3-0.4-0.7-0.7-1-1.1l0.9-0.3l-0.1-0.6c-0.2-0.4-0.2-0.8-0.1-1.2c0.9,0.7,1.4,1.6,1.6,2.7l0.5-0.1
	c-0.1-0.2-0.2-0.4-0.3-0.7v-0.7c-0.2-0.3-0.3-0.5-0.4-0.8C196.6,57.4,195.6,56.5,194.4,56.1 M141.2,57.1c0.3,0,0.6,0.1,0.9,0.2
	l-0.1,0.1l-0.8-0.1v1h1.1c0-0.4,0.1-0.8,0.1-1.3C141.9,57,141.5,57,141.2,57.1 M146.2,57.2l-0.5,0.5c0,0.4,0,0.8,0,1.2
	c0.3,0.3,0.7,0.5,1.1,0.8l1.1-0.7c0-0.5,0-1-0.2-1.5C147.2,57.2,146.7,57.2,146.2,57.2 M150.9,57.2v1c0.5,0,0.9,0,1.4,0
	c-0.1-0.3-0.2-0.7-0.3-1C151.6,57.2,151.3,57.2,150.9,57.2 M140.9,59.8c1.2,0,2.4,0,3.6,0c0-0.2,0-0.4,0-0.6c-0.9,0-1.9,0-2.8,0
	C141.3,59.2,141.1,59.6,140.9,59.8 M148.8,59.2c0,0.1,0,0.3,0,0.4h0.6c0.9,0.2,1.7,0.3,2.6,0.2c0-0.2,0-0.4,0-0.6
	C150.9,59.2,149.8,59.2,148.8,59.2 M141.2,60.8c0.1,0.6,0,1.2-0.2,1.7c0,1,0,2,0,3c0.5,1.2-0.1,2.6,0.4,3.9l0.2-0.3l0.3-0.3
	c0-2.5,0-5,0-7.4c-0.1-0.2-0.2-0.4-0.3-0.6L141.2,60.8 M149.9,60.8c-0.1,2.2,0,4.5,0,6.8c0.3,0.1,0.6,0.3,0.9,0.4
	c0.1-2.2,0-4.4,0-6.6C150.5,61.1,150.2,60.9,149.9,60.8 M151.4,60.9c0,2.9,0,5.8,0,8.7c0.3-0.1,0.6-0.3,0.9-0.5c0-2.5,0-5.1,0-7.6
	c-0.2-0.2-0.3-0.3-0.4-0.5L151.4,60.9 M142.8,61.1c-0.1,1.8,0,3.7,0,5.5c0,0.5,0.2,1,0.5,1.3l0.1-0.6l0.1,0.3
	c0.1-1.2,0.1-2.4,0.1-3.6c0-1,0-1.9-0.1-2.9C143.2,61.1,143,61.1,142.8,61.1 M148.8,62.3l-0.4,0.8c0.1,1.4,0,2.8,0.1,4.2l0.8,0.1
	c0.1-1.8,0-3.6,0-5.3L148.8,62.3 M144.1,62.3c0,1.7-0.1,3.3,0,5c0.3,0.1,0.6,0.1,0.9,0.1c0-1.7,0-3.4-0.1-5.1L144.1,62.3
	 M145.6,62.6c0,1.6,0,3.1,0,4.7h0.4l0.4-0.4c0-1.6,0.1-3.2,0-4.9C146.2,62.2,145.9,62.4,145.6,62.6 M147.2,62.4c0,1.3,0,2.7,0,4
	c0,0.3,0.1,0.7,0.3,1h0.4c0-1.2,0-2.5,0-3.7c0-0.4-0.1-0.9-0.2-1.3H147 M90.6,66.4l-0.7,0.7c-0.1,0.4-0.2,0.8-0.4,1.2
	c0.2,0.2,0.5,0.3,0.7,0.5l0.3,0.1c0.1-0.3,0.2-0.7,0.3-1.1h0.4c-0.1,1.4-0.3,2.8-0.5,4.1l0.3-0.1c0.5-0.7,0.9-1.5,0.9-2.4
	c0-1.2,0-2.4-0.1-3.6C91.6,65.9,91.1,66,90.6,66.4 M198.3,66.4c0,0.9,0,1.9,0,2.9c0.1,0.7,0.2,1.5,0.2,2.2l0.9-0.4
	c-0.2-1.2-0.3-2.4-0.2-3.6l0.3,0.1c0.1,0.2,0.1,0.4,0.2,0.6c0.2,0.4,0.4,0.8,0.6,1.2l0.4,0.5c0,0.6,0,1.1,0.1,1.7l0.8-0.7
	c-0.1-0.3-0.2-0.7-0.4-1s-0.1-0.4-0.2-0.6c-0.3-0.5-0.6-1.1-0.8-1.7c-0.2-0.3-0.5-0.5-0.8-0.8C199,66.7,198.6,66.6,198.3,66.4
	 M145.6,68.6c0,0.2-0.1,0.5-0.1,0.7l0.3,0.3h0.5c0-0.5,0-1.1,0-1.6C146.1,68.3,145.9,68.4,145.6,68.6 M146.9,68.1c0,0.6,0,1.1,0,1.7
	c0.3-0.1,0.9,0,1-0.4C148.2,68.7,147.3,68.4,146.9,68.1 M91.8,73c-0.1,0.6,0,1.2,0.3,1.8c0.4-0.3,0.6-0.9,0.5-1.4
	c0.2-0.4,0.5-0.8,0.8-1.2h0.3v1h0.6c0,0.1,0,0.3-0.1,0.4L94,73.9l-0.4,0.6c-0.5,0.6-0.6,1.4-0.4,2.1c0.1,0.4,0.2,0.9,0.4,1.3
	l0.3-0.1c0.7-1,1.1-2.3,1-3.6c0.1-1.3,0-2.6-0.2-3.9h-0.8C93,71.2,92.4,72.1,91.8,73 M195.9,71.3c-0.1,0.4-0.2,0.8-0.3,1.3
	c-0.1,1-0.1,1.9-0.1,2.9c-0.1,1.2,0.4,2.3,1.4,3.1c0-0.9,0.1-1.8,0.2-2.7c-0.1-0.5-0.4-0.9-0.6-1.3c0-0.5,0-1,0-1.6
	c0.4,0.1,0.7,0.2,1.1,0.3c0.2,0.6,0.4,1.1,0.5,1.7h0.5c0.2-0.7,0-1.4-0.4-2l-0.4-0.6c-0.3-0.5-0.7-0.9-1.2-1.2
	C196.4,71.1,196.1,71.2,195.9,71.3 M85.6,71.3c-0.2,0.5-0.4,0.9-0.6,1.4c-0.1,0.3-0.1,0.6-0.2,0.8c0.1,1.1-0.6,2.2-0.1,3.3
	c0,0.6,0,1.2,0.1,1.8c0.2,0.7,0.2,1.4,0.4,2.2c0.1,0.3,0.1,0.5,0.2,0.8c0.3,1.2,0.8,2.4,1.3,3.5l0.1-0.2v-0.1l-0.3-0.6l-0.2-0.1
	c0.1-0.4,0.3-0.7,0.6-0.9c0.2,0.4,0.5,0.8,0.8,1.2c0.1,0.2,0.3,0.4,0.4,0.6l0.4,0.3c0-0.3-0.1-0.7-0.3-1c-0.5-1-1-2.1-1.6-3.1
	l1.1,0.1c-0.4-0.9-0.7-1.8-1-2.7h-0.2v-0.5c-0.2-0.3-0.3-0.7-0.5-1h1c-0.3-0.7-0.3-1.4-0.2-2.1c0.1,0.3,0.1,0.6,0.2,0.9
	c0.2,0.6,0.4,1.3,0.6,2l0.7-0.1c0,1.3-0.1,2.7,0,4c0.3,0.3,0.7,0.4,0.9,0.8c0,0.4-0.1,0.8-0.1,1.2c0.4,0.7,1.1,1.3,1.9,1.4
	c0-0.8-0.1-1.6-0.2-2.4c-0.1-0.4-0.1-0.9-0.2-1.3c-0.1-0.3-0.1-0.7-0.2-1c0-0.3,0-0.7,0-1L90,79.3c0-0.2,0-0.5,0-0.8
	c-0.1-0.4-0.2-0.7-0.2-1.1l-0.2-0.3c0-0.2,0-0.5-0.1-0.8c-0.1-0.3-0.2-0.7-0.2-1c-0.2-0.6-0.4-1.2-0.7-1.7c-0.6-1.2-1.7-2-3-2.4
	 M204.6,72c-1.2,0.6-2.3,1.5-2.9,2.8c-0.1,0.2-0.2,0.3-0.2,0.5c-0.4,1-0.6,2.1-0.7,3.2l-0.3,0.5c0,0.4,0,0.8-0.2,1.2
	c0,0.5-0.1,1-0.2,1.5c0,0.6-0.1,1.1-0.2,1.7c0,0.6-0.1,1.2-0.3,1.8c0,0.2,0,0.4,0,0.5c0.1,0.2,0.2,0.4,0.3,0.6l0.3,0.1
	c0-0.2,0-0.4,0-0.6l0.2-0.4l0.4-0.2c0.1-0.2,0.2-0.5,0.2-0.8c0-0.7,0-1.3,0-2l-0.3-0.3c0-0.2,0.1-0.5,0.1-0.6
	c0.1,0.2,0.2,0.5,0.4,0.7l0.3,0.6l0.1-0.6c0.1-0.3,0.2-0.6,0.2-0.8c0.2-0.7,0.3-1.4,0.5-2.1s0.3-1.7,0.6-2.5
	c0.2-0.5,0.3-1.1,0.4-1.6l0.3,0.1c0.1,0.7,0,1.4-0.2,2.1l0.3-0.1c0.1-0.3,0.4-0.6,0.7-0.9c-0.3,1.2-0.8,2.4-1.3,3.5
	c0,0.1,0,0.4,0,0.5h-0.2c0,0.2,0,0.4-0.1,0.7c-0.2,0.5-0.2,1.1-0.2,1.6c0.3-0.5,0.7-0.9,1.1-1.3c0,0.5-0.2,0.9-0.5,1.3
	c-0.6,0.6-1,1.3-1.4,2.1c-0.1,0.3-0.3,0.6-0.4,0.8c0,0.4,0,0.7,0,1.1c0.1,0.2,0.3,0.3,0.4,0.5c-0.3,0.4-0.6,0.7-1,1
	c-0.2,0.5-0.3,1.1-0.2,1.7c0.8-1.1,1.6-2.1,2.4-3.2c0.4-0.4,0.7-0.9,0.8-1.4l-0.9,0.5c-0.2,0.2-0.4,0.4-0.5,0.6H202
	c0.7-0.8,1.6-1.5,2.6-2c0.2-0.7,0.5-1.3,0.8-1.9c0.2-2.3,0-4.7,0.1-7c-0.2-1-0.2-2-0.2-3l-0.3-0.6l-0.4,0.3 M136.1,72
	c-0.1,0.4-0.1,0.8-0.1,1.2c0,10.5,0,21,0,31.4c0,0.4,0,0.7,0.1,1.1l1-0.2c0-3.1,0-6.3,0-9.4l0.4-0.2c0.3-0.7,0.3-1.5,0-2.2
	c0-1.4,0-2.8,0-4.3c0.2-0.6,0.3-1.1,0.2-1.7c0-5.2,0-10.5,0-15.7L136.1,72 M139.5,72.1l-0.3,0.4V96c1.8,0,3.7,0,5.5,0l-0.3-0.8
	l-0.4-0.8c-0.1-0.2-0.1-0.3-0.2-0.4c0.8-0.3,1.6-0.4,2.3-0.8c0.7,0,1.3,0.2,1.9,0.5l0.8,0.1c-0.2,0.8-0.4,1.5-0.7,2.3
	c1.9,0,3.8,0,5.8,0c0-7,0-14,0-20.9c0-1,0-2-0.1-3h-1.4c0,6.8,0,13.5,0,20.2c-1,0-2.1,0-3.1,0l-0.5-0.4c0-2.2,0-4.4,0-6.6
	c0-0.3-0.1-0.7-0.1-1h-1.2c0,2.7,0,5.4,0,8.1c-0.5,0-1,0-1.5,0c0-2.7,0-5.4,0-8.1h-1.3c0,2.7,0,5.4,0,8.1H141c0-6.3,0-12.7,0-19
	c0-0.5-0.1-0.9-0.2-1.3L139.5,72.1 M144.5,72.1c0,0.7,0,1.4,0,2.1h1.3c0-0.7,0-1.4,0-2.1l-0.7-0.3L144.5,72.1 M147.3,71.8
	c0,0.8,0,1.6,0,2.4c0.4,0,0.9,0,1.3,0c0-0.8,0-1.6-0.1-2.3L147.3,71.8 M155.6,95.3c0,0.7,0.7,1.2,0.6,1.9c0,2.8,0,5.7,0,8.6h0.8
	c0-11.2,0-22.5,0-33.7h-1.5C155.6,79.8,155.6,87.5,155.6,95.3 M89.8,73.5c0.4,1.2,1.1,2.3,1.5,3.6c0,0.4,0.1,0.9,0.2,1.3
	c0,0.6,0,1.3,0.2,1.9c0,0.4,0,0.8,0.1,1.2c0.4-0.4,0.6-0.8,0.8-1.3c0.1-1.2,0.2-2.7-0.7-3.6c-0.5-0.8-0.7-1.7-1.2-2.6
	C90.5,73.6,90.1,73.6,89.8,73.5 M199.9,74.6c0,0.1,0,0.3-0.1,0.4c-0.7,0.5-1.2,1.2-1.5,2c0,0.1-0.1,0.3-0.1,0.4
	c-0.3,0.6-0.4,1.2-0.4,1.9c-0.4,1-0.1,2.1,0.6,2.7c0-0.9,0.1-1.7,0.3-2.5c0.1-0.4,0.3-0.8,0.4-1.1s0.1-0.5,0.2-0.8s0-0.4,0-0.6
	l0.7-0.8c0.1-0.6,0.1-1.1,0.1-1.7L199.9,74.6 M144.4,76c0,0.8,0,1.6,0,2.3h1.3c0-0.8,0-1.7,0-2.5C145.3,75.8,144.9,75.9,144.4,76
	 M147.3,76.2v2.2h0.7l0.6-0.4c0-0.6,0-1.2,0-1.7L147.3,76.2 M111.3,76.5c0,1.3,0,2.6,0,3.9c-0.1,0.4,0.4,0.5,0.7,0.5
	c0-0.1,0.2-0.4,0.2-0.5c0-1.1,0-2.2,0-3.4C111.9,76.9,111.6,76.7,111.3,76.5 M181.4,76.5c0,1.2,0,2.3,0,3.5c0,0.3,0.3,0.6,0.5,0.9
	h0.4c0-1.1,0-2.1,0-3.2C182.3,77.1,181.9,76.6,181.4,76.5 M108.7,77.7c-0.1,0.3-0.2,0.6-0.3,0.9c0.2,0.5,0.4,0.9,0.7,1.3h0.4
	c0.5-0.5,1.1-1.1,1-1.8c-0.3-0.2-0.5-0.5-0.8-0.7L108.7,77.7 M182.6,78.8c0.4,0.2,0.7,0.4,0.9,0.7c0.4,0.2,1,0.1,1.3-0.2
	c0.1-0.2,0.2-0.4,0.3-0.6c-0.3-0.6-0.8-1.1-1.5-1.3C183.1,77.7,182.8,78.2,182.6,78.8 M144.4,80.1c0,0.7,0,1.4,0,2.2h1.3v-2.2
	L144.4,80.1 M147.3,80.1v2.2h1.1c0-0.1,0.2-0.3,0.2-0.5c0-0.6,0-1.1,0-1.7L147.3,80.1 M92.5,81.6l-0.3,0.3l0.1,0.1l-0.1,0.1
	c-0.1,0.2-0.1,0.4-0.2,0.6l-0.2-0.1c-0.2,0.6-0.3,1.2-0.3,1.8c0,0.4,0.3,0.7,0.5,1.1C92.7,84.3,92.8,82.9,92.5,81.6 M197.7,82.4
	c-0.1,1,0,2,0.2,2.9c0,0.2,0,0.4,0.1,0.6s0.2,0.4,0.2,0.5l0.3-0.1c0.1-0.9,0.1-1.8-0.1-2.7l-0.1-0.6c-0.1-0.2-0.3-0.4-0.4-0.5
	L197.7,82.4 M86.9,84.9c0.2,1,0.6,1.9,1.3,2.6c0.5,0.7,0.9,1.6,1.8,1.8c-0.1-0.9-0.5-1.8-1.1-2.5C88.4,86.1,87.7,85.5,86.9,84.9
	 M94.9,87.4c-0.1,0.5-0.1,1.1,0,1.6l0.7-0.7c0.2-0.1,0.5-0.2,0.7-0.3c0.2,0.5,0.5,1,0.7,1.5c0,0.5-0.3,1-0.1,1.4
	c0,0.1,0.1,0.3,0.1,0.4c0.2,0.4,0.5,0.8,0.7,1.2c0.3-1.6,0.1-3.2-0.6-4.7c-0.3-0.8-0.9-1.4-1.6-1.8C95.3,86.4,95.1,86.9,94.9,87.4
	 M109.4,86.6c0,5.6,0,11.2,0,16.8c0,0.3,0,0.7,0.2,1l0.1,0.6l0.4,0.8h1.8c0-0.1,0.1-0.3,0.1-0.4c0-2.2,0-4.4,0-6.6
	c0-0.8,0-1.6,0-2.3c0-1.9,0-3.7,0-5.6c0-1.4,0-2.9,0-4.3c-0.6-0.1-1.1-0.2-1.6-0.3L109.4,86.6 M107.4,86.5c0,4.6,0,9.1,0,13.7
	c0,0.3,0.1,0.7,0.2,1c0.2,0.2,0.4,0.4,0.6,0.6c0.1-2.5,0-5.1,0-7.6c0.1-2.5,0-5.1,0-7.7L107.4,86.5 M114.5,86.6c0,6.4,0,12.8,0,19.2
	l1.1,0.1c0-6.4,0-12.9,0-19.3C115.3,86.5,114.9,86.5,114.5,86.6 M178.2,86.6c-0.2,0.3-0.3,0.7-0.4,1.1v11.5c0,2,0,4,0,6.1l0.9,0.6
	c0.1-6.3,0-12.6,0-18.9l-0.2-0.4L178.2,86.6 M181.7,86.5c0,5.7-0.1,11.3,0,17l1.1-1.2c0.6-0.6,1-1.3,1.2-2.1c0-4.6,0-9.1,0-13.7
	C183.2,86.4,182.4,86.4,181.7,86.5 M185.2,86.5c-0.1,0.9-0.2,1.8-0.1,2.6v6.4c0,1,0,2-0.1,3c0.2,0.3,0.4,0.5,0.6,0.8h0.6
	c0-4.3,0-8.5,0-12.8C185.8,86.5,185.5,86.5,185.2,86.5 M194.4,86.7c-0.6,0.9-1.2,1.8-1.9,2.7c-0.1,0.8-0.1,1.6-0.1,2.4l0.6,0.6
	c0.3-0.6,0.4-1.3,0.1-1.9c0-0.4,0-0.7,0-1.1c0.8,0.2,1.7,0.3,2.5,0.2c-0.2-0.6-0.3-1.1-0.4-1.7c-0.1-0.3-0.1-0.5-0.2-0.8
	c0-0.1,0-0.4-0.1-0.5L194.4,86.7 M121.7,87.7v-0.1h-1.6c0,5.9,0,11.8,0,17.7c0,0.8,1,0.6,1.5,0.6v-0.1c0.7,0.3,1.5,0.4,2.3,0.2h-0.2
	c0.1-6.2,0-12.4,0-18.6h-1.5v-0.1L121.7,87.7 M124.7,87.3c0,6.2,0,12.3,0,18.5h1.2c0.1-0.7,0.1-1.3,0.1-2c0-5.5,0-11,0-16.5
	L124.7,87.3 M131.3,87.3c0,6.2,0,12.3,0,18.5h1.2c0.1-6.2,0-12.3,0-18.5H131.3 M161.5,87.3l-0.5,0.3c0,6.1,0,12.1,0,18.2h1.2
	c0-1.3,0.1-2.6,0.1-3.9c0-0.8,0-1.5,0-2.3c-0.2-2.6,0.1-5.3-0.1-7.9c0.1-1.4,0.1-2.9-0.1-4.3L161.5,87.3 M163.1,87.4
	c0,6.1,0,12.2,0,18.2l0.4,0.2h0.9c0-6.2,0-12.3,0-18.5L163.1,87.4 M166.8,88.1c0,5.9,0,11.8,0,17.7l0.6,0.1h1.3c0-6.2,0-12.3,0-18.5
	c-0.4,0-0.9,0-1.3,0C167.2,87.6,166.8,87.7,166.8,88.1 M169.7,87.9c0,6,0,12,0,18h1.2c0-0.7,0-1.4,0-2.2c0-1.2,0-2.3,0-3.5v-1
	c0-3.6-0.1-7.2,0.1-10.8c-0.1-0.3-0.1-0.7-0.2-1C170.4,87.4,169.6,87.3,169.7,87.9 M171.8,87.4c0,6.2,0,12.3,0,18.5
	c0.4,0,0.9,0,1.3-0.1c0-6.1,0-12.3,0-18.4L171.8,87.4 M174.9,87.7c0,6.1,0,12.2,0,18.2h1.4c0.1-0.7,0.1-1.5,0.1-2.2v-16l-0.2-0.5
	c-0.4,0-0.9,0.1-1.3,0.3 M126.9,87.3c0,6.1,0,12.2,0,18.3c0.3,0.3,0.9,0.1,1.3,0.1c0-6.2,0-12.3,0-18.5L126.9,87.3 M165.3,87.6
	c0,6,0,12.1,0,18.2h1.3c0-5.9,0-11.9,0-17.8c0.1-0.6-0.5-0.7-0.9-0.7L165.3,87.6 M117.2,95.9c0,3.3,0,6.6,0,9.9c0.4,0,0.8,0,1.2,0
	c0-6.1,0-12.2,0-18.3h-1.2C117.2,90.3,117.2,93.1,117.2,95.9 M129.1,89.9v15.5c0,0.7,0.9,0.3,1.3,0.4c0-6.1,0-12.2,0-18.3h-1.3
	C129,88.3,129.1,89.1,129.1,89.9 M91.4,87.9c0,0.6,0,1.2,0,1.8c0,0.6,0.2,1.1,0.5,1.6l0.4,0.1c-0.1-0.4-0.2-0.7-0.3-1.1
	c0.5-0.1,1,0.1,1.4,0.5c0,0.1,0,0.4,0.1,0.5l0.5,0.1l0.4-0.3c0.2,0.8,0.4,1.5,0.5,2.3c0,0.4,0,0.7,0.1,1.1h0.4c0-0.2,0-0.5,0-0.7
	s0.2-0.4,0.3-0.6l0.5,0.1c-0.1,1.2-0.1,2.4,0.2,3.6c0.2-0.4,0.4-0.9,0.6-1.3c0-0.6,0-1.2,0-1.8c-0.3-0.7-0.6-1.3-0.9-2l-0.5-1
	C94.3,89.5,93,88.5,91.4,87.9 M198.2,88.9c-1.4,0.8-2.6,1.9-3.5,3.1l-0.4,0.6c-0.3,0.5-0.6,1.1-0.8,1.7c0,0.6,0,1.2,0,1.8
	c0.1,0.4,0.3,0.8,0.4,1.2l0.3,0.1c0-0.4,0-0.8,0.1-1.2c0-0.4,0.1-0.8,0.3-1.2l0.5,0.6c0.2-0.8,0.3-1.5,0.5-2.3
	c0.1-0.4,0.1-0.8,0.3-1.1c0-0.2,0.1-0.5,0.1-0.6l0.7,0.3c0.3-0.7,0.7-1.4,1.1-2L198,90c0.1,0.4,0.2,0.7,0.3,1.1h0.4
	c0-0.9,0.1-1.8,0.3-2.6C198.7,88.6,198.4,88.7,198.2,88.9 M86.9,91.2c0,0.6,0,1.2,0,1.8c0.1,0.4,0.2,0.8,0.2,1.2
	c0.1,0.4,0.2,0.7,0.2,1.1l0.4,1.1c0.1,0.4,0.2,0.8,0.4,1.2c0.4,1.1,0.9,2.1,1.5,3.1l0.6,1c0.8,1.4,2,2.5,3.5,3.1l0.5,0.2
	c0-0.5,0-1,0-1.5l-0.7-0.7h-0.5c-0.8-0.5-1.6-1.1-2.2-1.8c0.2,0,0.4,0.1,0.7,0.2c0.9,0.3,1.8,0.7,2.8,1c-0.1-0.2-0.1-0.5-0.4-0.7
	c-1.2-0.8-2.2-1.9-3-3.1c-0.7-1.1-1.4-2.3-1.9-3.5c-0.2-0.5-0.4-1-0.5-1.5l0.4-0.1c0.3,0.7,0.8,1.5,1.2,2.2l0.3,0.9h0.3
	c0.1-0.4,0.4-0.8,0.6-1.1c0.1,0.4,0.1,0.8,0.2,1.2s0.2,0.5,0.3,0.8s0,0.4,0,0.6c0.3,0.5,0.6,1,1,1.4h0.4c0-0.6,0-1.1,0.1-1.7
	c0.2,0.7,0.4,1.5,0.6,2.2c0.2,0.4,0.6,0.8,1,1.1c0.1-0.3,0.2-0.6,0.2-0.9c0.1-0.8,0-1.6-0.1-2.3c0-0.1-0.1-0.3-0.1-0.4
	c-0.5-1-1.1-1.9-1.6-2.9C92.1,92.6,90,92,88,91.2L86.9,91.2 M202.8,92.1c-1,0-2,0.2-2.9,0.5c-1.3,0.9-2.4,2-3.3,3.2
	c-0.7,0.7-1.2,1.5-1.6,2.4c0,0.3-0.1,0.6-0.2,0.9c0,0.4,0,0.9,0,1.3c0.1,0.3,0.2,0.7,0.2,1.1h0.4c0.1-0.3,0.2-0.5,0.4-0.8
	s0.2-0.4,0.2-0.6c0-0.8,0.2-1.5,0.6-2.2c0.1,0.6,0.1,1.3,0.1,1.9h0.4c0.3-0.5,0.6-0.9,0.9-1.4c0-0.1,0.1-0.3,0.1-0.4
	c0.1-0.3,0.2-0.7,0.2-1c0.2-0.8,0.4-1.5,0.8-2.2c0.5,0.5,0,1.2,0,1.8c-0.1,0.3-0.1,0.5-0.2,0.8h0.4c0.3-0.6,0.6-1.2,1-1.8
	c0.3-0.7,0.7-1.3,1.2-1.8c0,0.4-0.1,0.9-0.3,1.2l-0.1,0.4c-0.5,1.4-1.2,2.7-2,3.9c-0.4,0.6-0.9,1-1.2,1.5c-0.5,0.7-1.3,1.2-1.6,2
	c0.8,0.1,1.4-0.6,2.1-0.9h0.8c0,0.1,0,0.2,0,0.3l-0.7,0.3c-0.2,0.1-0.4,0.3-0.6,0.4c-0.8,0.3-1.5,0.8-2.1,1.5c0,0.3,0,0.7,0.1,1
	c0.7-0.3,1.3-0.7,1.8-1.1c0.8-0.6,1.4-1.2,2.1-1.9c0.3-0.4,0.6-0.8,0.9-1.3s0.4-0.7,0.6-1l0.4-0.7h0.1c0-0.1,0-0.3,0-0.5
	c0.3-0.7,0.6-1.4,0.8-2.1l0.2-0.6c0-0.4,0.1-0.8,0.2-1.2c0-1,0.3-2,0.3-3.1l-0.5,0.2 M98.2,95.3c-0.6,0.8-1,1.6-1.3,2.5
	c-0.1,0.3-0.1,0.5-0.2,0.8c-0.2,0.7-0.3,1.4-0.4,2.2l-0.2,0.4l-0.2,0.9c-0.1,0.3-0.2,0.6-0.3,0.9c0,1.5,0,3,0,4.5l0.3,0.7
	c0,0.1,0.1,0.4,0.1,0.5h0.4c0-0.4,0.1-0.7,0.2-1.1c0.2-1.1,0.4-2.3,0.5-3.5c0.2-0.5,0.2-0.9,0.2-1.4c0.1-0.3,0.2-0.6,0.2-1
	c0.2-0.7,0.5-1.4,0.8-2.1c0.5-1.3,1.1-2.5,1.6-3.8c0-0.3,0-0.5,0-0.8c-0.2-0.4-0.1-1.2-0.8-1.1c-0.3,0.4-0.7,0.7-1,1.1 M190.1,96
	c0.2,0.8,0.4,1.5,0.7,2.3c0.6,1.1,1.1,2.2,1.5,3.3c0.1,0.2,0.1,0.4,0.2,0.6l0.1,0.4c0.2,0.6,0.3,1.2,0.4,1.9c0.1,1.5,0.2,3,0.1,4.6
	l0.7,0.1c0-0.1,0-0.3,0-0.3l0.6-0.7c0.3-1.2,0.3-2.5,0-3.7c-0.1-0.4-0.2-0.8-0.2-1.2c-0.1-0.4-0.2-0.7-0.3-1.1s-0.1-0.7-0.1-1
	l-0.2-0.5c0-0.3-0.1-0.6-0.2-0.8c-0.1-0.7-0.4-1.3-0.6-1.9c-0.1-0.2-0.1-0.4-0.2-0.6s-0.2-0.6-0.3-0.8c-0.2-0.4-0.4-0.8-0.6-1.3
	s-0.2-0.7-0.4-1C190.6,94.4,190.4,95.3,190.1,96 M100.8,96.5c-0.5,1.2-1,2.3-1.6,3.5c0,0.2-0.1,0.4-0.2,0.6
	c-0.1,0.2-0.2,0.4-0.3,0.6l-0.1,0.4c-0.1,0.3-0.2,0.5-0.2,0.8c-0.2,0.8-0.3,1.7-0.4,2.5c-0.3,1.4-0.3,2.9,0.2,4.2
	c0.2-0.2,0.5-0.5,0.7-0.7c0-0.5,0-1,0-1.4c0.2-0.5,0.3-1,0.2-1.5c0.1-0.3,0.2-0.6,0.2-0.8c0.2-0.7,0.3-1.4,0.6-2
	c0.2-0.5,0.4-1,0.5-1.6c0.2-0.6,0.5-1.3,0.8-2c0.2-0.4,0.3-0.7,0.5-1.1c-0.2-0.5-0.4-1-0.6-1.5L100.8,96.5 M138.1,96.8
	c0,0.7,0,1.4,0,2.1c-0.2,2.5,0.1,5,0,7.4h17c0-3.2,0-6.3,0-9.5c-1.4-0.1-2.8-0.1-4.2,0c-1.3-0.2-2.6,0.1-3.8-0.1
	c-1,0.1-2.1,0.1-3.1,0c-1.5,0.1-3,0.1-4.4,0.1L138.1,96.8 M188.6,97.8c-0.2,0.9,0,1.9,0.5,2.7c0.6,1.3,1,2.6,1.3,4
	c0.1,0.3,0.1,0.6,0.2,0.8c0,0.5,0.1,0.9,0.2,1.3c0,1,0,1.9,0,2.9c0.3-0.1,0.6-0.3,0.9-0.4c0.1-0.3,0.1-0.6,0.2-0.9l-0.4-0.5
	c0.1-1.4,0-2.8-0.1-4.1c-0.1-0.4-0.1-0.7-0.2-1.1c-0.1-0.5-0.3-0.9-0.4-1.4c0-0.1-0.1-0.3-0.1-0.4s-0.2-0.4-0.2-0.6
	c-0.2-0.7-0.5-1.4-0.8-2.1c-0.2-0.3-0.5-0.6-0.8-0.8C188.8,97.1,188.7,97.5,188.6,97.8 M102.5,99.8l-0.5,0.1
	c-0.4,0.8-0.8,1.5-1.1,2.3c-0.1,0.2-0.2,0.4-0.2,0.7c-0.1,0.2,0,0.3,0,0.5h-0.2v0.7c-0.2,0.4-0.2,0.9-0.2,1.3
	c-0.2,0.8-0.2,1.5-0.2,2.3c-0.2,0.5-0.2,1.1-0.2,1.7l0.8,0.5c0.1-0.7,0.2-1.4,0.3-2.1c0.1-0.3,0.2-0.5,0.2-0.8
	c0.1-0.5,0.2-0.9,0.4-1.4c0.1-0.6,0.2-1.3,0.4-1.9V103c0.4-0.8,0.7-1.7,1-2.6c0.1-0.4-0.2-0.8-0.3-1.2
	C102.7,99.4,102.6,99.6,102.5,99.8 M104,100.1c-0.3,0.5-0.5,1.1-0.6,1.7c-0.1,1.3,0,2.6,0.2,3.9c0.4,0.1,0.8,0.1,1.2,0l-0.4-0.8
	c-0.1-0.3-0.2-0.5-0.3-0.8c0.3-0.4,0.5-0.7,0.8-1.1l0.3,0.4h0.4l0.5-0.6h0.3c0,0.7,0,1.3,0,2c0.4,0.4,0.8,0.9,1.3,1.2
	c0.1-0.5,0.1-0.9-0.1-1.4c-0.2-0.7-0.5-1.5-0.9-2.1c-0.2-0.3-0.4-0.5-0.6-0.8c-0.6-0.6-1.2-1.2-1.8-1.8L104,100.1 M187.2,100.2
	c-0.2,0.3-0.4,0.5-0.6,0.8c-0.3,0-0.5-0.4-0.4-0.6c-0.3,0-0.5,0.1-0.7,0.2c-0.9,1.2-1.9,2.4-2.7,3.7c-0.2,0.3-0.3,0.7-0.5,1
	c0.4,0.4,0.8,0.7,1.3,0.9c0-0.6,0-1.3,0.2-1.9c0-0.3,0-0.6,0.1-0.9c0.2,0.2,0.3,0.5,0.5,0.7c0.3-0.3,0.5-0.6,0.8-1
	c0.2,0.3,0.4,0.6,0.7,0.9c-0.1,0.5-0.2,1.1-0.3,1.6c-0.1,0.1-0.2,0.3-0.3,0.4c0.2,0.3,0.5,0.5,0.8,0.7c0.1-0.2,0.1-0.4,0.1-0.6
	l0.6-0.3c0.1-1.5-0.4-2.9-0.2-4.3l0.5,0.1c0.1,0.2,0.1,0.5,0.2,0.7c0.4,0.8,0.7,1.6,1,2.5c0.4,1,0.8,2,1,3c0,0.5,0,1,0.2,1.5
	c0,0.3,0.1,0.7,0.1,1c0.3-0.5,0.4-1.1,0.4-1.6c0.3-0.5,0.3-1.2,0-1.8c0-0.6,0-1.1-0.2-1.7c-0.1-0.4-0.1-0.8-0.2-1.1
	s-0.2-0.8-0.3-1.2c-0.3-1.1-0.9-2.1-1.6-3L187.2,100.2 M104.7,107.2c-0.3,0.6-0.5,1.3-0.4,2c0.3,0.8,0.4,1.6,0.7,2.3l-1.3,0.8
	c0,0.3,0,0.5,0,0.8c0.6,0.9,1.1,1.8,1.5,2.7c0,0.5,0,1,0.1,1.5c0.6,0.1,1.3,0,1.9-0.2c-0.2-0.3-0.3-0.5-0.5-0.8h0.4
	c0.6,0.3,1.2,0.5,1.8,0.8h0.5c0-0.1,0-0.2,0-0.3l-0.7-0.4l-0.6-0.3v-0.4h0.5c0.4,0.2,0.9,0.3,1.3,0.4l-0.1-0.3c-0.5-0.3-1-0.6-1.4-1
	c0-0.2,0-0.4,0.1-0.6c-0.2-0.3-0.5-0.5-0.7-0.7l-0.6-0.5c-0.1-0.2-0.2-0.4-0.3-0.7l0.5-0.4l-0.3-0.3c0-0.1,0-0.3,0-0.4
	c-0.3-0.5-0.5-1.1-0.7-1.8c0.3,0.2,0.6,0.3,0.8,0.5s0.7,0.6,1.1,0.9c0-0.5,0-1,0-1.6c0.4,0.5,0.7,1.1,0.8,1.7c0,0.3,0.1,0.7,0.1,1
	c0.2,0.5,0.4,1.3,1.1,1.3c-0.1-0.3-0.2-0.5-0.3-0.8c0-0.4,0-0.8,0-1.2h0.3c0.2,0.7,0.5,1.4,0.9,2.1c0,0.1,0,0.3,0,0.4
	c0.2,0.4,0.5,0.8,0.7,1.2c0.2-0.9-0.3-1.7-0.5-2.6l-0.1-0.6c-0.1-0.2-0.2-0.5-0.3-0.7h0.4c0.3,0.4,0.6,0.8,0.8,1.2
	c0,0.3,0.1,0.6,0.1,0.9c0.2,0.7,0.4,1.3,0.7,1.9c-0.2,0.2,0.2,0.4,0.4,0.3c0.1-0.6,0-1.1-0.2-1.7l-0.1-0.3c-0.1-0.4-0.2-0.9-0.3-1.3
	h0.4c0.3,0.6,0.6,1.2,0.9,1.9h0.3c0.3-0.3,0.6-0.6,0.8-0.9c-0.1-0.3-0.2-0.6-0.4-0.9l-0.1-0.4c-0.1-0.3-0.2-0.7-0.2-1
	c-0.1-0.2-0.2-0.4-0.2-0.6c-0.7-0.3-1.5-0.3-2.2-0.2l-0.5-0.6v-0.7l-0.7-0.7c-0.4,0-0.8,0-1.2,0.1c-0.7,0.3-1.3-0.3-1.9-0.5
	l-0.9-0.5C106.2,106.7,105.4,106.8,104.7,107.2 M116.1,107.6c-0.5,1-0.7,2.1-0.5,3.2c0.3,1,1,1.8,1.2,2.8c-0.4,0.3-0.8,0.6-1.2,0.9
	c-0.1,0.4,0.2,0.9,0.6,1.1c1,0.7,2,1.2,3,1.8c0.4,0.3,0.7,0.6,0.9,1c-0.1,0.3-0.2,0.7-0.2,1c1.2,0.8,2.4,1.4,3.8,1.7
	c0.3,0.1,0.5,0.1,0.8,0.2c0.6,0.1,1.3,0.2,1.9,0.3l-0.3-0.4l-1.9-1l-0.4-0.1c-0.9-0.4-1.7-0.8-2.6-1.1c0.2-0.4,0.7-0.5,1.1-0.5
	c0-0.1-0.1-0.2-0.1-0.3l-0.4-0.1c-0.5-0.4-1.1-0.7-1.6-1l-0.6-0.4l-0.6-0.4l-1.1-0.7l0.1-0.4h0.4c0.9,0.6,1.7,1.1,2.6,1.6
	c0.2,0.1,0.5,0.2,0.8,0.2c-0.7-0.7-1.5-1.2-2.2-1.9c-0.4-0.2-0.8-0.6-1-1l1-0.2c-0.5-0.3-0.8-0.8-1.1-1.3c-0.6-0.5-1.1-1.1-1.6-1.6
	c0.3,0,0.7,0.1,1,0.2l0.1-0.4h-0.2c-0.2-0.4-0.4-0.9-0.7-1.3l0.7,0.1c0.4,0.3,0.7,0.6,1,1c0.3,0.5,0.6,1,0.9,1.6l0.4-0.3
	c0.4,0.2,0.7,0.7,0.8,1.1c0.1,0.5,0.3,1,0.5,1.5l0.4-0.1v-0.5l0.4,0.1c0.1,0.6,0.3,1.1,0.6,1.7h0.4c0-0.3,0-0.6-0.1-0.8
	c-0.2-0.4-0.2-0.9-0.2-1.3h0.4c0.4,0.9,0.7,1.9,0.9,2.9h0.1v0.8h0.4c-0.1-0.2-0.2-0.4-0.2-0.6c-0.1-0.4-0.2-0.9-0.3-1.3
	c0.5,0.4,1.1,0.7,1.7,0.8l0.4,0.4c0.1,0.7,0.3,1.3,0.5,2c0.1,0.2,0.1,0.4,0.2,0.7l0,0c0.2,0.4,0.5,0.8,0.9,1.1
	c-0.2-0.9-0.4-1.7-0.7-2.5l0.3,0.1c0.3,0.7,0.6,1.4,1,2c0.1,0.2,0.3,0.4,0.4,0.7c0.5,0.4,1.2,0.7,1.9,0.8c-0.1-0.4-0.2-0.7-0.3-1.1
	c-0.2-0.6-0.6-1.2-0.8-1.9c-0.7-1.7-1.6-3.3-2.7-4.7h-0.7c-0.3,0.4-0.6,0.8-1,1.2c-0.4-0.6-0.8-1.2-1.1-1.8c-0.4-1.2-1.1-2.2-2-3.1
	h-0.7c-0.3,0.2-0.6,0.5-1,0.6c-1-1-1.9-2.1-2.9-3.2c-0.6-0.1-1.2,0-1.8,0.3 M184.4,107.3c-0.5,0-1.1,0.1-1.5,0.4h-0.4
	c-0.2,0.2-0.5,0.4-0.7,0.6c-0.4,0.2-0.8,0.3-1.2,0.3c-0.2-0.2-0.5-0.5-0.7-0.7c-0.9,0.7-1.6,1.7-2.5,2.4c-0.3-0.2-0.7-0.4-1.1-0.4
	c-0.6,0.6-1.1,1.2-1.4,2c-0.2,0.8-0.1,1.5,0.2,2.2h0.6c0.2-0.4,0.5-0.8,0.7-1.2l0.4,0.1l-0.1,0.6c-0.1,0.3-0.2,0.5-0.2,0.8
	c-0.1,0.3-0.1,0.6-0.2,0.8h0.4c0.1-0.2,0.3-0.5,0.5-0.7c0-0.1,0.1-0.3,0.1-0.4s0.2-0.3,0.2-0.4c0.2-0.2,0.4-0.5,0.5-0.8
	c0.1,0.2,0.2,0.3,0.3,0.5c-0.2,0.5-0.2,1.1-0.1,1.6c0.5-0.6,0.8-1.3,1.1-2c0.2-0.6,0.4-1.2,0.6-1.9h0.3c0,0.4,0,0.7-0.1,1.1
	c-0.2,0.4-0.2,0.8-0.1,1.2c0.2-0.4,0.4-0.9,0.6-1.4c0.1-0.3,0.2-0.6,0.3-0.8l0.2-0.4c0.1-0.3,0.3-0.7,0.4-1c0.1,0.4,0.2,0.8,0.3,1.2
	c0.7-0.5,1.4-1.1,2.1-1.7c-0.3,0.8-0.6,1.5-1,2.3c0,0.4,0,0.8-0.1,1.2c-0.5,0.5-1.1,1-1.7,1.4v0.4l0.6-0.4v0.2
	c0.1-0.1,0.1-0.2,0.2-0.3l0.8-0.4c0.2-0.1,0.5-0.2,0.7-0.2c0,0.2-0.1,0.4-0.1,0.6c-0.6,0.3-1.1,0.7-1.6,1c-0.8,0.3-1.5,0.8-2,1.5
	l0.6-0.2l0.4-0.1l0.9-0.5h0.4v0.3l-1.2,0.7h-0.5c0,0.2,0,0.4,0,0.6c0.7-0.2,1.3-0.4,2-0.6c0,0.2,0.1,0.6,0.2,0.8v-0.2
	c0.1,0.5,0.6,0.6,1,0.7c0.3-0.3,0.6-0.6,0.8-0.8c0-0.3-0.1-0.7-0.2-1c0-0.2,0.1-0.4,0.2-0.7c0.2-0.4,0.5-0.8,0.8-1.2l0.1-0.3
	c0.3-0.2,0.5-0.5,0.8-0.8c-0.1-0.2-0.2-0.5-0.3-0.7c-0.3-0.3-0.5-0.6-0.8-1c-0.1-0.6,0-1.2,0.2-1.8c0-0.5,0-1,0-1.5
	c-0.3-0.4-0.5-1-1.1-1 M172,107.7c-1.4,0.8-2.1,2.4-3.3,3.3c-0.1-0.3-0.3-0.5-0.5-0.8c-0.3-0.1-0.5-0.1-0.8-0.1
	c-0.4,0.4-0.8,0.9-1.1,1.3c-0.3,0.5-0.4,0.6-0.7,1c-0.3,0.6-0.6,1.2-0.9,1.8h-0.1c0,0.1,0,0.4,0,0.5c-0.4-0.3-0.8-0.6-1.2-1h-0.6
	c-1.5,1.5-2.2,3.6-3.3,5.3c-0.4,0.8-0.8,1.6-1.1,2.3h1.6l0.6-0.6l0.5-0.8c0.1-0.7,0.4-1.4,0.7-2c0,0.2,0.1,0.6,0.1,0.8h0.2
	c-0.1,0.6-0.4,1.1-0.6,1.7c0.3-0.3,0.7-0.6,1-0.9c0-0.3,0-0.5,0-0.8h0.2c0-0.1,0-0.4,0-0.5c0.2-0.4,0.3-0.8,0.4-1.1
	c0.7-0.5,1.1-1.4,2-1.5l0.1,0.6h0.6c0.2-0.8,0.4-1.6,0.8-2.4h0.3c0,0.7,0,1.5,0,2.2c0.3-0.6,0.5-1.3,0.8-1.9c0-0.3,0.2-0.6,0.5-0.7
	c0,0.5,0,1,0.1,1.5c0.4-0.8,0.7-1.6,1-2.3c0.1-0.4,0.3-0.7,0.4-1l0.1,1h0.3c0.7-0.9,1.5-1.8,2.1-2.8h0.4c-0.1,0.2-0.1,0.4-0.2,0.7
	c-0.1,0.3-0.2,0.6-0.3,0.8c0.4,0,0.9,0,1.3,0.1c-0.6,0.8-1.5,1.3-2.1,2c-0.4,0.2-0.8,0.6-1,1c0.5-0.1,1-0.3,1.6-0.3
	c-0.8,0.8-1.6,1.6-2.5,2.3c-0.6,0.4-1.1,1.1-1.3,1.8c-0.2,0.5-0.2,1,0.1,1.4c-1.2,0.8-2.5,1.5-3.9,2v0.3h1.9l0.9-0.3
	c1-0.3,1.9-0.9,2.8-1.2c0.3-0.5-0.1-1.1-0.1-1.7c0.6-0.4,1.3-0.8,2-1.1c0.8-0.3,1.5-0.7,2.3-1.2c0.1-0.3,0.3-0.6,0.2-1
	c-0.3-0.4-0.7-0.8-1.1-1.1c0-0.3,0.1-0.6,0.2-0.9l0.1-0.4c0.2-0.8,0.4-1.5,0.6-2.3c0.1-0.5,0.3-0.9,0.5-1.4
	c-0.3-0.7-0.8-1.3-1.5-1.7l-0.5,0.2h-0.4 M120,108.5v0.5h0.1v0.1l0.5,0.2c0.8-0.1,1.6,0,2.2,0.4c0.5,0.4,1,0.8,1.4,1.4
	c0.4,0.5,0.9,0.9,1.3,1.3c0.7,0.4,1.5,0.2,2.2,0.4l0.5,0.1c0.3,0.4,0.5,0.8,0.7,1.2c0.2,0.5,0.4,1,0.6,1.5c0.2,0.5,0.4,0.9,0.6,1.4
	c0.2,0.4,0.4,0.8,0.5,1.2c0.6,0.7,1.3,1.3,2.1,1.7c0.4,0.3,0.8,0.5,1.2,0.6c0.9,0.4,1.8,0.6,2.7,0.9l0.7,0.2
	c0.5,0.1,0.9,0.2,1.4,0.3c0.8,0.2,1.5,0.3,2.3,0.4c0.9,0.2,1.8,0.2,2.7,0.3c2.8,0.1,5.6,0,8.3-0.3c0.5,0,1-0.1,1.5-0.2
	c1.1-0.1,2.1-0.3,3.2-0.7c0.8-1.4,1.7-2.7,2.4-4.1c0.2-0.3,0.4-0.7,0.6-1c0.7-1.4,1.8-2.5,3.1-3.2h0.2c0.6-0.4,1.2-0.8,1.7-1.2
	c0.9-0.7,1.8-1.5,2.6-2.4l0.1-0.1l0.9-0.3l0.8,0.5c0.4-0.4,0.8-0.8,1.2-1.2c-16.7,0-33.4,0-50.1,0 M95.6,110.8
	c0.7,1.5,0.9,3.2,1.9,4.5c0.7,1.1,1.6,2.1,2.7,2.9l1,0.6c0.7,0.3,1.4,0.6,2.2,0.9c0.5,0,1-0.1,1.4-0.2c0-0.4,0-0.9,0-1.3
	c-1.5-0.4-3.2-0.5-4.7-0.9c0-0.1,0-0.3,0-0.4h0.9c0.6,0.2,1.2,0.3,1.8,0.1l-0.8-0.8c-0.6-0.2-1.3-0.5-1.9-0.7l-0.6-0.2l-0.6-0.5
	l-0.3-0.1c0.8-0.3,1.7-0.4,2.5-0.3c0-0.3-0.1-0.7-0.1-1l-0.2-0.2l0.4-0.1c0.3,0.7,0.7,1.4,1.1,2.1c0.4,0.5,0.9,0.8,1.4,1
	c0.1-0.9-0.1-1.8-0.5-2.5c-0.8-1.2-1.9-2.2-3.1-2.9c-0.5-0.1-0.9-0.3-1.4-0.5C97.5,110,96.4,110.2,95.6,110.8 M187.5,113.1
	c-0.6,0.9-1.5,1.6-1.4,2.8l0.3,0.8c0.3,0,0.7-0.2,0.8-0.4c0.5-0.9,0.9-1.8,1.2-2.8l0.4-0.3l0.3,0.3c0,0-0.1,0.1-0.1,0.2
	c-0.1,0.5-0.2,1.1-0.1,1.6l0.5-0.6c0.1-0.2,0.3-0.4,0.4-0.6c0.2-0.4,0.5-0.9,0.7-1.3l1.2-1.2l0.3,0.4l-0.3,0.1l0.1,0.5
	c0.3-0.1,0.7-0.2,1-0.2l-0.3,0.5c-0.7,0.3-1.1,1-1.8,1.4c-0.3,0.3-0.6,0.6-0.8,0.9h0.9v0.3c-1.3,0.6-2.6,1.4-4,1.9l0,0
	c-0.2,0-0.5,0.2-0.7,0.3c1.2,0.3,2.3-0.2,3.5-0.2l-0.6,0.6c-0.2,0.1-0.5,0.2-0.7,0.2s-0.6,0-1,0c-0.7,0.2-1.5,0.3-2.2,0.2l-0.6,0.6
	c0.2,0.4,0.4,0.8,0.6,1.2l0.8-0.2c0.5,0,0.9,0,1.4-0.2l0.4-0.1c0.7-0.2,1.4-0.6,1.9-1c0.5-0.5,1-1.1,1.6-1.6
	c0.4-0.7,0.8-1.4,1.3-2.1c0.5-1.2,1-2.5,1.5-3.7c-2.4-0.8-5-0.2-6.7,1.7 M111.9,116.4l-0.4,0.5c0,0.3,0,0.5,0,0.8l-0.6,0.4
	c-0.4,0-0.9,0-1.3,0.2c-0.7,0-1.4,0.1-2.1,0.3c-0.4,0.3-0.8,0.6-1.2,0.9c-0.1,0.6,0,1.1,0.3,1.6c0.7,1,1.8,1.7,2.5,2.8
	c-0.3,0.6-0.5,1.2-0.5,1.9c0.5,0.2,1,0.4,1.5,0.6c0.7,0.1,1.4,0.2,2.1,0.4l0.6,0.1l0.7,0.7c0,0.2,0,0.4,0,0.6c0.3,0.5,0.6,0.9,1,1.2
	c1,0.2,2.1,0.1,3-0.4c-0.6-0.8-0.8-1.9-0.7-2.9c-0.4,0-0.8,0.1-1.2,0.1c0-0.1,0-0.3,0-0.4c0.8-0.1,1.6-0.4,2.3-0.8h-0.3v-0.2h-1.2
	v-0.3h1l0.5-0.7c-0.3,0-0.7-0.1-1-0.1c-0.8-0.1-1.6-0.1-2.4,0.1l-0.8,0.1c-0.3,0.1-0.7,0.2-1,0.3s-0.7,0.1-1,0.1
	c0-0.1,0-0.2,0.1-0.3l0.6-0.3h0.7v-0.2c0.8-0.2,1.6-0.4,2.3-0.5c0-0.2,0-0.3,0-0.5c-1.3,0-2.6,0-3.9,0l0.6-0.5
	c0-0.1,0.1-0.2,0.1-0.3c-1.1,0-2.2,0-3.2,0v-0.3l0.4-0.1c0.3-0.1,0.6-0.3,0.9-0.4c-0.3-0.1-0.6-0.1-0.8-0.2
	c-0.3-0.2-0.5-0.3-0.8-0.5c0.7-0.1,1.5,0,2.2-0.1l-0.6-0.5l-0.6-0.4c1-0.3,1.7,0.7,2.5,1c0.5,0.3,1.1,0.1,1.5-0.3
	c0.8,0.3,1.6,0.8,2.3,1.3l0.5,0.3V121c-0.6-0.6-1.2-1.2-1.8-1.8c0.6,0.1,1.1,0.3,1.6,0.7c1,0.8,2,1.5,3.1,2.1c0-0.2,0.1-0.5,0.1-0.6
	h0.3c0.4,0.4,0.9,0.7,1.4,1.1h0.4c0.3-0.3,0.5-0.6,0.8-0.9l-0.8-0.3l-0.4-0.1c-0.5-0.2-0.9-0.5-1.4-0.8l-0.4-0.1
	c-0.4-0.5-0.7-1-1-1.6v-0.4c-0.2-0.2-0.4-0.3-0.7-0.4c-1.1-0.3-1.9-1.3-3.1-1.5c-0.8-0.1-1.5-0.2-2.3-0.1 M175.1,116.8
	c-1.2,0.8-2.9,1.1-3.7,2.5c-0.1,0.4-0.1,0.8-0.1,1.1l1.4-0.5c-0.1,0.4-0.4,0.7-0.6,0.9l-0.1,0.3l-1.1,1.1h0.5c0.5-0.5,1-0.9,1.5-1.3
	c0.6-0.4,1.2-0.8,1.8-1.3s1-0.8,1.5-1.1l0.3,0.3c-0.8,0.9-1.8,1.7-2.7,2.5l0.1,0.4l0.8-0.6c0.6-0.4,1.3-0.8,1.9-1.2l0.3,0.8
	c0.6-0.2,1.3-0.4,1.9-0.7c0.9,0,1.8,0.2,2.6,0.6c-0.4,0.2-0.7,0.4-1.1,0.6l-0.1,0.3l0.9,0.3c0,0.1,0,0.3,0,0.4
	c-1.2,0-2.4-0.1-3.6,0.1c0.4,0.1,0.8,0.2,1.1,0.3v0.5c-1-0.1-1.9-0.4-2.8-0.5c-0.2-0.1-0.4,0.1-0.7,0.2l-0.3,0.2l-0.3,0.3
	c0.4,0,0.8,0.1,1.1,0.2l0.6,0.1c0.3,0.1,0.7,0.2,1.1,0.2c0,0.1,0.1,0.3,0.1,0.4c-1,0.1-2,0-2.9-0.2c-0.9-0.1-1.7,0-2.6-0.1
	c0,0.1,0,0.2,0,0.3c0.8,0.2,1.7,0.4,2.6,0.5c0.3,0.1,0.5,0.2,0.8,0.2c0.5,0.1,1.1,0.1,1.2,0.7c-0.8,0-1.6-0.2-2.4-0.4h-0.6
	c-0.3,1-0.2,2.1-0.5,3.1c0,0.4,0,0.7,0,1.1c0.2,0.2,0.3,0.3,0.5,0.4c0.3,0,0.7,0.1,1,0.2c0.8,0.2,1.6-0.3,2-1
	c0.1-0.5,0.1-1.1,0.2-1.7c0.7-0.2,1.4-0.1,2.1-0.3c0.6,0,1.2-0.2,1.8-0.3c0.4-0.3,0.8-0.5,1.2-0.8c0-0.4,0-0.9,0-1.3
	c0.4-0.5,0.7-1.1,1-1.6l0.4-0.7c0.5-0.5,0.8-1.1,0.9-1.8c-0.2-0.3-0.3-0.6-0.4-0.8c-0.3-0.5-0.9-0.7-1.4-1c-0.8,0.1-1.6,0-2.4-0.2
	h-1.1c0-0.4,0-0.7,0-1.1l-0.3-0.4c-0.5,0-0.9-0.1-1.3-0.2c-0.6,0-1.2,0-1.7,0.1 M123.7,118.1l0.2,0.5c0.8,0.5,1.4,1.2,2.2,1.7
	c0-0.1,0.1-0.3,0.1-0.4c-0.7-0.5-1.4-1.1-2-1.8L123.7,118.1 M168.7,121.8l-0.8,0.3c0,0.1,0,0.3,0.1,0.4s0.3,0.2,0.5,0.2l1-0.2
	c0.7-0.5,1.6-1,1.5-2L168.7,121.8 M161.3,122.1c-1,0.7-2.4,1-3.1,2.1c0.7,0.1,1.4-0.1,2-0.4c0,0.2,0,0.3,0,0.4
	c-0.7,0.3-1.3,0.7-2,1.1c0.4,0.2,0.9,0.3,1.3,0.2c0.7-0.2,1.4-0.3,2.1-0.4l0.6-0.3c0.6-0.1,1.2-0.2,1.8-0.4c0.2,0.2,0.3,0.3,0.5,0.5
	c-0.3,0-0.6,0.1-1,0.2l-0.6,0.3c-0.7,0.2-1.5,0.4-2.2,0.5c0,0.1-0.1,0.2-0.1,0.3h0.6c0.6,0,1.3,0,1.9-0.2c0.7,0,1.3,0,2,0v0.3
	l-0.8,0.4c-0.2,0.1-0.4,0.2-0.6,0.2l-0.6,0.1l0.2,0.3c1.9,0.1,3.8,0,5.8,0c0,0.2,0,0.4,0,0.6c-1,0.1-2,0.2-3,0.1
	c0.6,0.4,1.3,0.7,2.1,0.8c0.3,0.1,0.6,0.3,0.9,0.4c-0.5,0.1-1.1,0.1-1.6,0.1c0,0.2,0,0.3,0,0.5c0.9,0.4,1.7,1,2.6,1.5
	c0,0.1,0,0.3,0,0.4c-0.6-0.3-1.2-0.5-1.7-0.7c-0.5,0-0.9,0-1.4-0.1l-0.8-0.4c-0.6-0.4-1.3-0.8-1.9-1.3c0,0.5,0,1,0.2,1.5
	c-0.8-0.5-1.5-1.2-2-2l-0.4-0.1c-0.3-0.2-0.7-0.4-1-0.6c0.1,0.4,0.2,0.7,0.3,1.1H161c-0.6-0.5-1.2-0.9-1.9-1.3
	c0.1,0.6,0.3,1.1,0.6,1.6c-0.4-0.2-0.9-0.5-1.4-0.6v0.9c0.2,0.3,0.5,0.7,0.8,1c0.3,0,0.7,0,1,0c1.4,0.3,2.7,1,3.9,1.9
	c0.3,0.1,0.6,0.2,1,0.3l0.6-0.7c0.3,0,0.6,0.1,0.9,0.2c0.4,0.2,0.8,0.3,1.2,0.4c1.1,0.4,2.2,0.7,3.3,0.9c0.4-0.4,0.7-0.8,1-1.3
	c0.1-0.7-0.1-1.4-0.5-2l-1.1-1.1v-0.3c0.5-0.4,1-0.8,1.6-1.2c-0.3-0.4-0.7-0.8-1.1-1.1c-0.5-0.3-1-0.5-1.5-0.8h-0.5c0,0,0-0.1,0-0.1
	c-0.5-0.1-1-0.3-1.5-0.6c0-0.6,0.1-1.1,0-1.7c-0.7-0.4-1.6-0.4-2.4-0.1l-1,0.1l-0.6,0.3h-0.6c-0.2-0.6-0.4-1.1-0.8-1.6
	C161.7,121.9,161.5,121.9,161.3,122.1 M128.4,122c-0.4,0.4-0.9,0.7-1.4,0.9c-1,0.1-1.9,0-2.9-0.2c-0.5-0.2-1,0.2-1.4,0.3
	c0,0.6,0,1.2,0.1,1.8c-0.2,0.1-0.5,0.1-0.7,0.2l-0.4,0.1c-0.4,0.2-0.8,0.3-1.2,0.5c-0.9,0.3-1.8,0.7-2.6,1.3
	c0.4,0.5,0.9,0.9,1.3,1.4v0.3c-0.4,0.7-0.9,1.4-1.3,2.2c-0.1,0.4-0.1,0.8-0.1,1.1l0.5,0.4c0.4,0.2,0.9,0.4,1.4,0.6
	c0.5,0.2,0.9-0.1,1.4-0.2c0.8-0.3,1.6-0.5,2.3-0.8c0.3-0.1,0.7-0.1,1-0.1l0.5,0.7c0.4,0,0.8-0.1,1.2-0.3c0.5-0.6,1-1.1,1.7-1.4
	l0.7-0.2c0.6,0,1.3,0,1.9,0l0.5-0.3c0.2-0.5,0.3-1,0.1-1.5c-0.4,0.3-0.8,0.6-1.3,0.7c0.2-0.6,0.4-1.3,0.7-1.8l-0.3,0.1l-0.9,0.7
	h-0.3c-0.1-0.3-0.2-0.5-0.4-0.8c-1.1,0.5-1.8,1.5-2.7,2.3l-0.3-0.1c0.2-0.4,0.3-0.8,0.2-1.2c-0.5,0.5-1.1,0.9-1.7,1.3
	c-0.4,0.4-0.8,0.7-1.2,1c-0.1-0.2-0.2-0.4-0.4-0.7c0,0.4,0,0.7,0,1.1l-0.4-0.1l0.3-0.1c0-0.4-0.1-0.7-0.1-1.1l-1,0.4
	c-0.3,0.1-0.5,0.1-0.8,0.2l-0.6,0.1c0.2-0.3,0.4-0.6,0.7-0.8c0.6-0.3,1.1-0.7,1.5-1.1c-0.5,0-1-0.1-1.4-0.1c0-0.2,0.1-0.4,0.1-0.5
	c0.9-0.3,1.8-0.6,2.6-1c-1-0.1-1.9,0-2.9-0.1v-0.6c2.1-0.1,4.2,0,6.3-0.1c-0.3-0.4-0.8-0.4-1.2-0.4s-1-0.3-1.5-0.4
	c0.3-0.2,0.7-0.2,1.1-0.2c1.1,0,2.3,0,3.4,0v-0.1c-0.5-0.2-1-0.4-1.5-0.6l0.5,0.2c-0.1-0.1-0.2-0.3-0.4-0.4c0.5,0,0.9,0.1,1.4,0.1
	l0.3,0.1c0.3,0,0.7,0.1,1,0.2c0.5,0.2,1,0.3,1.6,0.4c-0.2-0.3-0.4-0.6-0.6-0.9c0.2-0.2,0.4-0.4,0.7-0.6c0-0.1,0-0.2,0-0.4
	c-0.5-0.4-1-0.8-1.5-1.2C129.5,122,128.9,121.9,128.4,122 M133.2,122.3c0,1.7,0,3.4,0,5.2c-0.1,0.3-0.2,0.6-0.2,0.8
	c-0.2,0.6-0.4,1.1-0.6,1.7c-0.2,0.8-0.5,1.6-0.8,2.4l-0.2,0.4c-0.1,0.2-0.1,0.4-0.2,0.6c-0.2,0.6-0.5,1.3-0.6,1.9
	c0.1,0.3,0.2,0.5,0.4,0.8c0.5,0.2,0.9,0.5,1.4,0.8l1,0.5l1.1,0.6l1.3,0.6l0.6,0.2c0.2,0.1,0.4,0.2,0.6,0.2c0.5,0.1,1,0.2,1.4,0.3
	l0.3,0.2l0.6,0.1c0.4,0.1,0.8,0.2,1.2,0.2c0.5,0.1,1,0.2,1.6,0.1l0.5,0.3h1.6c1.7,0.1,3.3,0,5-0.2c1.1-0.1,2.2-0.3,3.3-0.6
	c1.5-0.3,2.9-0.9,4.3-1.7l0.6-0.4l0.3-0.2c0.3-0.4,0.7-0.7,1.1-0.9c0-0.1,0-0.2,0-0.3l-0.5-0.5c-0.3-0.6-0.6-1.2-0.8-1.8
	c-0.1-0.4-0.2-0.8-0.4-1.1s-0.1-0.5-0.2-0.8c-0.1-0.8-0.2-1.5-0.3-2.3c0-1.5,0-3.1,0-4.6c0.2-0.5,0.2-1,0.2-1.5
	c-0.8,0.2-1.5,0.4-2.2,0.6c-0.8,0.1-1.7,0.3-2.5,0.3c-1,0.2-1.9,0.2-2.9,0.2c-0.6,0.2-1.3,0.3-2,0.3l-0.7-0.3
	c-1.1,0.1-2.3,0-3.4-0.2c-0.6,0-1.2,0-1.7-0.2c-0.4,0-0.8,0-1.2,0l-0.2-0.2h-1c-0.8-0.2-1.6-0.3-2.4-0.4c-0.3-0.1-0.7-0.2-1-0.2
	C134.7,122.8,133.9,122.6,133.2,122.3L133.2,122.3z"/>
<path class="st8" d="M194.8,41.9l0.5,0.1c0.1,0.4,0.1,0.8,0.2,1.2c-0.1,0.5-0.2,0.9-0.3,1.4l-1.1-0.3l-0.4-0.7l0.5,0.1
	c0.2,0.3,0.6,0.5,0.9,0.7C195,43.5,194.9,42.7,194.8,41.9L194.8,41.9z"/>
<path class="st8" d="M121.7,87.6l0.6-0.4v0.1c0.1,1.4,0,2.8,0.1,4.1c0,0.5,0,1,0,1.5c-0.1,1.7,0.1,3.5,0,5.2c-0.2,2.5,0,5,0,7.4
	l1.4,0.2h0.2c-0.8,0.2-1.6,0.2-2.3-0.2C121.6,99.7,121.6,93.7,121.7,87.6L121.7,87.6z"/>
<path class="st8" d="M166.8,88c0-0.4,0.4-0.5,0.6-0.7c0,6.2,0,12.3,0,18.5l-0.7-0.1C166.8,99.8,166.8,93.9,166.8,88L166.8,88z"/>
<path class="st8" d="M141.5,97.3l1.2,0.1c0.1,1.7,0,3.4,0,5.1c0,1.2,0,2.3-0.1,3.5h-1.2c-0.1-1.1-0.1-2.1,0-3.2
	C141.4,100.9,141.5,99.1,141.5,97.3L141.5,97.3z"/>
<path class="st8" d="M143.7,97.3c0.4,0,0.8,0,1.1,0c0,0.3,0.1,0.7,0.2,1c0,2.2,0.1,4.4-0.1,6.5c0,0.3,0,0.7,0.1,1
	c-0.4,0.1-0.9,0.1-1.3,0.1C143.6,103.1,143.6,100.2,143.7,97.3L143.7,97.3z"/>
<path class="st8" d="M145.8,97.3h1.3c0,2.8,0,5.6,0,8.4l-0.4,0.3l-0.9-0.2C145.8,102.9,145.8,100.1,145.8,97.3L145.8,97.3z"/>
<path class="st8" d="M148.3,97.3h1.1c0.1,2.9,0,5.8,0,8.7h-1.3c0-2.7,0-5.5,0-8.2L148.3,97.3L148.3,97.3z"/>
<path class="st8" d="M150.4,97.3c0.4,0,0.8,0,1.1,0c0.1,2.9,0,5.8,0,8.7h-1.2C150.3,103.1,150.3,100.2,150.4,97.3L150.4,97.3z"/>
<path class="st8" d="M152.8,97.3c0.4-0.1,0.9,0,1.3,0.2c0,2.8,0,5.6,0,8.4c-0.4,0-0.9,0-1.3,0C152.8,103.1,152.8,100.2,152.8,97.3
	L152.8,97.3z"/>
<path class="st8" d="M139,106c0-2.9-0.1-5.7,0-8.6c0.4-0.1,0.7-0.1,1.1-0.1c0.2,0.7,0.2,1.4,0.2,2.1v6.7H139z"/>
<path class="st8" d="M177.5,113.7c0.2-1.1,0.7-2.2,1.3-3.2c-0.1,0.7-0.2,1.3-0.2,2l-0.2,0.3v0.6c-0.1-0.2-0.2-0.3-0.3-0.5
	C178,113.3,177.8,113.6,177.5,113.7L177.5,113.7z"/>
<path class="st8" d="M97.1,112.2c0-0.1,0-0.3,0-0.4h0.7c0.5,0.2,0.9,0.4,1.4,0.6c0.2,0.6,0.7,1.2,0.4,1.8c-0.4-0.3-0.9-0.6-1.3-1
	C97.9,112.9,97.5,112.5,97.1,112.2L97.1,112.2z"/>
<path class="st8" d="M171.4,115.6l0.5,0.1c-0.4,0.5-0.8,0.9-1.3,1.2c-0.6,0.5-1.3,0.9-2,1.1v-0.6l0.4-0.2c0.2-0.2,0.5-0.4,0.8-0.5
	c0.3-0.2,0.7-0.4,1-0.6L171.4,115.6L171.4,115.6z"/>
<path class="st8" d="M116.8,123.6c0.3,0,0.7,0,1,0.1l-0.5,0.7h-1v0.3h1.2v0.2c-0.7-0.1-1.4,0-2.1,0.1l-0.3,0.1c0-0.2,0-0.4,0-0.6
	c0.8-0.1,1.7-0.3,2.5-0.6L116.8,123.6L116.8,123.6z"/>
<path class="st8" d="M126.1,124.1c0.8,0.2,1.7,0.4,2.5,0.6c-0.5,0-0.9,0-1.4-0.1c0.1,0.2,0.2,0.3,0.4,0.4l-0.5-0.2
	c-0.3-0.1-0.7-0.3-1-0.4C126.1,124.4,126.1,124.3,126.1,124.1z"/>
<path class="st8" d="M152.6,127.3c1-0.3,2.1-0.3,3.1-0.2c-0.1,0.4-0.3,0.8-0.4,1.2c0,0.1,0,0.4,0,0.6l-0.7-0.1
	c-0.5-0.1-1-0.2-1.5-0.1l-0.3-0.2c-0.1,0.1-0.2,0.4-0.3,0.6s0,0.4,0,0.6c0.4,0.2,0.9,0.4,1.3,0.5l0.7,0.4c0.7,0.7,1.1,1.5,1.2,2.5
	c-0.1,0.2-0.2,0.4-0.2,0.6c-0.5,1.1-1.2,2-2.2,2.6c-0.5,0.4-1.2,0.4-1.8,0c0.6-0.9,1.7-1.5,2.4-2.3c0.1-0.2,0.2-0.4,0.2-0.6
	s0-0.6,0-0.9c-0.5-1.3-2.5-1.2-2.7-2.7c0.2-0.5,0.4-1.1,0.5-1.6l0.1-0.4L152.6,127.3L152.6,127.3z"/>
<path class="st8" d="M136.6,127.5l0.8-0.3c0.3,0.3,0.5,0.7,0.6,1.1c-0.1,1.2-0.1,2.5,0,3.7c-0.1,0.8-0.1,1.6,0,2.5
	c0.1,0.6,0.3,1.2,0.4,1.7H136c0-0.4,0-0.8,0-1.2c0.2-0.9,0.2-1.8,0.2-2.8c0.1-1.5,0-2.9-0.4-4.3L136.6,127.5L136.6,127.5z"/>
<path class="st8" d="M140.4,127.3c0.3-0.1,0.6-0.2,0.9-0.3c1.1,0,2.3,0,3.5,0c0,0.3-0.1,0.6-0.2,0.8l-0.2,0.6
	c-0.3,0.6-0.5,1.2-0.8,1.8c-0.5,1-0.7,2.2-1.2,3.2c0,0.2,0,0.4,0,0.7h-0.2c-0.2,0.8-0.2,1.7-0.2,2.5l-0.7,0.7
	c-0.2-0.3-0.3-0.5-0.4-0.8c0.1-0.3,0.2-0.7,0.3-1c0.1-0.3,0.1-0.6,0.2-0.9c0.2-0.6,0.4-1.3,0.6-1.9c0-0.1,0.1-0.3,0.1-0.4
	c0.2-0.8,0.5-1.5,0.6-2.3l0.4-0.8c-0.9,0-1.8,0-2.8,0C140.1,128.6,140.1,127.9,140.4,127.3L140.4,127.3z"/>
<path class="st8" d="M146.4,127.3c0.3-0.1,0.6-0.2,0.8-0.3c0.8,0,1.6,0,2.4,0v1.3c-0.4,0-0.9,0.1-1.3,0.2h-0.8
	c-0.3,0.2-0.7,0.4-0.7,0.8l0.8,0.6c0.3,0.1,0.6,0.2,1,0.3c0.3,0.3,0.7,0.7,1,1c0.3,0.7,0.3,1.4,0.2,2.1c-0.2,0.4-0.4,0.8-0.7,1.2
	L149,135c-0.8,0.8-1.8,1.4-2.9,1.8c0.1-0.4,0.2-0.8,0.3-1.2c0.6-0.6,1.2-1.2,1.7-1.9v-1c-0.2-0.3-0.4-0.6-0.6-0.8
	c-0.6-0.3-1.2-0.7-1.7-1.1c-0.2-0.5-0.3-1.1-0.1-1.6c0.1-0.4,0.2-0.8,0.3-1.2C146.2,127.6,146.3,127.5,146.4,127.3L146.4,127.3z"/>
<rect x="45.9" class="st9" width="200" height="200"/>
</svg>
